<?xml version="1.0" encoding="utf-8" standalone="no"?>
<!DOCTYPE svg PUBLIC "-//W3C//DTD SVG 1.1//EN"
  "http://www.w3.org/Graphics/SVG/1.1/DTD/svg11.dtd">
<svg xmlns:xlink="http://www.w3.org/1999/xlink" width="238.79952pt" height="181.19952pt" viewBox="0 0 238.79952 181.19952" xmlns="http://www.w3.org/2000/svg" version="1.1">
 <metadata>
  <rdf:RDF xmlns:dc="http://purl.org/dc/elements/1.1/" xmlns:cc="http://creativecommons.org/ns#" xmlns:rdf="http://www.w3.org/1999/02/22-rdf-syntax-ns#">
   <cc:Work>
    <dc:type rdf:resource="http://purl.org/dc/dcmitype/StillImage"/>
    <dc:date>2026-04-22T23:17:53.620239</dc:date>
    <dc:format>image/svg+xml</dc:format>
    <dc:creator>
     <cc:Agent>
      <dc:title>Matplotlib v3.10.0, https://matplotlib.org/</dc:title>
     </cc:Agent>
    </dc:creator>
   </cc:Work>
  </rdf:RDF>
 </metadata>
 <defs>
  <style type="text/css">*{stroke-linejoin: round; stroke-linecap: butt}</style>
 </defs>
 <g id="figure_1">
  <g id="patch_1">
   <path d="M 0 181.19952 
L 238.79952 181.19952 
L 238.79952 0 
L 0 0 
z
" style="fill: #ffffff"/>
  </g>
  <g id="axes_1">
   <g id="patch_2">
    <path d="M 29.810938 151.954207 
L 235.19952 151.954207 
L 235.19952 3.6 
L 29.810938 3.6 
z
" style="fill: #ffffff"/>
   </g>
   <g id="matplotlib.axis_1">
    <g id="xtick_1">
     <g id="line2d_1">
      <path d="M 142.58565 151.954207 
L 142.58565 3.6 
" clip-path="url(#p68c75cb4f7)" style="fill: none; stroke-dasharray: 2.59,1.12; stroke-dashoffset: 0; stroke: #d7d7d7; stroke-opacity: 0.7; stroke-width: 0.7"/>
     </g>
     <g id="line2d_2">
      <defs>
       <path id="m00ed0038b4" d="M 0 0 
L 0 -3 
" style="stroke: #000000; stroke-width: 0.5"/>
      </defs>
      <g>
       <use xlink:href="#m00ed0038b4" x="142.58565" y="151.954207" style="stroke: #000000; stroke-width: 0.5"/>
      </g>
     </g>
     <g id="line2d_3">
      <defs>
       <path id="m8a2d40f37b" d="M 0 0 
L 0 3 
" style="stroke: #000000; stroke-width: 0.5"/>
      </defs>
      <g>
       <use xlink:href="#m8a2d40f37b" x="142.58565" y="3.6" style="stroke: #000000; stroke-width: 0.5"/>
      </g>
     </g>
     <g id="text_1">
      <!-- 10 -->
      <g transform="translate(137.58565 162.397958) scale(0.1 -0.1)">
       <defs>
        <path id="TimesNewRomanPSMT-31" d="M 750 3822 
L 1781 4325 
L 1884 4325 
L 1884 747 
Q 1884 391 1914 303 
Q 1944 216 2037 169 
Q 2131 122 2419 116 
L 2419 0 
L 825 0 
L 825 116 
Q 1125 122 1212 167 
Q 1300 213 1334 289 
Q 1369 366 1369 747 
L 1369 3034 
Q 1369 3497 1338 3628 
Q 1316 3728 1258 3775 
Q 1200 3822 1119 3822 
Q 1003 3822 797 3725 
L 750 3822 
z
" transform="scale(0.015625)"/>
        <path id="TimesNewRomanPSMT-30" d="M 231 2094 
Q 231 2819 450 3342 
Q 669 3866 1031 4122 
Q 1313 4325 1613 4325 
Q 2100 4325 2488 3828 
Q 2972 3213 2972 2159 
Q 2972 1422 2759 906 
Q 2547 391 2217 158 
Q 1888 -75 1581 -75 
Q 975 -75 572 641 
Q 231 1244 231 2094 
z
M 844 2016 
Q 844 1141 1059 588 
Q 1238 122 1591 122 
Q 1759 122 1940 273 
Q 2122 425 2216 781 
Q 2359 1319 2359 2297 
Q 2359 3022 2209 3506 
Q 2097 3866 1919 4016 
Q 1791 4119 1609 4119 
Q 1397 4119 1231 3928 
Q 1006 3669 925 3112 
Q 844 2556 844 2016 
z
" transform="scale(0.015625)"/>
       </defs>
       <use xlink:href="#TimesNewRomanPSMT-31"/>
       <use xlink:href="#TimesNewRomanPSMT-30" transform="translate(50 0)"/>
      </g>
     </g>
    </g>
    <g id="text_2">
     <!-- 时间 / h -->
     <g transform="translate(112.505229 176.310458) scale(0.1 -0.1)">
      <defs>
       <path id="SimSun-65f6" d="M 4500 3600 
Q 4500 4575 4475 5225 
L 5100 4900 
L 4850 4725 
L 4850 3600 
L 5225 3600 
L 5550 3925 
L 6025 3450 
L 4850 3450 
L 4850 100 
Q 4850 -375 4300 -575 
Q 4275 -200 3475 -25 
L 3475 100 
Q 4150 0 4325 25 
Q 4500 50 4500 325 
L 4500 3450 
L 3200 3450 
Q 2875 3450 2600 3375 
L 2375 3600 
L 4500 3600 
z
M 2875 2825 
Q 3525 2375 3637 2200 
Q 3750 2025 3750 1925 
Q 3750 1800 3637 1637 
Q 3525 1475 3475 1475 
Q 3400 1475 3325 1775 
Q 3200 2225 2800 2750 
L 2875 2825 
z
M 925 4150 
L 925 2650 
L 1950 2650 
L 1950 4150 
L 925 4150 
z
M 925 2500 
L 925 900 
L 1950 900 
L 1950 2500 
L 925 2500 
z
M 2300 2000 
Q 2300 800 2325 450 
L 1950 250 
L 1950 750 
L 925 750 
L 925 225 
L 550 25 
Q 575 825 575 2425 
Q 575 4025 550 4500 
L 950 4300 
L 1900 4300 
L 2100 4550 
L 2500 4225 
L 2300 4050 
L 2300 2000 
z
" transform="scale(0.015625)"/>
       <path id="SimSun-95f4" d="M 2150 525 
Q 2175 1325 2175 2112 
Q 2175 2900 2150 3675 
L 2525 3450 
L 3750 3450 
L 4000 3700 
L 4325 3375 
L 4125 3200 
Q 4125 1550 4150 775 
L 3800 575 
L 3800 975 
L 2500 975 
L 2500 700 
L 2150 525 
z
M 2500 3300 
L 2500 2325 
L 3800 2325 
L 3800 3300 
L 2500 3300 
z
M 2500 2175 
L 2500 1125 
L 3800 1125 
L 3800 2175 
L 2500 2175 
z
M 1275 5200 
Q 1850 4825 1950 4675 
Q 2050 4525 2050 4425 
Q 2050 4275 1950 4137 
Q 1850 4000 1825 4000 
Q 1750 4000 1675 4275 
Q 1550 4650 1200 5125 
L 1275 5200 
z
M 1125 425 
Q 1125 25 1150 -375 
L 750 -525 
Q 775 -150 775 1950 
Q 775 4050 750 4425 
L 1350 4125 
L 1125 3975 
L 1125 425 
z
M 4225 125 
Q 5025 0 5125 37 
Q 5225 75 5225 250 
L 5225 4450 
L 3225 4450 
Q 2900 4450 2625 4375 
L 2400 4600 
L 5175 4600 
L 5425 4850 
L 5775 4500 
L 5575 4350 
L 5575 225 
Q 5575 -100 5462 -250 
Q 5350 -400 5000 -550 
Q 4800 -125 4225 25 
L 4225 125 
z
" transform="scale(0.015625)"/>
       <path id="SimSun-20" d="M 0 0 
Q 0 0 0 0 
z
" transform="scale(0.015625)"/>
       <path id="SimSun-2f" d="M 400 -475 
L 225 -375 
L 2775 4975 
L 2950 4875 
L 400 -475 
z
" transform="scale(0.015625)"/>
       <path id="SimSun-68" d="M 200 100 
L 200 250 
L 325 250 
Q 450 250 500 300 
Q 550 350 550 450 
L 550 4025 
Q 550 4125 500 4175 
Q 450 4225 325 4225 
L 175 4225 
L 175 4375 
L 450 4375 
Q 550 4375 650 4425 
Q 750 4475 850 4575 
L 900 4575 
L 900 2450 
Q 1125 2725 1362 2837 
Q 1600 2950 1875 2950 
Q 2250 2950 2450 2737 
Q 2650 2525 2650 2075 
L 2650 450 
Q 2650 350 2712 300 
Q 2775 250 2875 250 
L 3000 250 
L 3000 100 
L 1950 100 
L 1950 250 
L 2075 250 
Q 2200 250 2250 300 
Q 2300 350 2300 450 
L 2300 2025 
Q 2300 2450 2162 2587 
Q 2025 2725 1800 2725 
Q 1600 2725 1362 2600 
Q 1125 2475 900 2175 
L 900 450 
Q 900 350 962 300 
Q 1025 250 1125 250 
L 1250 250 
L 1250 100 
L 200 100 
z
" transform="scale(0.015625)"/>
      </defs>
      <use xlink:href="#SimSun-65f6"/>
      <use xlink:href="#SimSun-95f4" transform="translate(100 0)"/>
      <use xlink:href="#SimSun-20" transform="translate(200 0)"/>
      <use xlink:href="#SimSun-2f" transform="translate(250 0)"/>
      <use xlink:href="#SimSun-20" transform="translate(300 0)"/>
      <use xlink:href="#SimSun-68" transform="translate(350 0)"/>
     </g>
    </g>
   </g>
   <g id="matplotlib.axis_2">
    <g id="ytick_1">
     <g id="line2d_4">
      <path d="M 29.810938 140.313215 
L 235.19952 140.313215 
" clip-path="url(#p68c75cb4f7)" style="fill: none; stroke-dasharray: 2.59,1.12; stroke-dashoffset: 0; stroke: #d7d7d7; stroke-opacity: 0.7; stroke-width: 0.7"/>
     </g>
     <g id="line2d_5">
      <defs>
       <path id="m5e1b90a8df" d="M 0 0 
L 3 0 
" style="stroke: #000000; stroke-width: 0.5"/>
      </defs>
      <g>
       <use xlink:href="#m5e1b90a8df" x="29.810938" y="140.313215" style="stroke: #000000; stroke-width: 0.5"/>
      </g>
     </g>
     <g id="line2d_6">
      <defs>
       <path id="m1e0c5c8aef" d="M 0 0 
L -3 0 
" style="stroke: #000000; stroke-width: 0.5"/>
      </defs>
      <g>
       <use xlink:href="#m1e0c5c8aef" x="235.19952" y="140.313215" style="stroke: #000000; stroke-width: 0.5"/>
      </g>
     </g>
     <g id="text_3">
      <!-- $\mathdefault{0}$ -->
      <g transform="translate(21.310938 143.78509) scale(0.1 -0.1)">
       <use xlink:href="#TimesNewRomanPSMT-30" transform="translate(0 0.421875)"/>
      </g>
     </g>
    </g>
    <g id="ytick_2">
     <g id="line2d_7">
      <path d="M 29.810938 109.918362 
L 235.19952 109.918362 
" clip-path="url(#p68c75cb4f7)" style="fill: none; stroke-dasharray: 2.59,1.12; stroke-dashoffset: 0; stroke: #d7d7d7; stroke-opacity: 0.7; stroke-width: 0.7"/>
     </g>
     <g id="line2d_8">
      <g>
       <use xlink:href="#m5e1b90a8df" x="29.810938" y="109.918362" style="stroke: #000000; stroke-width: 0.5"/>
      </g>
     </g>
     <g id="line2d_9">
      <g>
       <use xlink:href="#m1e0c5c8aef" x="235.19952" y="109.918362" style="stroke: #000000; stroke-width: 0.5"/>
      </g>
     </g>
     <g id="text_4">
      <!-- $\mathdefault{10}$ -->
      <g transform="translate(16.310938 113.390237) scale(0.1 -0.1)">
       <use xlink:href="#TimesNewRomanPSMT-31" transform="translate(0 0.421875)"/>
       <use xlink:href="#TimesNewRomanPSMT-30" transform="translate(50 0.421875)"/>
      </g>
     </g>
    </g>
    <g id="ytick_3">
     <g id="line2d_10">
      <path d="M 29.810938 79.52351 
L 235.19952 79.52351 
" clip-path="url(#p68c75cb4f7)" style="fill: none; stroke-dasharray: 2.59,1.12; stroke-dashoffset: 0; stroke: #d7d7d7; stroke-opacity: 0.7; stroke-width: 0.7"/>
     </g>
     <g id="line2d_11">
      <g>
       <use xlink:href="#m5e1b90a8df" x="29.810938" y="79.52351" style="stroke: #000000; stroke-width: 0.5"/>
      </g>
     </g>
     <g id="line2d_12">
      <g>
       <use xlink:href="#m1e0c5c8aef" x="235.19952" y="79.52351" style="stroke: #000000; stroke-width: 0.5"/>
      </g>
     </g>
     <g id="text_5">
      <!-- $\mathdefault{20}$ -->
      <g transform="translate(16.310938 82.995385) scale(0.1 -0.1)">
       <defs>
        <path id="TimesNewRomanPSMT-32" d="M 2934 816 
L 2638 0 
L 138 0 
L 138 116 
Q 1241 1122 1691 1759 
Q 2141 2397 2141 2925 
Q 2141 3328 1894 3587 
Q 1647 3847 1303 3847 
Q 991 3847 742 3664 
Q 494 3481 375 3128 
L 259 3128 
Q 338 3706 661 4015 
Q 984 4325 1469 4325 
Q 1984 4325 2329 3994 
Q 2675 3663 2675 3213 
Q 2675 2891 2525 2569 
Q 2294 2063 1775 1497 
Q 997 647 803 472 
L 1909 472 
Q 2247 472 2383 497 
Q 2519 522 2628 598 
Q 2738 675 2819 816 
L 2934 816 
z
" transform="scale(0.015625)"/>
       </defs>
       <use xlink:href="#TimesNewRomanPSMT-32" transform="translate(0 0.421875)"/>
       <use xlink:href="#TimesNewRomanPSMT-30" transform="translate(50 0.421875)"/>
      </g>
     </g>
    </g>
    <g id="ytick_4">
     <g id="line2d_13">
      <path d="M 29.810938 49.128658 
L 235.19952 49.128658 
" clip-path="url(#p68c75cb4f7)" style="fill: none; stroke-dasharray: 2.59,1.12; stroke-dashoffset: 0; stroke: #d7d7d7; stroke-opacity: 0.7; stroke-width: 0.7"/>
     </g>
     <g id="line2d_14">
      <g>
       <use xlink:href="#m5e1b90a8df" x="29.810938" y="49.128658" style="stroke: #000000; stroke-width: 0.5"/>
      </g>
     </g>
     <g id="line2d_15">
      <g>
       <use xlink:href="#m1e0c5c8aef" x="235.19952" y="49.128658" style="stroke: #000000; stroke-width: 0.5"/>
      </g>
     </g>
     <g id="text_6">
      <!-- $\mathdefault{30}$ -->
      <g transform="translate(16.310938 52.600533) scale(0.1 -0.1)">
       <defs>
        <path id="TimesNewRomanPSMT-33" d="M 325 3431 
Q 506 3859 782 4092 
Q 1059 4325 1472 4325 
Q 1981 4325 2253 3994 
Q 2459 3747 2459 3466 
Q 2459 3003 1878 2509 
Q 2269 2356 2469 2072 
Q 2669 1788 2669 1403 
Q 2669 853 2319 450 
Q 1863 -75 997 -75 
Q 569 -75 414 31 
Q 259 138 259 259 
Q 259 350 332 419 
Q 406 488 509 488 
Q 588 488 669 463 
Q 722 447 909 348 
Q 1097 250 1169 231 
Q 1284 197 1416 197 
Q 1734 197 1970 444 
Q 2206 691 2206 1028 
Q 2206 1275 2097 1509 
Q 2016 1684 1919 1775 
Q 1784 1900 1550 2001 
Q 1316 2103 1072 2103 
L 972 2103 
L 972 2197 
Q 1219 2228 1467 2375 
Q 1716 2522 1828 2728 
Q 1941 2934 1941 3181 
Q 1941 3503 1739 3701 
Q 1538 3900 1238 3900 
Q 753 3900 428 3381 
L 325 3431 
z
" transform="scale(0.015625)"/>
       </defs>
       <use xlink:href="#TimesNewRomanPSMT-33" transform="translate(0 0.421875)"/>
       <use xlink:href="#TimesNewRomanPSMT-30" transform="translate(50 0.421875)"/>
      </g>
     </g>
    </g>
    <g id="ytick_5">
     <g id="line2d_16">
      <path d="M 29.810938 18.733805 
L 235.19952 18.733805 
" clip-path="url(#p68c75cb4f7)" style="fill: none; stroke-dasharray: 2.59,1.12; stroke-dashoffset: 0; stroke: #d7d7d7; stroke-opacity: 0.7; stroke-width: 0.7"/>
     </g>
     <g id="line2d_17">
      <g>
       <use xlink:href="#m5e1b90a8df" x="29.810938" y="18.733805" style="stroke: #000000; stroke-width: 0.5"/>
      </g>
     </g>
     <g id="line2d_18">
      <g>
       <use xlink:href="#m1e0c5c8aef" x="235.19952" y="18.733805" style="stroke: #000000; stroke-width: 0.5"/>
      </g>
     </g>
     <g id="text_7">
      <!-- $\mathdefault{40}$ -->
      <g transform="translate(16.310938 22.20568) scale(0.1 -0.1)">
       <defs>
        <path id="TimesNewRomanPSMT-34" d="M 2978 1563 
L 2978 1119 
L 2409 1119 
L 2409 0 
L 1894 0 
L 1894 1119 
L 100 1119 
L 100 1519 
L 2066 4325 
L 2409 4325 
L 2409 1563 
L 2978 1563 
z
M 1894 1563 
L 1894 3666 
L 406 1563 
L 1894 1563 
z
" transform="scale(0.015625)"/>
       </defs>
       <use xlink:href="#TimesNewRomanPSMT-34" transform="translate(0 0.421875)"/>
       <use xlink:href="#TimesNewRomanPSMT-30" transform="translate(50 0.421875)"/>
      </g>
     </g>
    </g>
    <g id="ytick_6">
     <g id="line2d_19">
      <path d="M 29.810938 146.392185 
L 235.19952 146.392185 
" clip-path="url(#p68c75cb4f7)" style="fill: none; stroke-dasharray: 1.295,0.56; stroke-dashoffset: 0; stroke: #d7d7d7; stroke-opacity: 0.28; stroke-width: 0.35"/>
     </g>
     <g id="line2d_20">
      <defs>
       <path id="mb558892afa" d="M 0 0 
L 1.5 0 
" style="stroke: #000000; stroke-width: 0.5"/>
      </defs>
      <g>
       <use xlink:href="#mb558892afa" x="29.810938" y="146.392185" style="stroke: #000000; stroke-width: 0.5"/>
      </g>
     </g>
     <g id="line2d_21">
      <defs>
       <path id="m77168b9d56" d="M 0 0 
L -1.5 0 
" style="stroke: #000000; stroke-width: 0.5"/>
      </defs>
      <g>
       <use xlink:href="#m77168b9d56" x="235.19952" y="146.392185" style="stroke: #000000; stroke-width: 0.5"/>
      </g>
     </g>
    </g>
    <g id="ytick_7">
     <g id="line2d_22">
      <path d="M 29.810938 134.234244 
L 235.19952 134.234244 
" clip-path="url(#p68c75cb4f7)" style="fill: none; stroke-dasharray: 1.295,0.56; stroke-dashoffset: 0; stroke: #d7d7d7; stroke-opacity: 0.28; stroke-width: 0.35"/>
     </g>
     <g id="line2d_23">
      <g>
       <use xlink:href="#mb558892afa" x="29.810938" y="134.234244" style="stroke: #000000; stroke-width: 0.5"/>
      </g>
     </g>
     <g id="line2d_24">
      <g>
       <use xlink:href="#m77168b9d56" x="235.19952" y="134.234244" style="stroke: #000000; stroke-width: 0.5"/>
      </g>
     </g>
    </g>
    <g id="ytick_8">
     <g id="line2d_25">
      <path d="M 29.810938 128.155274 
L 235.19952 128.155274 
" clip-path="url(#p68c75cb4f7)" style="fill: none; stroke-dasharray: 1.295,0.56; stroke-dashoffset: 0; stroke: #d7d7d7; stroke-opacity: 0.28; stroke-width: 0.35"/>
     </g>
     <g id="line2d_26">
      <g>
       <use xlink:href="#mb558892afa" x="29.810938" y="128.155274" style="stroke: #000000; stroke-width: 0.5"/>
      </g>
     </g>
     <g id="line2d_27">
      <g>
       <use xlink:href="#m77168b9d56" x="235.19952" y="128.155274" style="stroke: #000000; stroke-width: 0.5"/>
      </g>
     </g>
    </g>
    <g id="ytick_9">
     <g id="line2d_28">
      <path d="M 29.810938 122.076303 
L 235.19952 122.076303 
" clip-path="url(#p68c75cb4f7)" style="fill: none; stroke-dasharray: 1.295,0.56; stroke-dashoffset: 0; stroke: #d7d7d7; stroke-opacity: 0.28; stroke-width: 0.35"/>
     </g>
     <g id="line2d_29">
      <g>
       <use xlink:href="#mb558892afa" x="29.810938" y="122.076303" style="stroke: #000000; stroke-width: 0.5"/>
      </g>
     </g>
     <g id="line2d_30">
      <g>
       <use xlink:href="#m77168b9d56" x="235.19952" y="122.076303" style="stroke: #000000; stroke-width: 0.5"/>
      </g>
     </g>
    </g>
    <g id="ytick_10">
     <g id="line2d_31">
      <path d="M 29.810938 115.997333 
L 235.19952 115.997333 
" clip-path="url(#p68c75cb4f7)" style="fill: none; stroke-dasharray: 1.295,0.56; stroke-dashoffset: 0; stroke: #d7d7d7; stroke-opacity: 0.28; stroke-width: 0.35"/>
     </g>
     <g id="line2d_32">
      <g>
       <use xlink:href="#mb558892afa" x="29.810938" y="115.997333" style="stroke: #000000; stroke-width: 0.5"/>
      </g>
     </g>
     <g id="line2d_33">
      <g>
       <use xlink:href="#m77168b9d56" x="235.19952" y="115.997333" style="stroke: #000000; stroke-width: 0.5"/>
      </g>
     </g>
    </g>
    <g id="ytick_11">
     <g id="line2d_34">
      <path d="M 29.810938 103.839392 
L 235.19952 103.839392 
" clip-path="url(#p68c75cb4f7)" style="fill: none; stroke-dasharray: 1.295,0.56; stroke-dashoffset: 0; stroke: #d7d7d7; stroke-opacity: 0.28; stroke-width: 0.35"/>
     </g>
     <g id="line2d_35">
      <g>
       <use xlink:href="#mb558892afa" x="29.810938" y="103.839392" style="stroke: #000000; stroke-width: 0.5"/>
      </g>
     </g>
     <g id="line2d_36">
      <g>
       <use xlink:href="#m77168b9d56" x="235.19952" y="103.839392" style="stroke: #000000; stroke-width: 0.5"/>
      </g>
     </g>
    </g>
    <g id="ytick_12">
     <g id="line2d_37">
      <path d="M 29.810938 97.760421 
L 235.19952 97.760421 
" clip-path="url(#p68c75cb4f7)" style="fill: none; stroke-dasharray: 1.295,0.56; stroke-dashoffset: 0; stroke: #d7d7d7; stroke-opacity: 0.28; stroke-width: 0.35"/>
     </g>
     <g id="line2d_38">
      <g>
       <use xlink:href="#mb558892afa" x="29.810938" y="97.760421" style="stroke: #000000; stroke-width: 0.5"/>
      </g>
     </g>
     <g id="line2d_39">
      <g>
       <use xlink:href="#m77168b9d56" x="235.19952" y="97.760421" style="stroke: #000000; stroke-width: 0.5"/>
      </g>
     </g>
    </g>
    <g id="ytick_13">
     <g id="line2d_40">
      <path d="M 29.810938 91.681451 
L 235.19952 91.681451 
" clip-path="url(#p68c75cb4f7)" style="fill: none; stroke-dasharray: 1.295,0.56; stroke-dashoffset: 0; stroke: #d7d7d7; stroke-opacity: 0.28; stroke-width: 0.35"/>
     </g>
     <g id="line2d_41">
      <g>
       <use xlink:href="#mb558892afa" x="29.810938" y="91.681451" style="stroke: #000000; stroke-width: 0.5"/>
      </g>
     </g>
     <g id="line2d_42">
      <g>
       <use xlink:href="#m77168b9d56" x="235.19952" y="91.681451" style="stroke: #000000; stroke-width: 0.5"/>
      </g>
     </g>
    </g>
    <g id="ytick_14">
     <g id="line2d_43">
      <path d="M 29.810938 85.60248 
L 235.19952 85.60248 
" clip-path="url(#p68c75cb4f7)" style="fill: none; stroke-dasharray: 1.295,0.56; stroke-dashoffset: 0; stroke: #d7d7d7; stroke-opacity: 0.28; stroke-width: 0.35"/>
     </g>
     <g id="line2d_44">
      <g>
       <use xlink:href="#mb558892afa" x="29.810938" y="85.60248" style="stroke: #000000; stroke-width: 0.5"/>
      </g>
     </g>
     <g id="line2d_45">
      <g>
       <use xlink:href="#m77168b9d56" x="235.19952" y="85.60248" style="stroke: #000000; stroke-width: 0.5"/>
      </g>
     </g>
    </g>
    <g id="ytick_15">
     <g id="line2d_46">
      <path d="M 29.810938 73.444539 
L 235.19952 73.444539 
" clip-path="url(#p68c75cb4f7)" style="fill: none; stroke-dasharray: 1.295,0.56; stroke-dashoffset: 0; stroke: #d7d7d7; stroke-opacity: 0.28; stroke-width: 0.35"/>
     </g>
     <g id="line2d_47">
      <g>
       <use xlink:href="#mb558892afa" x="29.810938" y="73.444539" style="stroke: #000000; stroke-width: 0.5"/>
      </g>
     </g>
     <g id="line2d_48">
      <g>
       <use xlink:href="#m77168b9d56" x="235.19952" y="73.444539" style="stroke: #000000; stroke-width: 0.5"/>
      </g>
     </g>
    </g>
    <g id="ytick_16">
     <g id="line2d_49">
      <path d="M 29.810938 67.365569 
L 235.19952 67.365569 
" clip-path="url(#p68c75cb4f7)" style="fill: none; stroke-dasharray: 1.295,0.56; stroke-dashoffset: 0; stroke: #d7d7d7; stroke-opacity: 0.28; stroke-width: 0.35"/>
     </g>
     <g id="line2d_50">
      <g>
       <use xlink:href="#mb558892afa" x="29.810938" y="67.365569" style="stroke: #000000; stroke-width: 0.5"/>
      </g>
     </g>
     <g id="line2d_51">
      <g>
       <use xlink:href="#m77168b9d56" x="235.19952" y="67.365569" style="stroke: #000000; stroke-width: 0.5"/>
      </g>
     </g>
    </g>
    <g id="ytick_17">
     <g id="line2d_52">
      <path d="M 29.810938 61.286598 
L 235.19952 61.286598 
" clip-path="url(#p68c75cb4f7)" style="fill: none; stroke-dasharray: 1.295,0.56; stroke-dashoffset: 0; stroke: #d7d7d7; stroke-opacity: 0.28; stroke-width: 0.35"/>
     </g>
     <g id="line2d_53">
      <g>
       <use xlink:href="#mb558892afa" x="29.810938" y="61.286598" style="stroke: #000000; stroke-width: 0.5"/>
      </g>
     </g>
     <g id="line2d_54">
      <g>
       <use xlink:href="#m77168b9d56" x="235.19952" y="61.286598" style="stroke: #000000; stroke-width: 0.5"/>
      </g>
     </g>
    </g>
    <g id="ytick_18">
     <g id="line2d_55">
      <path d="M 29.810938 55.207628 
L 235.19952 55.207628 
" clip-path="url(#p68c75cb4f7)" style="fill: none; stroke-dasharray: 1.295,0.56; stroke-dashoffset: 0; stroke: #d7d7d7; stroke-opacity: 0.28; stroke-width: 0.35"/>
     </g>
     <g id="line2d_56">
      <g>
       <use xlink:href="#mb558892afa" x="29.810938" y="55.207628" style="stroke: #000000; stroke-width: 0.5"/>
      </g>
     </g>
     <g id="line2d_57">
      <g>
       <use xlink:href="#m77168b9d56" x="235.19952" y="55.207628" style="stroke: #000000; stroke-width: 0.5"/>
      </g>
     </g>
    </g>
    <g id="ytick_19">
     <g id="line2d_58">
      <path d="M 29.810938 43.049687 
L 235.19952 43.049687 
" clip-path="url(#p68c75cb4f7)" style="fill: none; stroke-dasharray: 1.295,0.56; stroke-dashoffset: 0; stroke: #d7d7d7; stroke-opacity: 0.28; stroke-width: 0.35"/>
     </g>
     <g id="line2d_59">
      <g>
       <use xlink:href="#mb558892afa" x="29.810938" y="43.049687" style="stroke: #000000; stroke-width: 0.5"/>
      </g>
     </g>
     <g id="line2d_60">
      <g>
       <use xlink:href="#m77168b9d56" x="235.19952" y="43.049687" style="stroke: #000000; stroke-width: 0.5"/>
      </g>
     </g>
    </g>
    <g id="ytick_20">
     <g id="line2d_61">
      <path d="M 29.810938 36.970717 
L 235.19952 36.970717 
" clip-path="url(#p68c75cb4f7)" style="fill: none; stroke-dasharray: 1.295,0.56; stroke-dashoffset: 0; stroke: #d7d7d7; stroke-opacity: 0.28; stroke-width: 0.35"/>
     </g>
     <g id="line2d_62">
      <g>
       <use xlink:href="#mb558892afa" x="29.810938" y="36.970717" style="stroke: #000000; stroke-width: 0.5"/>
      </g>
     </g>
     <g id="line2d_63">
      <g>
       <use xlink:href="#m77168b9d56" x="235.19952" y="36.970717" style="stroke: #000000; stroke-width: 0.5"/>
      </g>
     </g>
    </g>
    <g id="ytick_21">
     <g id="line2d_64">
      <path d="M 29.810938 30.891746 
L 235.19952 30.891746 
" clip-path="url(#p68c75cb4f7)" style="fill: none; stroke-dasharray: 1.295,0.56; stroke-dashoffset: 0; stroke: #d7d7d7; stroke-opacity: 0.28; stroke-width: 0.35"/>
     </g>
     <g id="line2d_65">
      <g>
       <use xlink:href="#mb558892afa" x="29.810938" y="30.891746" style="stroke: #000000; stroke-width: 0.5"/>
      </g>
     </g>
     <g id="line2d_66">
      <g>
       <use xlink:href="#m77168b9d56" x="235.19952" y="30.891746" style="stroke: #000000; stroke-width: 0.5"/>
      </g>
     </g>
    </g>
    <g id="ytick_22">
     <g id="line2d_67">
      <path d="M 29.810938 24.812776 
L 235.19952 24.812776 
" clip-path="url(#p68c75cb4f7)" style="fill: none; stroke-dasharray: 1.295,0.56; stroke-dashoffset: 0; stroke: #d7d7d7; stroke-opacity: 0.28; stroke-width: 0.35"/>
     </g>
     <g id="line2d_68">
      <g>
       <use xlink:href="#mb558892afa" x="29.810938" y="24.812776" style="stroke: #000000; stroke-width: 0.5"/>
      </g>
     </g>
     <g id="line2d_69">
      <g>
       <use xlink:href="#m77168b9d56" x="235.19952" y="24.812776" style="stroke: #000000; stroke-width: 0.5"/>
      </g>
     </g>
    </g>
    <g id="ytick_23">
     <g id="line2d_70">
      <path d="M 29.810938 12.654835 
L 235.19952 12.654835 
" clip-path="url(#p68c75cb4f7)" style="fill: none; stroke-dasharray: 1.295,0.56; stroke-dashoffset: 0; stroke: #d7d7d7; stroke-opacity: 0.28; stroke-width: 0.35"/>
     </g>
     <g id="line2d_71">
      <g>
       <use xlink:href="#mb558892afa" x="29.810938" y="12.654835" style="stroke: #000000; stroke-width: 0.5"/>
      </g>
     </g>
     <g id="line2d_72">
      <g>
       <use xlink:href="#m77168b9d56" x="235.19952" y="12.654835" style="stroke: #000000; stroke-width: 0.5"/>
      </g>
     </g>
    </g>
    <g id="ytick_24">
     <g id="line2d_73">
      <path d="M 29.810938 6.575864 
L 235.19952 6.575864 
" clip-path="url(#p68c75cb4f7)" style="fill: none; stroke-dasharray: 1.295,0.56; stroke-dashoffset: 0; stroke: #d7d7d7; stroke-opacity: 0.28; stroke-width: 0.35"/>
     </g>
     <g id="line2d_74">
      <g>
       <use xlink:href="#mb558892afa" x="29.810938" y="6.575864" style="stroke: #000000; stroke-width: 0.5"/>
      </g>
     </g>
     <g id="line2d_75">
      <g>
       <use xlink:href="#m77168b9d56" x="235.19952" y="6.575864" style="stroke: #000000; stroke-width: 0.5"/>
      </g>
     </g>
    </g>
    <g id="text_8">
     <!-- 延迟 / m -->
     <g transform="translate(11.021875 97.777104) rotate(-90) scale(0.1 -0.1)">
      <defs>
       <path id="SimSun-5ef6" d="M 500 4450 
L 1800 4450 
L 2050 4700 
L 2450 4300 
Q 2225 4275 1900 3775 
Q 1575 3250 1250 2750 
L 1975 2750 
L 2150 3000 
L 2525 2675 
L 2325 2525 
Q 2175 1550 1875 750 
Q 2500 250 3112 175 
Q 3725 100 4350 100 
Q 5175 100 6025 175 
L 6025 75 
Q 5525 -25 5525 -350 
Q 3800 -350 3100 -187 
Q 2400 -25 1725 525 
Q 1175 -150 325 -525 
L 275 -450 
Q 1025 0 1500 750 
Q 1175 1175 825 2025 
L 900 2050 
Q 1275 1350 1625 1000 
Q 1925 1775 2000 2600 
L 1200 2600 
L 1050 2425 
L 725 2725 
Q 1025 2925 1362 3462 
Q 1700 4000 1825 4300 
L 1000 4300 
L 700 4250 
L 500 4450 
z
M 2800 4200 
Q 3675 4300 4412 4500 
Q 5150 4700 5350 4850 
L 5775 4400 
Q 5500 4400 5162 4350 
Q 4825 4300 4500 4250 
L 4500 2800 
L 5050 2800 
L 5350 3100 
L 5800 2650 
L 4500 2650 
L 4500 1025 
L 5200 1025 
L 5500 1325 
L 5950 875 
L 3425 875 
L 3225 650 
L 2900 975 
L 3075 1125 
L 3075 2275 
Q 3075 2775 3050 3200 
L 3575 2950 
L 3400 2825 
L 3400 1025 
L 4175 1025 
L 4175 4225 
Q 3575 4150 2825 4100 
L 2800 4200 
z
" transform="scale(0.015625)"/>
       <path id="SimSun-8fdf" d="M 3100 4500 
L 3100 3175 
L 4975 3175 
L 4975 4500 
L 3100 4500 
z
M 3100 3025 
Q 3075 1400 2100 650 
L 2050 725 
Q 2475 1225 2625 1850 
Q 2775 2475 2775 3387 
Q 2775 4300 2750 4875 
L 3100 4650 
L 4925 4650 
L 5175 4900 
L 5500 4575 
L 5300 4425 
Q 5300 3250 5325 2875 
L 4975 2725 
L 4975 3025 
L 3100 3025 
z
M 3625 2400 
L 3675 2500 
Q 4250 2225 4762 1912 
Q 5275 1600 5425 1387 
Q 5575 1175 5575 1025 
Q 5575 900 5500 800 
Q 5425 700 5400 700 
Q 5300 700 5175 950 
Q 5000 1275 4650 1612 
Q 4300 1950 3625 2400 
z
M 1600 950 
Q 1825 700 2225 450 
Q 2625 200 3400 162 
Q 4175 125 4825 150 
Q 5475 175 6100 275 
L 6100 175 
Q 5675 25 5600 -250 
Q 4500 -250 3750 -212 
Q 3000 -175 2562 0 
Q 2125 175 1825 525 
Q 1500 850 1412 837 
Q 1325 825 1050 512 
Q 775 200 650 -25 
L 275 325 
Q 725 600 1275 950 
L 1275 2925 
L 1075 2925 
Q 750 2925 475 2850 
L 250 3075 
L 1225 3075 
L 1500 3350 
L 1850 3000 
L 1600 2825 
L 1600 950 
z
M 925 4975 
L 975 5050 
Q 1500 4750 1662 4575 
Q 1825 4400 1812 4225 
Q 1800 4050 1712 3987 
Q 1625 3925 1575 3925 
Q 1475 3925 1400 4225 
Q 1275 4625 925 4975 
z
" transform="scale(0.015625)"/>
       <path id="SimSun-6d" d="M 175 2900 
Q 300 2900 425 2925 
Q 550 2950 625 3000 
L 675 3000 
L 675 2575 
Q 800 2775 950 2862 
Q 1100 2950 1275 2950 
Q 1500 2950 1625 2862 
Q 1750 2775 1775 2575 
Q 1900 2775 2062 2862 
Q 2225 2950 2400 2950 
Q 2700 2950 2812 2775 
Q 2925 2600 2925 2325 
L 2925 425 
Q 2925 325 2975 287 
Q 3025 250 3125 250 
L 3175 250 
L 3175 100 
L 2325 100 
L 2325 250 
L 2375 250 
Q 2475 250 2525 287 
Q 2575 325 2575 425 
L 2575 2300 
Q 2575 2575 2512 2662 
Q 2450 2750 2325 2750 
Q 2150 2750 2012 2625 
Q 1875 2500 1800 2275 
L 1800 425 
Q 1800 325 1850 287 
Q 1900 250 2000 250 
L 2050 250 
L 2050 100 
L 1200 100 
L 1200 250 
L 1250 250 
Q 1350 250 1400 287 
Q 1450 325 1450 425 
L 1450 2300 
Q 1450 2525 1400 2637 
Q 1350 2750 1200 2750 
Q 1025 2750 887 2625 
Q 750 2500 675 2250 
L 675 425 
Q 675 325 725 287 
Q 775 250 875 250 
L 925 250 
L 925 100 
L 75 100 
L 75 250 
L 125 250 
Q 225 250 275 287 
Q 325 325 325 425 
L 325 2600 
Q 325 2675 300 2712 
Q 275 2750 200 2750 
L 100 2750 
L 100 2900 
L 175 2900 
z
" transform="scale(0.015625)"/>
      </defs>
      <use xlink:href="#SimSun-5ef6"/>
      <use xlink:href="#SimSun-8fdf" transform="translate(100 0)"/>
      <use xlink:href="#SimSun-20" transform="translate(200 0)"/>
      <use xlink:href="#SimSun-2f" transform="translate(250 0)"/>
      <use xlink:href="#SimSun-20" transform="translate(300 0)"/>
      <use xlink:href="#SimSun-6d" transform="translate(350 0)"/>
     </g>
    </g>
   </g>
   <g id="line2d_76">
    <path d="M 29.810938 54.476191 
L 41.781438 66.822224 
L 48.081701 72.998927 
L 53.751938 78.250455 
L 58.792149 82.625718 
L 63.832359 86.693692 
L 68.242543 89.983604 
L 72.652728 93.011423 
L 77.062912 95.771656 
L 81.473096 98.263064 
L 85.883281 100.488514 
L 90.293465 102.454824 
L 94.703649 104.172544 
L 99.113833 105.655639 
L 103.524018 106.921089 
L 108.564228 108.125774 
L 113.604439 109.103002 
L 119.274676 109.970292 
L 125.574939 110.694212 
L 132.505229 111.246924 
L 139.435518 111.567818 
L 146.365808 111.651398 
L 152.666071 111.504274 
L 158.966334 111.130144 
L 165.266598 110.524363 
L 171.566861 109.69558 
L 178.497151 108.555019 
L 186.687493 106.970451 
L 208.738414 102.551185 
L 214.408651 101.739582 
L 218.818836 101.321066 
L 222.598993 101.157031 
L 226.379151 101.21527 
L 229.529283 101.466584 
L 232.679415 101.934169 
L 235.19952 102.486584 
L 235.19952 102.486584 
" clip-path="url(#p68c75cb4f7)" style="fill: none; stroke: #0c5da5; stroke-width: 1.8; stroke-linecap: square"/>
   </g>
   <g id="line2d_77">
    <path d="M 47.451675 28.518507 
L 49.97178 41.131292 
L 51.861859 49.056932 
L 53.751938 55.949779 
L 55.642017 62.159636 
L 57.532096 67.688919 
L 59.422175 72.511387 
L 61.312254 76.84814 
L 63.832359 81.884421 
L 67.612517 88.68543 
L 70.762649 93.968122 
L 73.91278 98.778117 
L 78.952991 105.826598 
L 82.103123 109.702069 
L 85.253254 113.139788 
L 87.77336 115.56444 
L 91.553518 118.782641 
L 94.703649 121.146886 
L 97.853781 123.185223 
L 101.633939 125.332513 
L 105.414097 127.187961 
L 111.084334 129.676715 
L 121.164755 133.386714 
L 124.314887 134.238913 
L 141.955624 138.796554 
L 151.406019 140.822842 
L 158.966334 141.936956 
L 165.266598 142.878622 
L 168.416729 143.276667 
L 172.196887 143.709341 
L 175.977045 144.035146 
L 180.38723 144.367733 
L 189.837624 144.916278 
L 194.247809 145.001186 
L 208.108388 144.379006 
L 220.708914 145.186652 
L 221.968967 145.078906 
L 229.529283 144.134179 
L 231.419362 143.931026 
L 232.049388 143.92371 
L 235.19952 143.032788 
L 235.19952 143.032788 
" clip-path="url(#p68c75cb4f7)" style="fill: none; stroke-dasharray: 6.66,2.88; stroke-dashoffset: 0; stroke: #00b945; stroke-width: 1.8"/>
   </g>
   <g id="patch_3">
    <path d="M 29.810938 151.954207 
L 29.810938 3.6 
" style="fill: none; stroke: #444444; stroke-linejoin: miter; stroke-linecap: square"/>
   </g>
   <g id="patch_4">
    <path d="M 235.19952 151.954207 
L 235.19952 3.6 
" style="fill: none; stroke: #444444; stroke-linejoin: miter; stroke-linecap: square"/>
   </g>
   <g id="patch_5">
    <path d="M 29.810938 151.954207 
L 235.19952 151.954207 
" style="fill: none; stroke: #444444; stroke-linejoin: miter; stroke-linecap: square"/>
   </g>
   <g id="patch_6">
    <path d="M 29.810938 3.6 
L 235.19952 3.6 
" style="fill: none; stroke: #444444; stroke-linejoin: miter; stroke-linecap: square"/>
   </g>
   <g id="legend_1">
    <g id="patch_7">
     <path d="M 106.19952 40.115625 
L 228.19952 40.115625 
Q 230.19952 40.115625 230.19952 38.115625 
L 230.19952 10.6 
Q 230.19952 8.6 228.19952 8.6 
L 106.19952 8.6 
Q 104.19952 8.6 104.19952 10.6 
L 104.19952 38.115625 
Q 104.19952 40.115625 106.19952 40.115625 
z
" style="fill: #ffffff; stroke: #c8c8c8; stroke-linejoin: miter"/>
    </g>
    <g id="line2d_78">
     <path d="M 108.19952 17.06875 
L 118.19952 17.06875 
L 128.19952 17.06875 
" style="fill: none; stroke: #0c5da5; stroke-width: 1.8; stroke-linecap: square"/>
    </g>
    <g id="text_9">
     <!-- 广播模型电离层延迟 -->
     <g transform="translate(136.19952 20.56875) scale(0.1 -0.1)">
      <defs>
       <path id="SimSun-5e7f" d="M 1000 4450 
L 1425 4200 
L 5100 4200 
L 5475 4575 
L 6000 4050 
L 1400 4050 
Q 1425 2025 1250 1187 
Q 1075 350 325 -600 
L 250 -550 
Q 1025 700 1037 2362 
Q 1050 4025 1000 4450 
z
M 3000 5250 
Q 3525 4950 3612 4837 
Q 3700 4725 3700 4600 
Q 3700 4525 3662 4437 
Q 3625 4350 3500 4275 
Q 3375 4200 3300 4500 
Q 3225 4775 2925 5175 
L 3000 5250 
z
" transform="scale(0.015625)"/>
       <path id="SimSun-64ad" d="M 5425 1600 
Q 5425 50 5450 -400 
L 5100 -525 
L 5100 -175 
L 3100 -175 
L 3100 -500 
L 2750 -625 
Q 2775 25 2775 2000 
Q 2425 1750 2025 1600 
L 2000 1675 
Q 2575 2025 2950 2412 
Q 3325 2800 3625 3250 
L 2700 3250 
L 2475 3200 
L 2275 3400 
L 3950 3400 
L 3950 4575 
Q 3400 4525 2575 4475 
L 2550 4575 
Q 3525 4700 4150 4850 
Q 4775 5000 5175 5200 
L 5500 4775 
Q 5275 4775 4275 4625 
L 4275 3400 
L 4500 3400 
Q 4625 3600 4775 3962 
Q 4925 4325 4975 4575 
L 5475 4250 
L 5250 4150 
Q 4900 3700 4650 3400 
L 5350 3400 
L 5650 3700 
L 6100 3250 
L 4425 3250 
Q 4725 2875 5175 2612 
Q 5625 2350 6125 2325 
L 6125 2250 
Q 5700 2175 5650 1975 
Q 5250 2150 4912 2462 
Q 4575 2775 4275 3250 
Q 4275 2450 4300 2125 
L 3925 1950 
Q 3950 2500 3950 3150 
Q 3725 2825 3375 2487 
Q 3025 2150 2800 2025 
L 3100 1850 
L 5050 1850 
L 5275 2075 
L 5625 1750 
L 5425 1600 
z
M 3100 1700 
L 3100 925 
L 3950 925 
L 3950 1700 
L 3100 1700 
z
M 4275 1700 
L 4275 925 
L 5100 925 
L 5100 1700 
L 4275 1700 
z
M 3100 775 
L 3100 -25 
L 3950 -25 
L 3950 775 
L 3100 775 
z
M 4275 775 
L 4275 -25 
L 5100 -25 
L 5100 775 
L 4275 775 
z
M 2925 4425 
Q 3375 4150 3450 4025 
Q 3525 3900 3525 3850 
Q 3525 3750 3437 3625 
Q 3350 3500 3325 3500 
Q 3250 3500 3200 3700 
Q 3100 3975 2875 4375 
L 2925 4425 
z
M 1725 2350 
L 2425 2825 
L 2475 2725 
L 1725 2075 
L 1725 -75 
Q 1725 -450 1225 -650 
Q 1200 -375 525 -100 
L 525 0 
Q 1175 -150 1287 -112 
Q 1400 -75 1400 125 
L 1400 1875 
Q 825 1425 575 1150 
L 275 1525 
Q 725 1725 1400 2175 
L 1400 3600 
L 775 3600 
L 550 3525 
L 325 3750 
L 1400 3750 
Q 1400 4825 1375 5200 
L 1925 4950 
L 1725 4775 
L 1725 3750 
L 2025 3750 
L 2275 4000 
L 2650 3600 
L 1725 3600 
L 1725 2350 
z
" transform="scale(0.015625)"/>
       <path id="SimSun-6a21" d="M 1275 -625 
Q 1300 225 1300 2575 
Q 950 1675 275 925 
L 225 975 
Q 1000 2200 1250 3625 
L 675 3625 
L 450 3575 
L 250 3775 
L 1300 3775 
Q 1300 4900 1275 5250 
L 1875 5000 
L 1625 4825 
L 1625 3775 
L 1900 3775 
L 2200 4075 
L 2650 3625 
L 1625 3625 
L 1625 3000 
Q 2200 2725 2337 2562 
Q 2475 2400 2475 2250 
Q 2475 2150 2412 2012 
Q 2350 1875 2300 1875 
Q 2225 1875 2125 2150 
Q 1950 2550 1625 2850 
Q 1625 250 1650 -475 
L 1275 -625 
z
M 4475 4400 
Q 4475 4825 4450 5275 
L 5025 5000 
L 4800 4825 
L 4800 4400 
L 5300 4400 
L 5600 4700 
L 6050 4250 
L 4800 4250 
Q 4800 3975 4825 3775 
L 4475 3650 
L 4475 4250 
L 3625 4250 
L 3625 3775 
L 3275 3600 
Q 3300 3900 3300 4250 
L 2675 4250 
L 2450 4200 
L 2250 4400 
L 3300 4400 
Q 3300 4750 3275 5250 
L 3825 5000 
L 3625 4850 
L 3625 4400 
L 4475 4400 
z
M 2825 1500 
Q 2850 2175 2850 2625 
Q 2850 3075 2825 3675 
L 3175 3475 
L 5000 3475 
L 5200 3700 
L 5550 3400 
L 5350 3250 
Q 5350 1975 5375 1700 
L 5025 1550 
L 5025 1850 
L 4150 1850 
Q 4125 1525 4075 1125 
L 5325 1125 
L 5650 1450 
L 6125 975 
L 4275 975 
Q 4550 550 4987 237 
Q 5425 -75 6100 -125 
L 6100 -225 
Q 5775 -275 5625 -550 
Q 4650 -175 4150 975 
L 4050 975 
Q 3650 -425 1875 -650 
L 1850 -575 
Q 2675 -375 3100 37 
Q 3525 450 3700 975 
L 2850 975 
Q 2525 975 2250 900 
L 2025 1125 
L 3725 1125 
Q 3775 1375 3800 1850 
L 3175 1850 
L 3175 1650 
L 2825 1500 
z
M 3175 3325 
L 3175 2750 
L 5025 2750 
L 5025 3325 
L 3175 3325 
z
M 3175 2600 
L 3175 2000 
L 5025 2000 
L 5025 2600 
L 3175 2600 
z
" transform="scale(0.015625)"/>
       <path id="SimSun-578b" d="M 2575 1675 
Q 2600 2250 2600 2600 
L 2600 3400 
L 1875 3400 
Q 1825 2075 500 1350 
L 450 1425 
Q 1475 2200 1550 3400 
L 1300 3400 
Q 975 3400 700 3325 
L 475 3550 
L 1550 3550 
L 1550 4600 
L 1225 4600 
L 925 4550 
L 725 4750 
L 3000 4750 
L 3300 5050 
L 3750 4600 
L 2925 4600 
L 2925 3550 
L 3200 3550 
L 3525 3875 
L 4000 3400 
L 2925 3400 
L 2925 2600 
Q 2925 2100 2950 1875 
L 2575 1675 
z
M 1875 4600 
L 1875 3550 
L 2600 3550 
L 2600 4600 
L 1875 4600 
z
M 4175 2525 
Q 4200 3100 4200 3650 
Q 4200 4200 4175 4600 
L 4700 4400 
L 4525 4225 
L 4525 2650 
L 4175 2525 
z
M 5200 5225 
L 5725 4975 
L 5550 4800 
L 5550 2225 
Q 5600 1750 5025 1525 
Q 5000 1825 4250 2000 
L 4250 2125 
Q 4900 2050 5062 2062 
Q 5225 2075 5225 2375 
L 5225 4450 
Q 5225 4775 5200 5225 
z
M 3025 1025 
Q 3025 1400 3000 1850 
L 3600 1600 
L 3375 1425 
L 3375 1025 
L 4550 1025 
L 4900 1375 
L 5400 875 
L 3375 875 
L 3375 -150 
L 5025 -150 
L 5425 250 
L 5975 -300 
L 1275 -300 
Q 950 -300 675 -375 
L 450 -150 
L 3025 -150 
L 3025 875 
L 2000 875 
Q 1675 875 1400 800 
L 1175 1025 
L 3025 1025 
z
" transform="scale(0.015625)"/>
       <path id="SimSun-7535" d="M 2875 3900 
Q 2875 4625 2850 5225 
L 3425 4950 
L 3225 4775 
L 3225 3900 
L 4750 3900 
L 5000 4150 
L 5350 3800 
L 5125 3625 
Q 5125 1625 5150 1125 
L 4775 950 
L 4775 1250 
L 3225 1250 
L 3225 125 
Q 3225 -150 3525 -150 
L 5250 -150 
Q 5475 -125 5500 112 
Q 5525 350 5550 1075 
L 5675 1075 
Q 5675 450 5762 250 
Q 5850 50 6025 -75 
Q 5925 -275 5775 -362 
Q 5625 -450 5350 -450 
L 3400 -450 
Q 2875 -450 2875 50 
L 2875 1250 
L 1375 1250 
L 1375 900 
L 1000 725 
Q 1025 1575 1025 2475 
Q 1025 3375 1000 4125 
L 1400 3900 
L 2875 3900 
z
M 1375 3750 
L 1375 2675 
L 2875 2675 
L 2875 3750 
L 1375 3750 
z
M 3225 3750 
L 3225 2675 
L 4775 2675 
L 4775 3750 
L 3225 3750 
z
M 1375 2525 
L 1375 1400 
L 2875 1400 
L 2875 2525 
L 1375 2525 
z
M 3225 2525 
L 3225 1400 
L 4775 1400 
L 4775 2525 
L 3225 2525 
z
" transform="scale(0.015625)"/>
       <path id="SimSun-79bb" d="M 2625 5200 
L 2650 5275 
Q 3225 5150 3375 5012 
Q 3525 4875 3525 4775 
Q 3525 4650 3375 4475 
L 5200 4475 
L 5550 4800 
L 6025 4325 
L 1175 4325 
Q 850 4325 575 4250 
L 350 4475 
L 3200 4475 
Q 3125 4700 3000 4862 
Q 2875 5025 2625 5200 
z
M 2200 725 
L 4025 750 
Q 3775 1075 3475 1300 
L 3525 1375 
Q 4275 1050 4425 875 
Q 4575 700 4575 550 
Q 4575 450 4525 325 
Q 4475 200 4425 200 
Q 4375 200 4350 275 
Q 4250 425 4125 625 
Q 3000 550 2600 487 
Q 2200 425 2000 275 
L 1750 775 
Q 1950 775 2187 987 
Q 2425 1200 2725 1675 
L 1225 1675 
Q 1225 -200 1250 -475 
L 875 -625 
Q 900 200 900 737 
Q 900 1275 875 2050 
L 1225 1825 
L 2800 1825 
Q 3000 2150 3100 2400 
L 1775 2400 
L 1625 2200 
L 1275 2475 
L 1425 2625 
Q 1425 3250 1400 4125 
L 1950 3900 
L 1750 3700 
L 1750 2550 
L 4600 2550 
Q 4600 3100 4575 4100 
L 5150 3850 
L 4925 3675 
Q 4950 2500 4950 2275 
L 4600 2125 
L 4600 2400 
L 3175 2400 
L 3575 2175 
Q 3275 2000 3150 1825 
L 5125 1825 
L 5300 2075 
L 5700 1750 
L 5500 1600 
L 5500 125 
Q 5550 -425 4950 -600 
Q 4950 -275 4175 -100 
L 4175 0 
Q 4900 -50 5037 -50 
Q 5175 -50 5175 75 
L 5175 1675 
L 3075 1675 
Q 2625 1100 2200 725 
z
M 3275 3650 
Q 3625 3925 3825 4200 
L 4150 3850 
Q 3925 3800 3500 3525 
Q 4025 3300 4125 3175 
Q 4225 3050 4225 2900 
Q 4225 2825 4187 2725 
Q 4150 2625 4125 2625 
Q 4050 2625 3950 2800 
Q 3750 3050 3300 3325 
Q 2675 2950 1975 2700 
L 1950 2775 
Q 2600 3100 3100 3475 
Q 2725 3700 2150 3975 
L 2175 4050 
Q 2750 3875 3275 3650 
z
" transform="scale(0.015625)"/>
       <path id="SimSun-5c42" d="M 2075 2775 
L 4775 2775 
L 5075 3075 
L 5525 2625 
L 2900 2625 
Q 2525 2625 2300 2550 
L 2075 2775 
z
M 4350 850 
Q 4825 575 5162 300 
Q 5500 25 5525 -175 
Q 5550 -375 5450 -487 
Q 5350 -600 5325 -600 
Q 5250 -600 5225 -525 
Q 5125 -350 4975 -75 
Q 3800 -175 3087 -275 
Q 2375 -375 2150 -525 
L 1900 -50 
Q 2225 -25 2700 575 
Q 3175 1175 3350 1625 
L 2400 1625 
Q 2075 1625 1800 1550 
L 1575 1775 
L 5225 1775 
L 5550 2100 
L 6025 1625 
L 3425 1625 
L 3900 1300 
Q 3675 1225 3275 825 
Q 2875 400 2350 -50 
L 4925 25 
Q 4700 375 4275 775 
L 4350 850 
z
M 1550 4675 
L 1550 3825 
L 5050 3825 
L 5050 4675 
L 1550 4675 
z
M 250 -575 
Q 725 150 925 925 
Q 1125 1700 1150 2462 
Q 1175 3225 1175 3862 
Q 1175 4500 1150 5025 
L 1550 4825 
L 5025 4825 
L 5275 5075 
L 5625 4725 
L 5425 4575 
Q 5425 4300 5425 4012 
Q 5425 3725 5450 3525 
L 5050 3375 
L 5050 3675 
L 1550 3675 
Q 1550 2925 1475 2150 
Q 1400 1375 1162 700 
Q 925 25 325 -650 
L 250 -575 
z
" transform="scale(0.015625)"/>
      </defs>
      <use xlink:href="#SimSun-5e7f"/>
      <use xlink:href="#SimSun-64ad" transform="translate(100 0)"/>
      <use xlink:href="#SimSun-6a21" transform="translate(200 0)"/>
      <use xlink:href="#SimSun-578b" transform="translate(300 0)"/>
      <use xlink:href="#SimSun-7535" transform="translate(400 0)"/>
      <use xlink:href="#SimSun-79bb" transform="translate(500 0)"/>
      <use xlink:href="#SimSun-5c42" transform="translate(600 0)"/>
      <use xlink:href="#SimSun-5ef6" transform="translate(700 0)"/>
      <use xlink:href="#SimSun-8fdf" transform="translate(800 0)"/>
     </g>
    </g>
    <g id="line2d_79">
     <path d="M 108.19952 31.326562 
L 118.19952 31.326562 
L 128.19952 31.326562 
" style="fill: none; stroke-dasharray: 6.66,2.88; stroke-dashoffset: 0; stroke: #00b945; stroke-width: 1.8"/>
    </g>
    <g id="text_10">
     <!-- 双频平滑电离层延迟 -->
     <g transform="translate(136.19952 34.826562) scale(0.1 -0.1)">
      <defs>
       <path id="SimSun-53cc" d="M 500 4375 
L 2625 4375 
L 2800 4625 
L 3225 4300 
L 3000 4125 
Q 2650 2850 2300 2100 
Q 2725 1600 2875 1312 
Q 3025 1025 3025 825 
Q 3025 675 2962 537 
Q 2900 400 2875 400 
Q 2800 400 2700 700 
Q 2525 1150 2100 1800 
Q 1375 650 300 -50 
L 250 25 
Q 1325 1000 1875 2050 
Q 1550 2600 825 3500 
L 900 3550 
Q 1500 2975 2050 2350 
Q 2450 3325 2650 4225 
L 1325 4225 
Q 1000 4225 725 4150 
L 500 4375 
z
M 3200 4400 
L 5125 4400 
L 5325 4675 
L 5725 4350 
L 5500 4175 
Q 5200 2275 4675 1275 
Q 5275 325 6025 75 
L 6025 -25 
Q 5600 -75 5500 -300 
Q 4875 275 4450 1000 
Q 3650 50 2425 -475 
L 2375 -400 
Q 3725 450 4275 1325 
Q 3725 2650 3625 4250 
L 3425 4175 
L 3200 4400 
z
M 3750 4250 
Q 3925 2700 4475 1625 
Q 4875 2525 5150 4250 
L 3750 4250 
z
" transform="scale(0.015625)"/>
       <path id="SimSun-9891" d="M 2800 2050 
L 3225 1675 
L 3000 1550 
Q 2400 625 1862 200 
Q 1325 -225 400 -575 
L 375 -500 
Q 1475 100 2000 712 
Q 2525 1325 2800 2050 
z
M 1800 2950 
L 1800 4375 
Q 1800 4700 1775 5250 
L 2300 5025 
L 2100 4850 
L 2100 4075 
L 2500 4075 
L 2775 4350 
L 3150 3925 
L 2100 3925 
L 2100 2950 
L 2575 2950 
L 2875 3225 
L 3275 2800 
L 1800 2800 
L 2250 2550 
L 2075 2425 
L 2075 1150 
L 1750 950 
L 1750 2800 
L 1150 2800 
Q 825 2800 550 2725 
L 325 2950 
L 1000 2950 
L 1000 3900 
Q 1000 4200 975 4500 
L 1500 4275 
L 1300 4100 
L 1300 2950 
L 1800 2950 
z
M 1100 2325 
L 1550 2025 
Q 1375 1975 1100 1500 
Q 800 1000 325 575 
L 275 650 
Q 825 1400 1100 2325 
z
M 3375 800 
Q 3400 1450 3400 2312 
Q 3400 3175 3375 3925 
L 3725 3725 
L 4200 3725 
Q 4300 4425 4325 4700 
L 3775 4700 
Q 3450 4700 3175 4625 
L 2950 4850 
L 5400 4850 
L 5725 5150 
L 6150 4700 
L 4800 4700 
Q 4625 4500 4325 3725 
L 5425 3725 
L 5625 3950 
L 6000 3650 
L 5800 3500 
L 5800 1975 
Q 5800 1550 5825 1100 
L 5475 900 
L 5475 3575 
L 3725 3575 
L 3725 1025 
L 3375 800 
z
M 5000 2875 
L 4775 2700 
Q 4775 1500 4612 987 
Q 4450 475 3987 100 
Q 3525 -275 2575 -575 
L 2550 -500 
Q 3550 -50 3937 400 
Q 4325 850 4387 1587 
Q 4450 2325 4425 3150 
L 5000 2875 
z
M 4725 875 
Q 5700 425 5862 250 
Q 6025 75 6025 -100 
Q 6025 -225 5975 -362 
Q 5925 -500 5875 -500 
Q 5825 -500 5775 -400 
Q 5650 -175 5437 87 
Q 5225 350 4675 800 
L 4725 875 
z
" transform="scale(0.015625)"/>
       <path id="SimSun-5e73" d="M 3375 750 
Q 3375 200 3400 -350 
L 2975 -525 
Q 3000 250 3000 875 
L 3000 2325 
L 1050 2325 
Q 725 2325 450 2250 
L 225 2475 
L 3000 2475 
L 3000 4575 
L 1600 4575 
Q 1275 4575 1000 4500 
L 775 4725 
L 4850 4725 
L 5200 5075 
L 5700 4575 
L 3375 4575 
L 3375 2475 
L 5200 2475 
L 5575 2850 
L 6100 2325 
L 3375 2325 
L 3375 750 
z
M 4750 4325 
L 5275 3925 
Q 5075 3925 4725 3475 
Q 4350 3025 3925 2625 
L 3850 2675 
Q 4500 3550 4750 4325 
z
M 1300 4200 
Q 2025 3675 2150 3487 
Q 2275 3300 2275 3150 
Q 2275 3075 2237 2962 
Q 2200 2850 2062 2750 
Q 1925 2650 1800 3100 
Q 1675 3525 1225 4150 
L 1300 4200 
z
" transform="scale(0.015625)"/>
       <path id="SimSun-6ed1" d="M 2675 3225 
Q 2675 4575 2650 5025 
L 3025 4800 
L 4700 4800 
L 4925 5025 
L 5275 4675 
L 5050 4525 
L 5050 3225 
L 5450 3225 
L 5675 3475 
L 6075 3075 
Q 5850 3025 5687 2887 
Q 5525 2750 5350 2525 
L 5275 2550 
L 5500 3075 
L 2275 3075 
Q 2275 2825 2225 2662 
Q 2175 2500 2012 2462 
Q 1850 2425 1775 2537 
Q 1700 2650 1900 2825 
Q 2075 2975 2200 3500 
L 2275 3500 
L 2275 3225 
L 2675 3225 
z
M 3000 2375 
L 3000 1750 
L 4725 1750 
L 4725 2375 
L 3000 2375 
z
M 3000 1600 
L 3000 950 
L 4725 950 
L 4725 1600 
L 3000 1600 
z
M 2650 -575 
Q 2675 150 2675 1025 
Q 2675 1900 2650 2725 
L 3000 2525 
L 4700 2525 
L 4925 2750 
L 5275 2400 
L 5050 2250 
L 5050 50 
Q 5050 -225 4937 -362 
Q 4825 -500 4575 -600 
Q 4425 -275 3850 -125 
L 3850 -25 
Q 4500 -100 4612 -75 
Q 4725 -50 4725 125 
L 4725 800 
L 3000 800 
L 3000 -400 
L 2650 -575 
z
M 3000 4650 
L 3000 4075 
L 3750 4075 
L 3975 4300 
L 4275 4000 
L 4075 3875 
L 4075 3225 
L 4725 3225 
L 4725 4650 
L 3000 4650 
z
M 3000 3925 
L 3000 3225 
L 3775 3225 
L 3775 3925 
L 3000 3925 
z
M 1925 3975 
Q 1375 1475 1300 1175 
Q 1200 850 1225 400 
Q 1225 -50 1225 -187 
Q 1225 -325 1100 -325 
Q 1000 -325 862 -275 
Q 725 -225 725 -50 
Q 725 75 800 325 
Q 875 575 875 725 
Q 875 900 762 1000 
Q 650 1100 275 1200 
L 275 1300 
Q 725 1250 837 1262 
Q 950 1275 1087 1487 
Q 1225 1700 1825 4000 
L 1925 3975 
z
M 300 3775 
Q 1075 3375 1087 3100 
Q 1100 2825 962 2725 
Q 825 2625 725 2975 
Q 600 3325 250 3700 
L 300 3775 
z
M 875 5100 
Q 1575 4750 1637 4575 
Q 1700 4400 1700 4325 
Q 1700 4200 1612 4100 
Q 1525 4000 1475 4000 
Q 1400 4000 1325 4250 
Q 1200 4575 825 5025 
L 875 5100 
z
" transform="scale(0.015625)"/>
      </defs>
      <use xlink:href="#SimSun-53cc"/>
      <use xlink:href="#SimSun-9891" transform="translate(100 0)"/>
      <use xlink:href="#SimSun-5e73" transform="translate(200 0)"/>
      <use xlink:href="#SimSun-6ed1" transform="translate(300 0)"/>
      <use xlink:href="#SimSun-7535" transform="translate(400 0)"/>
      <use xlink:href="#SimSun-79bb" transform="translate(500 0)"/>
      <use xlink:href="#SimSun-5c42" transform="translate(600 0)"/>
      <use xlink:href="#SimSun-5ef6" transform="translate(700 0)"/>
      <use xlink:href="#SimSun-8fdf" transform="translate(800 0)"/>
     </g>
    </g>
   </g>
  </g>
 </g>
 <defs>
  <clipPath id="p68c75cb4f7">
   <rect x="29.810938" y="3.6" width="205.388582" height="148.354208"/>
  </clipPath>
 </defs>
</svg>
