<?xml version="1.0" encoding="utf-8" standalone="no"?>
<!DOCTYPE svg PUBLIC "-//W3C//DTD SVG 1.1//EN"
  "http://www.w3.org/Graphics/SVG/1.1/DTD/svg11.dtd">
<svg xmlns:xlink="http://www.w3.org/1999/xlink" width="238.79952pt" height="181.19952pt" viewBox="0 0 238.79952 181.19952" xmlns="http://www.w3.org/2000/svg" version="1.1">
 <metadata>
  <rdf:RDF xmlns:dc="http://purl.org/dc/elements/1.1/" xmlns:cc="http://creativecommons.org/ns#" xmlns:rdf="http://www.w3.org/1999/02/22-rdf-syntax-ns#">
   <cc:Work>
    <dc:type rdf:resource="http://purl.org/dc/dcmitype/StillImage"/>
    <dc:date>2026-04-22T23:17:50.538027</dc:date>
    <dc:format>image/svg+xml</dc:format>
    <dc:creator>
     <cc:Agent>
      <dc:title>Matplotlib v3.10.0, https://matplotlib.org/</dc:title>
     </cc:Agent>
    </dc:creator>
   </cc:Work>
  </rdf:RDF>
 </metadata>
 <defs>
  <style type="text/css">*{stroke-linejoin: round; stroke-linecap: butt}</style>
 </defs>
 <g id="figure_1">
  <g id="patch_1">
   <path d="M 0 181.19952 
L 238.79952 181.19952 
L 238.79952 0 
L 0 0 
z
" style="fill: #ffffff"/>
  </g>
  <g id="axes_1">
   <g id="patch_2">
    <path d="M 29.810938 151.954207 
L 235.19952 151.954207 
L 235.19952 3.6 
L 29.810938 3.6 
z
" style="fill: #ffffff"/>
   </g>
   <g id="matplotlib.axis_1">
    <g id="xtick_1">
     <g id="line2d_1">
      <path d="M 29.810937 151.954207 
L 29.810937 3.6 
" clip-path="url(#p0e69287415)" style="fill: none; stroke-dasharray: 2.59,1.12; stroke-dashoffset: 0; stroke: #d7d7d7; stroke-opacity: 0.7; stroke-width: 0.7"/>
     </g>
     <g id="line2d_2">
      <defs>
       <path id="mec06fa2cd4" d="M 0 0 
L 0 -3 
" style="stroke: #000000; stroke-width: 0.5"/>
      </defs>
      <g>
       <use xlink:href="#mec06fa2cd4" x="29.810937" y="151.954207" style="stroke: #000000; stroke-width: 0.5"/>
      </g>
     </g>
     <g id="line2d_3">
      <defs>
       <path id="mf1acea5042" d="M 0 0 
L 0 3 
" style="stroke: #000000; stroke-width: 0.5"/>
      </defs>
      <g>
       <use xlink:href="#mf1acea5042" x="29.810937" y="3.6" style="stroke: #000000; stroke-width: 0.5"/>
      </g>
     </g>
     <g id="text_1">
      <!-- 0 -->
      <g transform="translate(27.310937 162.397958) scale(0.1 -0.1)">
       <defs>
        <path id="TimesNewRomanPSMT-30" d="M 231 2094 
Q 231 2819 450 3342 
Q 669 3866 1031 4122 
Q 1313 4325 1613 4325 
Q 2100 4325 2488 3828 
Q 2972 3213 2972 2159 
Q 2972 1422 2759 906 
Q 2547 391 2217 158 
Q 1888 -75 1581 -75 
Q 975 -75 572 641 
Q 231 1244 231 2094 
z
M 844 2016 
Q 844 1141 1059 588 
Q 1238 122 1591 122 
Q 1759 122 1940 273 
Q 2122 425 2216 781 
Q 2359 1319 2359 2297 
Q 2359 3022 2209 3506 
Q 2097 3866 1919 4016 
Q 1791 4119 1609 4119 
Q 1397 4119 1231 3928 
Q 1006 3669 925 3112 
Q 844 2556 844 2016 
z
" transform="scale(0.015625)"/>
       </defs>
       <use xlink:href="#TimesNewRomanPSMT-30"/>
      </g>
     </g>
    </g>
    <g id="xtick_2">
     <g id="line2d_4">
      <path d="M 55.502352 151.954207 
L 55.502352 3.6 
" clip-path="url(#p0e69287415)" style="fill: none; stroke-dasharray: 2.59,1.12; stroke-dashoffset: 0; stroke: #d7d7d7; stroke-opacity: 0.7; stroke-width: 0.7"/>
     </g>
     <g id="line2d_5">
      <g>
       <use xlink:href="#mec06fa2cd4" x="55.502352" y="151.954207" style="stroke: #000000; stroke-width: 0.5"/>
      </g>
     </g>
     <g id="line2d_6">
      <g>
       <use xlink:href="#mf1acea5042" x="55.502352" y="3.6" style="stroke: #000000; stroke-width: 0.5"/>
      </g>
     </g>
     <g id="text_2">
      <!-- 3 -->
      <g transform="translate(53.002352 162.397958) scale(0.1 -0.1)">
       <defs>
        <path id="TimesNewRomanPSMT-33" d="M 325 3431 
Q 506 3859 782 4092 
Q 1059 4325 1472 4325 
Q 1981 4325 2253 3994 
Q 2459 3747 2459 3466 
Q 2459 3003 1878 2509 
Q 2269 2356 2469 2072 
Q 2669 1788 2669 1403 
Q 2669 853 2319 450 
Q 1863 -75 997 -75 
Q 569 -75 414 31 
Q 259 138 259 259 
Q 259 350 332 419 
Q 406 488 509 488 
Q 588 488 669 463 
Q 722 447 909 348 
Q 1097 250 1169 231 
Q 1284 197 1416 197 
Q 1734 197 1970 444 
Q 2206 691 2206 1028 
Q 2206 1275 2097 1509 
Q 2016 1684 1919 1775 
Q 1784 1900 1550 2001 
Q 1316 2103 1072 2103 
L 972 2103 
L 972 2197 
Q 1219 2228 1467 2375 
Q 1716 2522 1828 2728 
Q 1941 2934 1941 3181 
Q 1941 3503 1739 3701 
Q 1538 3900 1238 3900 
Q 753 3900 428 3381 
L 325 3431 
z
" transform="scale(0.015625)"/>
       </defs>
       <use xlink:href="#TimesNewRomanPSMT-33"/>
      </g>
     </g>
    </g>
    <g id="xtick_3">
     <g id="line2d_7">
      <path d="M 81.193766 151.954207 
L 81.193766 3.6 
" clip-path="url(#p0e69287415)" style="fill: none; stroke-dasharray: 2.59,1.12; stroke-dashoffset: 0; stroke: #d7d7d7; stroke-opacity: 0.7; stroke-width: 0.7"/>
     </g>
     <g id="line2d_8">
      <g>
       <use xlink:href="#mec06fa2cd4" x="81.193766" y="151.954207" style="stroke: #000000; stroke-width: 0.5"/>
      </g>
     </g>
     <g id="line2d_9">
      <g>
       <use xlink:href="#mf1acea5042" x="81.193766" y="3.6" style="stroke: #000000; stroke-width: 0.5"/>
      </g>
     </g>
     <g id="text_3">
      <!-- 6 -->
      <g transform="translate(78.693766 162.397958) scale(0.1 -0.1)">
       <defs>
        <path id="TimesNewRomanPSMT-36" d="M 2869 4325 
L 2869 4209 
Q 2456 4169 2195 4045 
Q 1934 3922 1679 3669 
Q 1425 3416 1258 3105 
Q 1091 2794 978 2366 
Q 1428 2675 1881 2675 
Q 2316 2675 2634 2325 
Q 2953 1975 2953 1425 
Q 2953 894 2631 456 
Q 2244 -75 1606 -75 
Q 1172 -75 869 213 
Q 275 772 275 1663 
Q 275 2231 503 2743 
Q 731 3256 1154 3653 
Q 1578 4050 1965 4187 
Q 2353 4325 2688 4325 
L 2869 4325 
z
M 925 2138 
Q 869 1716 869 1456 
Q 869 1156 980 804 
Q 1091 453 1309 247 
Q 1469 100 1697 100 
Q 1969 100 2183 356 
Q 2397 613 2397 1088 
Q 2397 1622 2184 2012 
Q 1972 2403 1581 2403 
Q 1463 2403 1327 2353 
Q 1191 2303 925 2138 
z
" transform="scale(0.015625)"/>
       </defs>
       <use xlink:href="#TimesNewRomanPSMT-36"/>
      </g>
     </g>
    </g>
    <g id="xtick_4">
     <g id="line2d_10">
      <path d="M 106.88518 151.954207 
L 106.88518 3.6 
" clip-path="url(#p0e69287415)" style="fill: none; stroke-dasharray: 2.59,1.12; stroke-dashoffset: 0; stroke: #d7d7d7; stroke-opacity: 0.7; stroke-width: 0.7"/>
     </g>
     <g id="line2d_11">
      <g>
       <use xlink:href="#mec06fa2cd4" x="106.88518" y="151.954207" style="stroke: #000000; stroke-width: 0.5"/>
      </g>
     </g>
     <g id="line2d_12">
      <g>
       <use xlink:href="#mf1acea5042" x="106.88518" y="3.6" style="stroke: #000000; stroke-width: 0.5"/>
      </g>
     </g>
     <g id="text_4">
      <!-- 9 -->
      <g transform="translate(104.38518 162.397958) scale(0.1 -0.1)">
       <defs>
        <path id="TimesNewRomanPSMT-39" d="M 338 -88 
L 338 28 
Q 744 34 1094 217 
Q 1444 400 1770 856 
Q 2097 1313 2225 1859 
Q 1734 1544 1338 1544 
Q 891 1544 572 1889 
Q 253 2234 253 2806 
Q 253 3363 572 3797 
Q 956 4325 1575 4325 
Q 2097 4325 2469 3894 
Q 2925 3359 2925 2575 
Q 2925 1869 2578 1258 
Q 2231 647 1613 244 
Q 1109 -88 516 -88 
L 338 -88 
z
M 2275 2091 
Q 2331 2497 2331 2741 
Q 2331 3044 2228 3395 
Q 2125 3747 1936 3934 
Q 1747 4122 1506 4122 
Q 1228 4122 1018 3872 
Q 809 3622 809 3128 
Q 809 2469 1088 2097 
Q 1291 1828 1588 1828 
Q 1731 1828 1928 1897 
Q 2125 1966 2275 2091 
z
" transform="scale(0.015625)"/>
       </defs>
       <use xlink:href="#TimesNewRomanPSMT-39"/>
      </g>
     </g>
    </g>
    <g id="xtick_5">
     <g id="line2d_13">
      <path d="M 132.576594 151.954207 
L 132.576594 3.6 
" clip-path="url(#p0e69287415)" style="fill: none; stroke-dasharray: 2.59,1.12; stroke-dashoffset: 0; stroke: #d7d7d7; stroke-opacity: 0.7; stroke-width: 0.7"/>
     </g>
     <g id="line2d_14">
      <g>
       <use xlink:href="#mec06fa2cd4" x="132.576594" y="151.954207" style="stroke: #000000; stroke-width: 0.5"/>
      </g>
     </g>
     <g id="line2d_15">
      <g>
       <use xlink:href="#mf1acea5042" x="132.576594" y="3.6" style="stroke: #000000; stroke-width: 0.5"/>
      </g>
     </g>
     <g id="text_5">
      <!-- 12 -->
      <g transform="translate(127.576594 162.397958) scale(0.1 -0.1)">
       <defs>
        <path id="TimesNewRomanPSMT-31" d="M 750 3822 
L 1781 4325 
L 1884 4325 
L 1884 747 
Q 1884 391 1914 303 
Q 1944 216 2037 169 
Q 2131 122 2419 116 
L 2419 0 
L 825 0 
L 825 116 
Q 1125 122 1212 167 
Q 1300 213 1334 289 
Q 1369 366 1369 747 
L 1369 3034 
Q 1369 3497 1338 3628 
Q 1316 3728 1258 3775 
Q 1200 3822 1119 3822 
Q 1003 3822 797 3725 
L 750 3822 
z
" transform="scale(0.015625)"/>
        <path id="TimesNewRomanPSMT-32" d="M 2934 816 
L 2638 0 
L 138 0 
L 138 116 
Q 1241 1122 1691 1759 
Q 2141 2397 2141 2925 
Q 2141 3328 1894 3587 
Q 1647 3847 1303 3847 
Q 991 3847 742 3664 
Q 494 3481 375 3128 
L 259 3128 
Q 338 3706 661 4015 
Q 984 4325 1469 4325 
Q 1984 4325 2329 3994 
Q 2675 3663 2675 3213 
Q 2675 2891 2525 2569 
Q 2294 2063 1775 1497 
Q 997 647 803 472 
L 1909 472 
Q 2247 472 2383 497 
Q 2519 522 2628 598 
Q 2738 675 2819 816 
L 2934 816 
z
" transform="scale(0.015625)"/>
       </defs>
       <use xlink:href="#TimesNewRomanPSMT-31"/>
       <use xlink:href="#TimesNewRomanPSMT-32" transform="translate(50 0)"/>
      </g>
     </g>
    </g>
    <g id="xtick_6">
     <g id="line2d_16">
      <path d="M 158.268008 151.954207 
L 158.268008 3.6 
" clip-path="url(#p0e69287415)" style="fill: none; stroke-dasharray: 2.59,1.12; stroke-dashoffset: 0; stroke: #d7d7d7; stroke-opacity: 0.7; stroke-width: 0.7"/>
     </g>
     <g id="line2d_17">
      <g>
       <use xlink:href="#mec06fa2cd4" x="158.268008" y="151.954207" style="stroke: #000000; stroke-width: 0.5"/>
      </g>
     </g>
     <g id="line2d_18">
      <g>
       <use xlink:href="#mf1acea5042" x="158.268008" y="3.6" style="stroke: #000000; stroke-width: 0.5"/>
      </g>
     </g>
     <g id="text_6">
      <!-- 15 -->
      <g transform="translate(153.268008 162.397958) scale(0.1 -0.1)">
       <defs>
        <path id="TimesNewRomanPSMT-35" d="M 2778 4238 
L 2534 3706 
L 1259 3706 
L 981 3138 
Q 1809 3016 2294 2522 
Q 2709 2097 2709 1522 
Q 2709 1188 2573 903 
Q 2438 619 2231 419 
Q 2025 219 1772 97 
Q 1413 -75 1034 -75 
Q 653 -75 479 54 
Q 306 184 306 341 
Q 306 428 378 495 
Q 450 563 559 563 
Q 641 563 702 538 
Q 763 513 909 409 
Q 1144 247 1384 247 
Q 1750 247 2026 523 
Q 2303 800 2303 1197 
Q 2303 1581 2056 1914 
Q 1809 2247 1375 2428 
Q 1034 2569 447 2591 
L 1259 4238 
L 2778 4238 
z
" transform="scale(0.015625)"/>
       </defs>
       <use xlink:href="#TimesNewRomanPSMT-31"/>
       <use xlink:href="#TimesNewRomanPSMT-35" transform="translate(50 0)"/>
      </g>
     </g>
    </g>
    <g id="xtick_7">
     <g id="line2d_19">
      <path d="M 183.959422 151.954207 
L 183.959422 3.6 
" clip-path="url(#p0e69287415)" style="fill: none; stroke-dasharray: 2.59,1.12; stroke-dashoffset: 0; stroke: #d7d7d7; stroke-opacity: 0.7; stroke-width: 0.7"/>
     </g>
     <g id="line2d_20">
      <g>
       <use xlink:href="#mec06fa2cd4" x="183.959422" y="151.954207" style="stroke: #000000; stroke-width: 0.5"/>
      </g>
     </g>
     <g id="line2d_21">
      <g>
       <use xlink:href="#mf1acea5042" x="183.959422" y="3.6" style="stroke: #000000; stroke-width: 0.5"/>
      </g>
     </g>
     <g id="text_7">
      <!-- 18 -->
      <g transform="translate(178.959422 162.397958) scale(0.1 -0.1)">
       <defs>
        <path id="TimesNewRomanPSMT-38" d="M 1228 2134 
Q 725 2547 579 2797 
Q 434 3047 434 3316 
Q 434 3728 753 4026 
Q 1072 4325 1600 4325 
Q 2113 4325 2425 4047 
Q 2738 3769 2738 3413 
Q 2738 3175 2569 2928 
Q 2400 2681 1866 2347 
Q 2416 1922 2594 1678 
Q 2831 1359 2831 1006 
Q 2831 559 2490 242 
Q 2150 -75 1597 -75 
Q 994 -75 656 303 
Q 388 606 388 966 
Q 388 1247 577 1523 
Q 766 1800 1228 2134 
z
M 1719 2469 
Q 2094 2806 2194 3001 
Q 2294 3197 2294 3444 
Q 2294 3772 2109 3958 
Q 1925 4144 1606 4144 
Q 1288 4144 1088 3959 
Q 888 3775 888 3528 
Q 888 3366 970 3203 
Q 1053 3041 1206 2894 
L 1719 2469 
z
M 1375 2016 
Q 1116 1797 991 1539 
Q 866 1281 866 981 
Q 866 578 1086 336 
Q 1306 94 1647 94 
Q 1984 94 2187 284 
Q 2391 475 2391 747 
Q 2391 972 2272 1150 
Q 2050 1481 1375 2016 
z
" transform="scale(0.015625)"/>
       </defs>
       <use xlink:href="#TimesNewRomanPSMT-31"/>
       <use xlink:href="#TimesNewRomanPSMT-38" transform="translate(50 0)"/>
      </g>
     </g>
    </g>
    <g id="xtick_8">
     <g id="line2d_22">
      <path d="M 209.650836 151.954207 
L 209.650836 3.6 
" clip-path="url(#p0e69287415)" style="fill: none; stroke-dasharray: 2.59,1.12; stroke-dashoffset: 0; stroke: #d7d7d7; stroke-opacity: 0.7; stroke-width: 0.7"/>
     </g>
     <g id="line2d_23">
      <g>
       <use xlink:href="#mec06fa2cd4" x="209.650836" y="151.954207" style="stroke: #000000; stroke-width: 0.5"/>
      </g>
     </g>
     <g id="line2d_24">
      <g>
       <use xlink:href="#mf1acea5042" x="209.650836" y="3.6" style="stroke: #000000; stroke-width: 0.5"/>
      </g>
     </g>
     <g id="text_8">
      <!-- 21 -->
      <g transform="translate(204.650836 162.397958) scale(0.1 -0.1)">
       <use xlink:href="#TimesNewRomanPSMT-32"/>
       <use xlink:href="#TimesNewRomanPSMT-31" transform="translate(50 0)"/>
      </g>
     </g>
    </g>
    <g id="xtick_9">
     <g id="line2d_25">
      <path d="M 36.233791 151.954207 
L 36.233791 3.6 
" clip-path="url(#p0e69287415)" style="fill: none; stroke-dasharray: 1.295,0.56; stroke-dashoffset: 0; stroke: #d7d7d7; stroke-opacity: 0.28; stroke-width: 0.35"/>
     </g>
     <g id="line2d_26">
      <defs>
       <path id="m8ae3e0712d" d="M 0 0 
L 0 -1.5 
" style="stroke: #000000; stroke-width: 0.5"/>
      </defs>
      <g>
       <use xlink:href="#m8ae3e0712d" x="36.233791" y="151.954207" style="stroke: #000000; stroke-width: 0.5"/>
      </g>
     </g>
     <g id="line2d_27">
      <defs>
       <path id="m6942c5b105" d="M 0 0 
L 0 1.5 
" style="stroke: #000000; stroke-width: 0.5"/>
      </defs>
      <g>
       <use xlink:href="#m6942c5b105" x="36.233791" y="3.6" style="stroke: #000000; stroke-width: 0.5"/>
      </g>
     </g>
    </g>
    <g id="xtick_10">
     <g id="line2d_28">
      <path d="M 42.656645 151.954207 
L 42.656645 3.6 
" clip-path="url(#p0e69287415)" style="fill: none; stroke-dasharray: 1.295,0.56; stroke-dashoffset: 0; stroke: #d7d7d7; stroke-opacity: 0.28; stroke-width: 0.35"/>
     </g>
     <g id="line2d_29">
      <g>
       <use xlink:href="#m8ae3e0712d" x="42.656645" y="151.954207" style="stroke: #000000; stroke-width: 0.5"/>
      </g>
     </g>
     <g id="line2d_30">
      <g>
       <use xlink:href="#m6942c5b105" x="42.656645" y="3.6" style="stroke: #000000; stroke-width: 0.5"/>
      </g>
     </g>
    </g>
    <g id="xtick_11">
     <g id="line2d_31">
      <path d="M 49.079498 151.954207 
L 49.079498 3.6 
" clip-path="url(#p0e69287415)" style="fill: none; stroke-dasharray: 1.295,0.56; stroke-dashoffset: 0; stroke: #d7d7d7; stroke-opacity: 0.28; stroke-width: 0.35"/>
     </g>
     <g id="line2d_32">
      <g>
       <use xlink:href="#m8ae3e0712d" x="49.079498" y="151.954207" style="stroke: #000000; stroke-width: 0.5"/>
      </g>
     </g>
     <g id="line2d_33">
      <g>
       <use xlink:href="#m6942c5b105" x="49.079498" y="3.6" style="stroke: #000000; stroke-width: 0.5"/>
      </g>
     </g>
    </g>
    <g id="xtick_12">
     <g id="line2d_34">
      <path d="M 61.925205 151.954207 
L 61.925205 3.6 
" clip-path="url(#p0e69287415)" style="fill: none; stroke-dasharray: 1.295,0.56; stroke-dashoffset: 0; stroke: #d7d7d7; stroke-opacity: 0.28; stroke-width: 0.35"/>
     </g>
     <g id="line2d_35">
      <g>
       <use xlink:href="#m8ae3e0712d" x="61.925205" y="151.954207" style="stroke: #000000; stroke-width: 0.5"/>
      </g>
     </g>
     <g id="line2d_36">
      <g>
       <use xlink:href="#m6942c5b105" x="61.925205" y="3.6" style="stroke: #000000; stroke-width: 0.5"/>
      </g>
     </g>
    </g>
    <g id="xtick_13">
     <g id="line2d_37">
      <path d="M 68.348059 151.954207 
L 68.348059 3.6 
" clip-path="url(#p0e69287415)" style="fill: none; stroke-dasharray: 1.295,0.56; stroke-dashoffset: 0; stroke: #d7d7d7; stroke-opacity: 0.28; stroke-width: 0.35"/>
     </g>
     <g id="line2d_38">
      <g>
       <use xlink:href="#m8ae3e0712d" x="68.348059" y="151.954207" style="stroke: #000000; stroke-width: 0.5"/>
      </g>
     </g>
     <g id="line2d_39">
      <g>
       <use xlink:href="#m6942c5b105" x="68.348059" y="3.6" style="stroke: #000000; stroke-width: 0.5"/>
      </g>
     </g>
    </g>
    <g id="xtick_14">
     <g id="line2d_40">
      <path d="M 74.770912 151.954207 
L 74.770912 3.6 
" clip-path="url(#p0e69287415)" style="fill: none; stroke-dasharray: 1.295,0.56; stroke-dashoffset: 0; stroke: #d7d7d7; stroke-opacity: 0.28; stroke-width: 0.35"/>
     </g>
     <g id="line2d_41">
      <g>
       <use xlink:href="#m8ae3e0712d" x="74.770912" y="151.954207" style="stroke: #000000; stroke-width: 0.5"/>
      </g>
     </g>
     <g id="line2d_42">
      <g>
       <use xlink:href="#m6942c5b105" x="74.770912" y="3.6" style="stroke: #000000; stroke-width: 0.5"/>
      </g>
     </g>
    </g>
    <g id="xtick_15">
     <g id="line2d_43">
      <path d="M 87.616619 151.954207 
L 87.616619 3.6 
" clip-path="url(#p0e69287415)" style="fill: none; stroke-dasharray: 1.295,0.56; stroke-dashoffset: 0; stroke: #d7d7d7; stroke-opacity: 0.28; stroke-width: 0.35"/>
     </g>
     <g id="line2d_44">
      <g>
       <use xlink:href="#m8ae3e0712d" x="87.616619" y="151.954207" style="stroke: #000000; stroke-width: 0.5"/>
      </g>
     </g>
     <g id="line2d_45">
      <g>
       <use xlink:href="#m6942c5b105" x="87.616619" y="3.6" style="stroke: #000000; stroke-width: 0.5"/>
      </g>
     </g>
    </g>
    <g id="xtick_16">
     <g id="line2d_46">
      <path d="M 94.039473 151.954207 
L 94.039473 3.6 
" clip-path="url(#p0e69287415)" style="fill: none; stroke-dasharray: 1.295,0.56; stroke-dashoffset: 0; stroke: #d7d7d7; stroke-opacity: 0.28; stroke-width: 0.35"/>
     </g>
     <g id="line2d_47">
      <g>
       <use xlink:href="#m8ae3e0712d" x="94.039473" y="151.954207" style="stroke: #000000; stroke-width: 0.5"/>
      </g>
     </g>
     <g id="line2d_48">
      <g>
       <use xlink:href="#m6942c5b105" x="94.039473" y="3.6" style="stroke: #000000; stroke-width: 0.5"/>
      </g>
     </g>
    </g>
    <g id="xtick_17">
     <g id="line2d_49">
      <path d="M 100.462326 151.954207 
L 100.462326 3.6 
" clip-path="url(#p0e69287415)" style="fill: none; stroke-dasharray: 1.295,0.56; stroke-dashoffset: 0; stroke: #d7d7d7; stroke-opacity: 0.28; stroke-width: 0.35"/>
     </g>
     <g id="line2d_50">
      <g>
       <use xlink:href="#m8ae3e0712d" x="100.462326" y="151.954207" style="stroke: #000000; stroke-width: 0.5"/>
      </g>
     </g>
     <g id="line2d_51">
      <g>
       <use xlink:href="#m6942c5b105" x="100.462326" y="3.6" style="stroke: #000000; stroke-width: 0.5"/>
      </g>
     </g>
    </g>
    <g id="xtick_18">
     <g id="line2d_52">
      <path d="M 113.308033 151.954207 
L 113.308033 3.6 
" clip-path="url(#p0e69287415)" style="fill: none; stroke-dasharray: 1.295,0.56; stroke-dashoffset: 0; stroke: #d7d7d7; stroke-opacity: 0.28; stroke-width: 0.35"/>
     </g>
     <g id="line2d_53">
      <g>
       <use xlink:href="#m8ae3e0712d" x="113.308033" y="151.954207" style="stroke: #000000; stroke-width: 0.5"/>
      </g>
     </g>
     <g id="line2d_54">
      <g>
       <use xlink:href="#m6942c5b105" x="113.308033" y="3.6" style="stroke: #000000; stroke-width: 0.5"/>
      </g>
     </g>
    </g>
    <g id="xtick_19">
     <g id="line2d_55">
      <path d="M 119.730887 151.954207 
L 119.730887 3.6 
" clip-path="url(#p0e69287415)" style="fill: none; stroke-dasharray: 1.295,0.56; stroke-dashoffset: 0; stroke: #d7d7d7; stroke-opacity: 0.28; stroke-width: 0.35"/>
     </g>
     <g id="line2d_56">
      <g>
       <use xlink:href="#m8ae3e0712d" x="119.730887" y="151.954207" style="stroke: #000000; stroke-width: 0.5"/>
      </g>
     </g>
     <g id="line2d_57">
      <g>
       <use xlink:href="#m6942c5b105" x="119.730887" y="3.6" style="stroke: #000000; stroke-width: 0.5"/>
      </g>
     </g>
    </g>
    <g id="xtick_20">
     <g id="line2d_58">
      <path d="M 126.15374 151.954207 
L 126.15374 3.6 
" clip-path="url(#p0e69287415)" style="fill: none; stroke-dasharray: 1.295,0.56; stroke-dashoffset: 0; stroke: #d7d7d7; stroke-opacity: 0.28; stroke-width: 0.35"/>
     </g>
     <g id="line2d_59">
      <g>
       <use xlink:href="#m8ae3e0712d" x="126.15374" y="151.954207" style="stroke: #000000; stroke-width: 0.5"/>
      </g>
     </g>
     <g id="line2d_60">
      <g>
       <use xlink:href="#m6942c5b105" x="126.15374" y="3.6" style="stroke: #000000; stroke-width: 0.5"/>
      </g>
     </g>
    </g>
    <g id="xtick_21">
     <g id="line2d_61">
      <path d="M 138.999447 151.954207 
L 138.999447 3.6 
" clip-path="url(#p0e69287415)" style="fill: none; stroke-dasharray: 1.295,0.56; stroke-dashoffset: 0; stroke: #d7d7d7; stroke-opacity: 0.28; stroke-width: 0.35"/>
     </g>
     <g id="line2d_62">
      <g>
       <use xlink:href="#m8ae3e0712d" x="138.999447" y="151.954207" style="stroke: #000000; stroke-width: 0.5"/>
      </g>
     </g>
     <g id="line2d_63">
      <g>
       <use xlink:href="#m6942c5b105" x="138.999447" y="3.6" style="stroke: #000000; stroke-width: 0.5"/>
      </g>
     </g>
    </g>
    <g id="xtick_22">
     <g id="line2d_64">
      <path d="M 145.422301 151.954207 
L 145.422301 3.6 
" clip-path="url(#p0e69287415)" style="fill: none; stroke-dasharray: 1.295,0.56; stroke-dashoffset: 0; stroke: #d7d7d7; stroke-opacity: 0.28; stroke-width: 0.35"/>
     </g>
     <g id="line2d_65">
      <g>
       <use xlink:href="#m8ae3e0712d" x="145.422301" y="151.954207" style="stroke: #000000; stroke-width: 0.5"/>
      </g>
     </g>
     <g id="line2d_66">
      <g>
       <use xlink:href="#m6942c5b105" x="145.422301" y="3.6" style="stroke: #000000; stroke-width: 0.5"/>
      </g>
     </g>
    </g>
    <g id="xtick_23">
     <g id="line2d_67">
      <path d="M 151.845154 151.954207 
L 151.845154 3.6 
" clip-path="url(#p0e69287415)" style="fill: none; stroke-dasharray: 1.295,0.56; stroke-dashoffset: 0; stroke: #d7d7d7; stroke-opacity: 0.28; stroke-width: 0.35"/>
     </g>
     <g id="line2d_68">
      <g>
       <use xlink:href="#m8ae3e0712d" x="151.845154" y="151.954207" style="stroke: #000000; stroke-width: 0.5"/>
      </g>
     </g>
     <g id="line2d_69">
      <g>
       <use xlink:href="#m6942c5b105" x="151.845154" y="3.6" style="stroke: #000000; stroke-width: 0.5"/>
      </g>
     </g>
    </g>
    <g id="xtick_24">
     <g id="line2d_70">
      <path d="M 164.690861 151.954207 
L 164.690861 3.6 
" clip-path="url(#p0e69287415)" style="fill: none; stroke-dasharray: 1.295,0.56; stroke-dashoffset: 0; stroke: #d7d7d7; stroke-opacity: 0.28; stroke-width: 0.35"/>
     </g>
     <g id="line2d_71">
      <g>
       <use xlink:href="#m8ae3e0712d" x="164.690861" y="151.954207" style="stroke: #000000; stroke-width: 0.5"/>
      </g>
     </g>
     <g id="line2d_72">
      <g>
       <use xlink:href="#m6942c5b105" x="164.690861" y="3.6" style="stroke: #000000; stroke-width: 0.5"/>
      </g>
     </g>
    </g>
    <g id="xtick_25">
     <g id="line2d_73">
      <path d="M 171.113715 151.954207 
L 171.113715 3.6 
" clip-path="url(#p0e69287415)" style="fill: none; stroke-dasharray: 1.295,0.56; stroke-dashoffset: 0; stroke: #d7d7d7; stroke-opacity: 0.28; stroke-width: 0.35"/>
     </g>
     <g id="line2d_74">
      <g>
       <use xlink:href="#m8ae3e0712d" x="171.113715" y="151.954207" style="stroke: #000000; stroke-width: 0.5"/>
      </g>
     </g>
     <g id="line2d_75">
      <g>
       <use xlink:href="#m6942c5b105" x="171.113715" y="3.6" style="stroke: #000000; stroke-width: 0.5"/>
      </g>
     </g>
    </g>
    <g id="xtick_26">
     <g id="line2d_76">
      <path d="M 177.536568 151.954207 
L 177.536568 3.6 
" clip-path="url(#p0e69287415)" style="fill: none; stroke-dasharray: 1.295,0.56; stroke-dashoffset: 0; stroke: #d7d7d7; stroke-opacity: 0.28; stroke-width: 0.35"/>
     </g>
     <g id="line2d_77">
      <g>
       <use xlink:href="#m8ae3e0712d" x="177.536568" y="151.954207" style="stroke: #000000; stroke-width: 0.5"/>
      </g>
     </g>
     <g id="line2d_78">
      <g>
       <use xlink:href="#m6942c5b105" x="177.536568" y="3.6" style="stroke: #000000; stroke-width: 0.5"/>
      </g>
     </g>
    </g>
    <g id="xtick_27">
     <g id="line2d_79">
      <path d="M 190.382275 151.954207 
L 190.382275 3.6 
" clip-path="url(#p0e69287415)" style="fill: none; stroke-dasharray: 1.295,0.56; stroke-dashoffset: 0; stroke: #d7d7d7; stroke-opacity: 0.28; stroke-width: 0.35"/>
     </g>
     <g id="line2d_80">
      <g>
       <use xlink:href="#m8ae3e0712d" x="190.382275" y="151.954207" style="stroke: #000000; stroke-width: 0.5"/>
      </g>
     </g>
     <g id="line2d_81">
      <g>
       <use xlink:href="#m6942c5b105" x="190.382275" y="3.6" style="stroke: #000000; stroke-width: 0.5"/>
      </g>
     </g>
    </g>
    <g id="xtick_28">
     <g id="line2d_82">
      <path d="M 196.805129 151.954207 
L 196.805129 3.6 
" clip-path="url(#p0e69287415)" style="fill: none; stroke-dasharray: 1.295,0.56; stroke-dashoffset: 0; stroke: #d7d7d7; stroke-opacity: 0.28; stroke-width: 0.35"/>
     </g>
     <g id="line2d_83">
      <g>
       <use xlink:href="#m8ae3e0712d" x="196.805129" y="151.954207" style="stroke: #000000; stroke-width: 0.5"/>
      </g>
     </g>
     <g id="line2d_84">
      <g>
       <use xlink:href="#m6942c5b105" x="196.805129" y="3.6" style="stroke: #000000; stroke-width: 0.5"/>
      </g>
     </g>
    </g>
    <g id="xtick_29">
     <g id="line2d_85">
      <path d="M 203.227982 151.954207 
L 203.227982 3.6 
" clip-path="url(#p0e69287415)" style="fill: none; stroke-dasharray: 1.295,0.56; stroke-dashoffset: 0; stroke: #d7d7d7; stroke-opacity: 0.28; stroke-width: 0.35"/>
     </g>
     <g id="line2d_86">
      <g>
       <use xlink:href="#m8ae3e0712d" x="203.227982" y="151.954207" style="stroke: #000000; stroke-width: 0.5"/>
      </g>
     </g>
     <g id="line2d_87">
      <g>
       <use xlink:href="#m6942c5b105" x="203.227982" y="3.6" style="stroke: #000000; stroke-width: 0.5"/>
      </g>
     </g>
    </g>
    <g id="xtick_30">
     <g id="line2d_88">
      <path d="M 216.07369 151.954207 
L 216.07369 3.6 
" clip-path="url(#p0e69287415)" style="fill: none; stroke-dasharray: 1.295,0.56; stroke-dashoffset: 0; stroke: #d7d7d7; stroke-opacity: 0.28; stroke-width: 0.35"/>
     </g>
     <g id="line2d_89">
      <g>
       <use xlink:href="#m8ae3e0712d" x="216.07369" y="151.954207" style="stroke: #000000; stroke-width: 0.5"/>
      </g>
     </g>
     <g id="line2d_90">
      <g>
       <use xlink:href="#m6942c5b105" x="216.07369" y="3.6" style="stroke: #000000; stroke-width: 0.5"/>
      </g>
     </g>
    </g>
    <g id="xtick_31">
     <g id="line2d_91">
      <path d="M 222.496543 151.954207 
L 222.496543 3.6 
" clip-path="url(#p0e69287415)" style="fill: none; stroke-dasharray: 1.295,0.56; stroke-dashoffset: 0; stroke: #d7d7d7; stroke-opacity: 0.28; stroke-width: 0.35"/>
     </g>
     <g id="line2d_92">
      <g>
       <use xlink:href="#m8ae3e0712d" x="222.496543" y="151.954207" style="stroke: #000000; stroke-width: 0.5"/>
      </g>
     </g>
     <g id="line2d_93">
      <g>
       <use xlink:href="#m6942c5b105" x="222.496543" y="3.6" style="stroke: #000000; stroke-width: 0.5"/>
      </g>
     </g>
    </g>
    <g id="xtick_32">
     <g id="line2d_94">
      <path d="M 228.919397 151.954207 
L 228.919397 3.6 
" clip-path="url(#p0e69287415)" style="fill: none; stroke-dasharray: 1.295,0.56; stroke-dashoffset: 0; stroke: #d7d7d7; stroke-opacity: 0.28; stroke-width: 0.35"/>
     </g>
     <g id="line2d_95">
      <g>
       <use xlink:href="#m8ae3e0712d" x="228.919397" y="151.954207" style="stroke: #000000; stroke-width: 0.5"/>
      </g>
     </g>
     <g id="line2d_96">
      <g>
       <use xlink:href="#m6942c5b105" x="228.919397" y="3.6" style="stroke: #000000; stroke-width: 0.5"/>
      </g>
     </g>
    </g>
    <g id="text_9">
     <!-- 时间 / h -->
     <g transform="translate(112.505229 176.310458) scale(0.1 -0.1)">
      <defs>
       <path id="SimSun-65f6" d="M 4500 3600 
Q 4500 4575 4475 5225 
L 5100 4900 
L 4850 4725 
L 4850 3600 
L 5225 3600 
L 5550 3925 
L 6025 3450 
L 4850 3450 
L 4850 100 
Q 4850 -375 4300 -575 
Q 4275 -200 3475 -25 
L 3475 100 
Q 4150 0 4325 25 
Q 4500 50 4500 325 
L 4500 3450 
L 3200 3450 
Q 2875 3450 2600 3375 
L 2375 3600 
L 4500 3600 
z
M 2875 2825 
Q 3525 2375 3637 2200 
Q 3750 2025 3750 1925 
Q 3750 1800 3637 1637 
Q 3525 1475 3475 1475 
Q 3400 1475 3325 1775 
Q 3200 2225 2800 2750 
L 2875 2825 
z
M 925 4150 
L 925 2650 
L 1950 2650 
L 1950 4150 
L 925 4150 
z
M 925 2500 
L 925 900 
L 1950 900 
L 1950 2500 
L 925 2500 
z
M 2300 2000 
Q 2300 800 2325 450 
L 1950 250 
L 1950 750 
L 925 750 
L 925 225 
L 550 25 
Q 575 825 575 2425 
Q 575 4025 550 4500 
L 950 4300 
L 1900 4300 
L 2100 4550 
L 2500 4225 
L 2300 4050 
L 2300 2000 
z
" transform="scale(0.015625)"/>
       <path id="SimSun-95f4" d="M 2150 525 
Q 2175 1325 2175 2112 
Q 2175 2900 2150 3675 
L 2525 3450 
L 3750 3450 
L 4000 3700 
L 4325 3375 
L 4125 3200 
Q 4125 1550 4150 775 
L 3800 575 
L 3800 975 
L 2500 975 
L 2500 700 
L 2150 525 
z
M 2500 3300 
L 2500 2325 
L 3800 2325 
L 3800 3300 
L 2500 3300 
z
M 2500 2175 
L 2500 1125 
L 3800 1125 
L 3800 2175 
L 2500 2175 
z
M 1275 5200 
Q 1850 4825 1950 4675 
Q 2050 4525 2050 4425 
Q 2050 4275 1950 4137 
Q 1850 4000 1825 4000 
Q 1750 4000 1675 4275 
Q 1550 4650 1200 5125 
L 1275 5200 
z
M 1125 425 
Q 1125 25 1150 -375 
L 750 -525 
Q 775 -150 775 1950 
Q 775 4050 750 4425 
L 1350 4125 
L 1125 3975 
L 1125 425 
z
M 4225 125 
Q 5025 0 5125 37 
Q 5225 75 5225 250 
L 5225 4450 
L 3225 4450 
Q 2900 4450 2625 4375 
L 2400 4600 
L 5175 4600 
L 5425 4850 
L 5775 4500 
L 5575 4350 
L 5575 225 
Q 5575 -100 5462 -250 
Q 5350 -400 5000 -550 
Q 4800 -125 4225 25 
L 4225 125 
z
" transform="scale(0.015625)"/>
       <path id="SimSun-20" d="M 0 0 
Q 0 0 0 0 
z
" transform="scale(0.015625)"/>
       <path id="SimSun-2f" d="M 400 -475 
L 225 -375 
L 2775 4975 
L 2950 4875 
L 400 -475 
z
" transform="scale(0.015625)"/>
       <path id="SimSun-68" d="M 200 100 
L 200 250 
L 325 250 
Q 450 250 500 300 
Q 550 350 550 450 
L 550 4025 
Q 550 4125 500 4175 
Q 450 4225 325 4225 
L 175 4225 
L 175 4375 
L 450 4375 
Q 550 4375 650 4425 
Q 750 4475 850 4575 
L 900 4575 
L 900 2450 
Q 1125 2725 1362 2837 
Q 1600 2950 1875 2950 
Q 2250 2950 2450 2737 
Q 2650 2525 2650 2075 
L 2650 450 
Q 2650 350 2712 300 
Q 2775 250 2875 250 
L 3000 250 
L 3000 100 
L 1950 100 
L 1950 250 
L 2075 250 
Q 2200 250 2250 300 
Q 2300 350 2300 450 
L 2300 2025 
Q 2300 2450 2162 2587 
Q 2025 2725 1800 2725 
Q 1600 2725 1362 2600 
Q 1125 2475 900 2175 
L 900 450 
Q 900 350 962 300 
Q 1025 250 1125 250 
L 1250 250 
L 1250 100 
L 200 100 
z
" transform="scale(0.015625)"/>
      </defs>
      <use xlink:href="#SimSun-65f6"/>
      <use xlink:href="#SimSun-95f4" transform="translate(100 0)"/>
      <use xlink:href="#SimSun-20" transform="translate(200 0)"/>
      <use xlink:href="#SimSun-2f" transform="translate(250 0)"/>
      <use xlink:href="#SimSun-20" transform="translate(300 0)"/>
      <use xlink:href="#SimSun-68" transform="translate(350 0)"/>
     </g>
    </g>
   </g>
   <g id="matplotlib.axis_2">
    <g id="ytick_1">
     <g id="line2d_97">
      <path d="M 29.810938 125.63946 
L 235.19952 125.63946 
" clip-path="url(#p0e69287415)" style="fill: none; stroke-dasharray: 2.59,1.12; stroke-dashoffset: 0; stroke: #d7d7d7; stroke-opacity: 0.7; stroke-width: 0.7"/>
     </g>
     <g id="line2d_98">
      <defs>
       <path id="m59675de670" d="M 0 0 
L 3 0 
" style="stroke: #000000; stroke-width: 0.5"/>
      </defs>
      <g>
       <use xlink:href="#m59675de670" x="29.810938" y="125.63946" style="stroke: #000000; stroke-width: 0.5"/>
      </g>
     </g>
     <g id="line2d_99">
      <defs>
       <path id="m2e6bf17600" d="M 0 0 
L -3 0 
" style="stroke: #000000; stroke-width: 0.5"/>
      </defs>
      <g>
       <use xlink:href="#m2e6bf17600" x="235.19952" y="125.63946" style="stroke: #000000; stroke-width: 0.5"/>
      </g>
     </g>
     <g id="text_10">
      <!-- $\mathdefault{0}$ -->
      <g transform="translate(21.310938 129.111335) scale(0.1 -0.1)">
       <use xlink:href="#TimesNewRomanPSMT-30" transform="translate(0 0.421875)"/>
      </g>
     </g>
    </g>
    <g id="ytick_2">
     <g id="line2d_100">
      <path d="M 29.810938 97.378853 
L 235.19952 97.378853 
" clip-path="url(#p0e69287415)" style="fill: none; stroke-dasharray: 2.59,1.12; stroke-dashoffset: 0; stroke: #d7d7d7; stroke-opacity: 0.7; stroke-width: 0.7"/>
     </g>
     <g id="line2d_101">
      <g>
       <use xlink:href="#m59675de670" x="29.810938" y="97.378853" style="stroke: #000000; stroke-width: 0.5"/>
      </g>
     </g>
     <g id="line2d_102">
      <g>
       <use xlink:href="#m2e6bf17600" x="235.19952" y="97.378853" style="stroke: #000000; stroke-width: 0.5"/>
      </g>
     </g>
     <g id="text_11">
      <!-- $\mathdefault{5}$ -->
      <g transform="translate(21.310938 100.850728) scale(0.1 -0.1)">
       <use xlink:href="#TimesNewRomanPSMT-35" transform="translate(0 0.78125)"/>
      </g>
     </g>
    </g>
    <g id="ytick_3">
     <g id="line2d_103">
      <path d="M 29.810938 69.118246 
L 235.19952 69.118246 
" clip-path="url(#p0e69287415)" style="fill: none; stroke-dasharray: 2.59,1.12; stroke-dashoffset: 0; stroke: #d7d7d7; stroke-opacity: 0.7; stroke-width: 0.7"/>
     </g>
     <g id="line2d_104">
      <g>
       <use xlink:href="#m59675de670" x="29.810938" y="69.118246" style="stroke: #000000; stroke-width: 0.5"/>
      </g>
     </g>
     <g id="line2d_105">
      <g>
       <use xlink:href="#m2e6bf17600" x="235.19952" y="69.118246" style="stroke: #000000; stroke-width: 0.5"/>
      </g>
     </g>
     <g id="text_12">
      <!-- $\mathdefault{10}$ -->
      <g transform="translate(16.310938 72.590121) scale(0.1 -0.1)">
       <use xlink:href="#TimesNewRomanPSMT-31" transform="translate(0 0.421875)"/>
       <use xlink:href="#TimesNewRomanPSMT-30" transform="translate(50 0.421875)"/>
      </g>
     </g>
    </g>
    <g id="ytick_4">
     <g id="line2d_106">
      <path d="M 29.810938 40.857639 
L 235.19952 40.857639 
" clip-path="url(#p0e69287415)" style="fill: none; stroke-dasharray: 2.59,1.12; stroke-dashoffset: 0; stroke: #d7d7d7; stroke-opacity: 0.7; stroke-width: 0.7"/>
     </g>
     <g id="line2d_107">
      <g>
       <use xlink:href="#m59675de670" x="29.810938" y="40.857639" style="stroke: #000000; stroke-width: 0.5"/>
      </g>
     </g>
     <g id="line2d_108">
      <g>
       <use xlink:href="#m2e6bf17600" x="235.19952" y="40.857639" style="stroke: #000000; stroke-width: 0.5"/>
      </g>
     </g>
     <g id="text_13">
      <!-- $\mathdefault{15}$ -->
      <g transform="translate(16.310938 44.329514) scale(0.1 -0.1)">
       <use xlink:href="#TimesNewRomanPSMT-31" transform="translate(0 0.421875)"/>
       <use xlink:href="#TimesNewRomanPSMT-35" transform="translate(50 0.421875)"/>
      </g>
     </g>
    </g>
    <g id="ytick_5">
     <g id="line2d_109">
      <path d="M 29.810938 12.597032 
L 235.19952 12.597032 
" clip-path="url(#p0e69287415)" style="fill: none; stroke-dasharray: 2.59,1.12; stroke-dashoffset: 0; stroke: #d7d7d7; stroke-opacity: 0.7; stroke-width: 0.7"/>
     </g>
     <g id="line2d_110">
      <g>
       <use xlink:href="#m59675de670" x="29.810938" y="12.597032" style="stroke: #000000; stroke-width: 0.5"/>
      </g>
     </g>
     <g id="line2d_111">
      <g>
       <use xlink:href="#m2e6bf17600" x="235.19952" y="12.597032" style="stroke: #000000; stroke-width: 0.5"/>
      </g>
     </g>
     <g id="text_14">
      <!-- $\mathdefault{20}$ -->
      <g transform="translate(16.310938 16.068907) scale(0.1 -0.1)">
       <use xlink:href="#TimesNewRomanPSMT-32" transform="translate(0 0.421875)"/>
       <use xlink:href="#TimesNewRomanPSMT-30" transform="translate(50 0.421875)"/>
      </g>
     </g>
    </g>
    <g id="ytick_6">
     <g id="line2d_112">
      <path d="M 29.810938 148.247945 
L 235.19952 148.247945 
" clip-path="url(#p0e69287415)" style="fill: none; stroke-dasharray: 1.295,0.56; stroke-dashoffset: 0; stroke: #d7d7d7; stroke-opacity: 0.28; stroke-width: 0.35"/>
     </g>
     <g id="line2d_113">
      <defs>
       <path id="mdc06cecdb4" d="M 0 0 
L 1.5 0 
" style="stroke: #000000; stroke-width: 0.5"/>
      </defs>
      <g>
       <use xlink:href="#mdc06cecdb4" x="29.810938" y="148.247945" style="stroke: #000000; stroke-width: 0.5"/>
      </g>
     </g>
     <g id="line2d_114">
      <defs>
       <path id="ma1befd6f58" d="M 0 0 
L -1.5 0 
" style="stroke: #000000; stroke-width: 0.5"/>
      </defs>
      <g>
       <use xlink:href="#ma1befd6f58" x="235.19952" y="148.247945" style="stroke: #000000; stroke-width: 0.5"/>
      </g>
     </g>
    </g>
    <g id="ytick_7">
     <g id="line2d_115">
      <path d="M 29.810938 142.595824 
L 235.19952 142.595824 
" clip-path="url(#p0e69287415)" style="fill: none; stroke-dasharray: 1.295,0.56; stroke-dashoffset: 0; stroke: #d7d7d7; stroke-opacity: 0.28; stroke-width: 0.35"/>
     </g>
     <g id="line2d_116">
      <g>
       <use xlink:href="#mdc06cecdb4" x="29.810938" y="142.595824" style="stroke: #000000; stroke-width: 0.5"/>
      </g>
     </g>
     <g id="line2d_117">
      <g>
       <use xlink:href="#ma1befd6f58" x="235.19952" y="142.595824" style="stroke: #000000; stroke-width: 0.5"/>
      </g>
     </g>
    </g>
    <g id="ytick_8">
     <g id="line2d_118">
      <path d="M 29.810938 136.943703 
L 235.19952 136.943703 
" clip-path="url(#p0e69287415)" style="fill: none; stroke-dasharray: 1.295,0.56; stroke-dashoffset: 0; stroke: #d7d7d7; stroke-opacity: 0.28; stroke-width: 0.35"/>
     </g>
     <g id="line2d_119">
      <g>
       <use xlink:href="#mdc06cecdb4" x="29.810938" y="136.943703" style="stroke: #000000; stroke-width: 0.5"/>
      </g>
     </g>
     <g id="line2d_120">
      <g>
       <use xlink:href="#ma1befd6f58" x="235.19952" y="136.943703" style="stroke: #000000; stroke-width: 0.5"/>
      </g>
     </g>
    </g>
    <g id="ytick_9">
     <g id="line2d_121">
      <path d="M 29.810938 131.291581 
L 235.19952 131.291581 
" clip-path="url(#p0e69287415)" style="fill: none; stroke-dasharray: 1.295,0.56; stroke-dashoffset: 0; stroke: #d7d7d7; stroke-opacity: 0.28; stroke-width: 0.35"/>
     </g>
     <g id="line2d_122">
      <g>
       <use xlink:href="#mdc06cecdb4" x="29.810938" y="131.291581" style="stroke: #000000; stroke-width: 0.5"/>
      </g>
     </g>
     <g id="line2d_123">
      <g>
       <use xlink:href="#ma1befd6f58" x="235.19952" y="131.291581" style="stroke: #000000; stroke-width: 0.5"/>
      </g>
     </g>
    </g>
    <g id="ytick_10">
     <g id="line2d_124">
      <path d="M 29.810938 119.987338 
L 235.19952 119.987338 
" clip-path="url(#p0e69287415)" style="fill: none; stroke-dasharray: 1.295,0.56; stroke-dashoffset: 0; stroke: #d7d7d7; stroke-opacity: 0.28; stroke-width: 0.35"/>
     </g>
     <g id="line2d_125">
      <g>
       <use xlink:href="#mdc06cecdb4" x="29.810938" y="119.987338" style="stroke: #000000; stroke-width: 0.5"/>
      </g>
     </g>
     <g id="line2d_126">
      <g>
       <use xlink:href="#ma1befd6f58" x="235.19952" y="119.987338" style="stroke: #000000; stroke-width: 0.5"/>
      </g>
     </g>
    </g>
    <g id="ytick_11">
     <g id="line2d_127">
      <path d="M 29.810938 114.335217 
L 235.19952 114.335217 
" clip-path="url(#p0e69287415)" style="fill: none; stroke-dasharray: 1.295,0.56; stroke-dashoffset: 0; stroke: #d7d7d7; stroke-opacity: 0.28; stroke-width: 0.35"/>
     </g>
     <g id="line2d_128">
      <g>
       <use xlink:href="#mdc06cecdb4" x="29.810938" y="114.335217" style="stroke: #000000; stroke-width: 0.5"/>
      </g>
     </g>
     <g id="line2d_129">
      <g>
       <use xlink:href="#ma1befd6f58" x="235.19952" y="114.335217" style="stroke: #000000; stroke-width: 0.5"/>
      </g>
     </g>
    </g>
    <g id="ytick_12">
     <g id="line2d_130">
      <path d="M 29.810938 108.683096 
L 235.19952 108.683096 
" clip-path="url(#p0e69287415)" style="fill: none; stroke-dasharray: 1.295,0.56; stroke-dashoffset: 0; stroke: #d7d7d7; stroke-opacity: 0.28; stroke-width: 0.35"/>
     </g>
     <g id="line2d_131">
      <g>
       <use xlink:href="#mdc06cecdb4" x="29.810938" y="108.683096" style="stroke: #000000; stroke-width: 0.5"/>
      </g>
     </g>
     <g id="line2d_132">
      <g>
       <use xlink:href="#ma1befd6f58" x="235.19952" y="108.683096" style="stroke: #000000; stroke-width: 0.5"/>
      </g>
     </g>
    </g>
    <g id="ytick_13">
     <g id="line2d_133">
      <path d="M 29.810938 103.030974 
L 235.19952 103.030974 
" clip-path="url(#p0e69287415)" style="fill: none; stroke-dasharray: 1.295,0.56; stroke-dashoffset: 0; stroke: #d7d7d7; stroke-opacity: 0.28; stroke-width: 0.35"/>
     </g>
     <g id="line2d_134">
      <g>
       <use xlink:href="#mdc06cecdb4" x="29.810938" y="103.030974" style="stroke: #000000; stroke-width: 0.5"/>
      </g>
     </g>
     <g id="line2d_135">
      <g>
       <use xlink:href="#ma1befd6f58" x="235.19952" y="103.030974" style="stroke: #000000; stroke-width: 0.5"/>
      </g>
     </g>
    </g>
    <g id="ytick_14">
     <g id="line2d_136">
      <path d="M 29.810938 91.726731 
L 235.19952 91.726731 
" clip-path="url(#p0e69287415)" style="fill: none; stroke-dasharray: 1.295,0.56; stroke-dashoffset: 0; stroke: #d7d7d7; stroke-opacity: 0.28; stroke-width: 0.35"/>
     </g>
     <g id="line2d_137">
      <g>
       <use xlink:href="#mdc06cecdb4" x="29.810938" y="91.726731" style="stroke: #000000; stroke-width: 0.5"/>
      </g>
     </g>
     <g id="line2d_138">
      <g>
       <use xlink:href="#ma1befd6f58" x="235.19952" y="91.726731" style="stroke: #000000; stroke-width: 0.5"/>
      </g>
     </g>
    </g>
    <g id="ytick_15">
     <g id="line2d_139">
      <path d="M 29.810938 86.07461 
L 235.19952 86.07461 
" clip-path="url(#p0e69287415)" style="fill: none; stroke-dasharray: 1.295,0.56; stroke-dashoffset: 0; stroke: #d7d7d7; stroke-opacity: 0.28; stroke-width: 0.35"/>
     </g>
     <g id="line2d_140">
      <g>
       <use xlink:href="#mdc06cecdb4" x="29.810938" y="86.07461" style="stroke: #000000; stroke-width: 0.5"/>
      </g>
     </g>
     <g id="line2d_141">
      <g>
       <use xlink:href="#ma1befd6f58" x="235.19952" y="86.07461" style="stroke: #000000; stroke-width: 0.5"/>
      </g>
     </g>
    </g>
    <g id="ytick_16">
     <g id="line2d_142">
      <path d="M 29.810938 80.422489 
L 235.19952 80.422489 
" clip-path="url(#p0e69287415)" style="fill: none; stroke-dasharray: 1.295,0.56; stroke-dashoffset: 0; stroke: #d7d7d7; stroke-opacity: 0.28; stroke-width: 0.35"/>
     </g>
     <g id="line2d_143">
      <g>
       <use xlink:href="#mdc06cecdb4" x="29.810938" y="80.422489" style="stroke: #000000; stroke-width: 0.5"/>
      </g>
     </g>
     <g id="line2d_144">
      <g>
       <use xlink:href="#ma1befd6f58" x="235.19952" y="80.422489" style="stroke: #000000; stroke-width: 0.5"/>
      </g>
     </g>
    </g>
    <g id="ytick_17">
     <g id="line2d_145">
      <path d="M 29.810938 74.770367 
L 235.19952 74.770367 
" clip-path="url(#p0e69287415)" style="fill: none; stroke-dasharray: 1.295,0.56; stroke-dashoffset: 0; stroke: #d7d7d7; stroke-opacity: 0.28; stroke-width: 0.35"/>
     </g>
     <g id="line2d_146">
      <g>
       <use xlink:href="#mdc06cecdb4" x="29.810938" y="74.770367" style="stroke: #000000; stroke-width: 0.5"/>
      </g>
     </g>
     <g id="line2d_147">
      <g>
       <use xlink:href="#ma1befd6f58" x="235.19952" y="74.770367" style="stroke: #000000; stroke-width: 0.5"/>
      </g>
     </g>
    </g>
    <g id="ytick_18">
     <g id="line2d_148">
      <path d="M 29.810938 63.466125 
L 235.19952 63.466125 
" clip-path="url(#p0e69287415)" style="fill: none; stroke-dasharray: 1.295,0.56; stroke-dashoffset: 0; stroke: #d7d7d7; stroke-opacity: 0.28; stroke-width: 0.35"/>
     </g>
     <g id="line2d_149">
      <g>
       <use xlink:href="#mdc06cecdb4" x="29.810938" y="63.466125" style="stroke: #000000; stroke-width: 0.5"/>
      </g>
     </g>
     <g id="line2d_150">
      <g>
       <use xlink:href="#ma1befd6f58" x="235.19952" y="63.466125" style="stroke: #000000; stroke-width: 0.5"/>
      </g>
     </g>
    </g>
    <g id="ytick_19">
     <g id="line2d_151">
      <path d="M 29.810938 57.814003 
L 235.19952 57.814003 
" clip-path="url(#p0e69287415)" style="fill: none; stroke-dasharray: 1.295,0.56; stroke-dashoffset: 0; stroke: #d7d7d7; stroke-opacity: 0.28; stroke-width: 0.35"/>
     </g>
     <g id="line2d_152">
      <g>
       <use xlink:href="#mdc06cecdb4" x="29.810938" y="57.814003" style="stroke: #000000; stroke-width: 0.5"/>
      </g>
     </g>
     <g id="line2d_153">
      <g>
       <use xlink:href="#ma1befd6f58" x="235.19952" y="57.814003" style="stroke: #000000; stroke-width: 0.5"/>
      </g>
     </g>
    </g>
    <g id="ytick_20">
     <g id="line2d_154">
      <path d="M 29.810938 52.161882 
L 235.19952 52.161882 
" clip-path="url(#p0e69287415)" style="fill: none; stroke-dasharray: 1.295,0.56; stroke-dashoffset: 0; stroke: #d7d7d7; stroke-opacity: 0.28; stroke-width: 0.35"/>
     </g>
     <g id="line2d_155">
      <g>
       <use xlink:href="#mdc06cecdb4" x="29.810938" y="52.161882" style="stroke: #000000; stroke-width: 0.5"/>
      </g>
     </g>
     <g id="line2d_156">
      <g>
       <use xlink:href="#ma1befd6f58" x="235.19952" y="52.161882" style="stroke: #000000; stroke-width: 0.5"/>
      </g>
     </g>
    </g>
    <g id="ytick_21">
     <g id="line2d_157">
      <path d="M 29.810938 46.50976 
L 235.19952 46.50976 
" clip-path="url(#p0e69287415)" style="fill: none; stroke-dasharray: 1.295,0.56; stroke-dashoffset: 0; stroke: #d7d7d7; stroke-opacity: 0.28; stroke-width: 0.35"/>
     </g>
     <g id="line2d_158">
      <g>
       <use xlink:href="#mdc06cecdb4" x="29.810938" y="46.50976" style="stroke: #000000; stroke-width: 0.5"/>
      </g>
     </g>
     <g id="line2d_159">
      <g>
       <use xlink:href="#ma1befd6f58" x="235.19952" y="46.50976" style="stroke: #000000; stroke-width: 0.5"/>
      </g>
     </g>
    </g>
    <g id="ytick_22">
     <g id="line2d_160">
      <path d="M 29.810938 35.205518 
L 235.19952 35.205518 
" clip-path="url(#p0e69287415)" style="fill: none; stroke-dasharray: 1.295,0.56; stroke-dashoffset: 0; stroke: #d7d7d7; stroke-opacity: 0.28; stroke-width: 0.35"/>
     </g>
     <g id="line2d_161">
      <g>
       <use xlink:href="#mdc06cecdb4" x="29.810938" y="35.205518" style="stroke: #000000; stroke-width: 0.5"/>
      </g>
     </g>
     <g id="line2d_162">
      <g>
       <use xlink:href="#ma1befd6f58" x="235.19952" y="35.205518" style="stroke: #000000; stroke-width: 0.5"/>
      </g>
     </g>
    </g>
    <g id="ytick_23">
     <g id="line2d_163">
      <path d="M 29.810938 29.553396 
L 235.19952 29.553396 
" clip-path="url(#p0e69287415)" style="fill: none; stroke-dasharray: 1.295,0.56; stroke-dashoffset: 0; stroke: #d7d7d7; stroke-opacity: 0.28; stroke-width: 0.35"/>
     </g>
     <g id="line2d_164">
      <g>
       <use xlink:href="#mdc06cecdb4" x="29.810938" y="29.553396" style="stroke: #000000; stroke-width: 0.5"/>
      </g>
     </g>
     <g id="line2d_165">
      <g>
       <use xlink:href="#ma1befd6f58" x="235.19952" y="29.553396" style="stroke: #000000; stroke-width: 0.5"/>
      </g>
     </g>
    </g>
    <g id="ytick_24">
     <g id="line2d_166">
      <path d="M 29.810938 23.901275 
L 235.19952 23.901275 
" clip-path="url(#p0e69287415)" style="fill: none; stroke-dasharray: 1.295,0.56; stroke-dashoffset: 0; stroke: #d7d7d7; stroke-opacity: 0.28; stroke-width: 0.35"/>
     </g>
     <g id="line2d_167">
      <g>
       <use xlink:href="#mdc06cecdb4" x="29.810938" y="23.901275" style="stroke: #000000; stroke-width: 0.5"/>
      </g>
     </g>
     <g id="line2d_168">
      <g>
       <use xlink:href="#ma1befd6f58" x="235.19952" y="23.901275" style="stroke: #000000; stroke-width: 0.5"/>
      </g>
     </g>
    </g>
    <g id="ytick_25">
     <g id="line2d_169">
      <path d="M 29.810938 18.249154 
L 235.19952 18.249154 
" clip-path="url(#p0e69287415)" style="fill: none; stroke-dasharray: 1.295,0.56; stroke-dashoffset: 0; stroke: #d7d7d7; stroke-opacity: 0.28; stroke-width: 0.35"/>
     </g>
     <g id="line2d_170">
      <g>
       <use xlink:href="#mdc06cecdb4" x="29.810938" y="18.249154" style="stroke: #000000; stroke-width: 0.5"/>
      </g>
     </g>
     <g id="line2d_171">
      <g>
       <use xlink:href="#ma1befd6f58" x="235.19952" y="18.249154" style="stroke: #000000; stroke-width: 0.5"/>
      </g>
     </g>
    </g>
    <g id="ytick_26">
     <g id="line2d_172">
      <path d="M 29.810938 6.944911 
L 235.19952 6.944911 
" clip-path="url(#p0e69287415)" style="fill: none; stroke-dasharray: 1.295,0.56; stroke-dashoffset: 0; stroke: #d7d7d7; stroke-opacity: 0.28; stroke-width: 0.35"/>
     </g>
     <g id="line2d_173">
      <g>
       <use xlink:href="#mdc06cecdb4" x="29.810938" y="6.944911" style="stroke: #000000; stroke-width: 0.5"/>
      </g>
     </g>
     <g id="line2d_174">
      <g>
       <use xlink:href="#ma1befd6f58" x="235.19952" y="6.944911" style="stroke: #000000; stroke-width: 0.5"/>
      </g>
     </g>
    </g>
    <g id="text_15">
     <!-- 延迟 / m -->
     <g transform="translate(11.021875 97.777104) rotate(-90) scale(0.1 -0.1)">
      <defs>
       <path id="SimSun-5ef6" d="M 500 4450 
L 1800 4450 
L 2050 4700 
L 2450 4300 
Q 2225 4275 1900 3775 
Q 1575 3250 1250 2750 
L 1975 2750 
L 2150 3000 
L 2525 2675 
L 2325 2525 
Q 2175 1550 1875 750 
Q 2500 250 3112 175 
Q 3725 100 4350 100 
Q 5175 100 6025 175 
L 6025 75 
Q 5525 -25 5525 -350 
Q 3800 -350 3100 -187 
Q 2400 -25 1725 525 
Q 1175 -150 325 -525 
L 275 -450 
Q 1025 0 1500 750 
Q 1175 1175 825 2025 
L 900 2050 
Q 1275 1350 1625 1000 
Q 1925 1775 2000 2600 
L 1200 2600 
L 1050 2425 
L 725 2725 
Q 1025 2925 1362 3462 
Q 1700 4000 1825 4300 
L 1000 4300 
L 700 4250 
L 500 4450 
z
M 2800 4200 
Q 3675 4300 4412 4500 
Q 5150 4700 5350 4850 
L 5775 4400 
Q 5500 4400 5162 4350 
Q 4825 4300 4500 4250 
L 4500 2800 
L 5050 2800 
L 5350 3100 
L 5800 2650 
L 4500 2650 
L 4500 1025 
L 5200 1025 
L 5500 1325 
L 5950 875 
L 3425 875 
L 3225 650 
L 2900 975 
L 3075 1125 
L 3075 2275 
Q 3075 2775 3050 3200 
L 3575 2950 
L 3400 2825 
L 3400 1025 
L 4175 1025 
L 4175 4225 
Q 3575 4150 2825 4100 
L 2800 4200 
z
" transform="scale(0.015625)"/>
       <path id="SimSun-8fdf" d="M 3100 4500 
L 3100 3175 
L 4975 3175 
L 4975 4500 
L 3100 4500 
z
M 3100 3025 
Q 3075 1400 2100 650 
L 2050 725 
Q 2475 1225 2625 1850 
Q 2775 2475 2775 3387 
Q 2775 4300 2750 4875 
L 3100 4650 
L 4925 4650 
L 5175 4900 
L 5500 4575 
L 5300 4425 
Q 5300 3250 5325 2875 
L 4975 2725 
L 4975 3025 
L 3100 3025 
z
M 3625 2400 
L 3675 2500 
Q 4250 2225 4762 1912 
Q 5275 1600 5425 1387 
Q 5575 1175 5575 1025 
Q 5575 900 5500 800 
Q 5425 700 5400 700 
Q 5300 700 5175 950 
Q 5000 1275 4650 1612 
Q 4300 1950 3625 2400 
z
M 1600 950 
Q 1825 700 2225 450 
Q 2625 200 3400 162 
Q 4175 125 4825 150 
Q 5475 175 6100 275 
L 6100 175 
Q 5675 25 5600 -250 
Q 4500 -250 3750 -212 
Q 3000 -175 2562 0 
Q 2125 175 1825 525 
Q 1500 850 1412 837 
Q 1325 825 1050 512 
Q 775 200 650 -25 
L 275 325 
Q 725 600 1275 950 
L 1275 2925 
L 1075 2925 
Q 750 2925 475 2850 
L 250 3075 
L 1225 3075 
L 1500 3350 
L 1850 3000 
L 1600 2825 
L 1600 950 
z
M 925 4975 
L 975 5050 
Q 1500 4750 1662 4575 
Q 1825 4400 1812 4225 
Q 1800 4050 1712 3987 
Q 1625 3925 1575 3925 
Q 1475 3925 1400 4225 
Q 1275 4625 925 4975 
z
" transform="scale(0.015625)"/>
       <path id="SimSun-6d" d="M 175 2900 
Q 300 2900 425 2925 
Q 550 2950 625 3000 
L 675 3000 
L 675 2575 
Q 800 2775 950 2862 
Q 1100 2950 1275 2950 
Q 1500 2950 1625 2862 
Q 1750 2775 1775 2575 
Q 1900 2775 2062 2862 
Q 2225 2950 2400 2950 
Q 2700 2950 2812 2775 
Q 2925 2600 2925 2325 
L 2925 425 
Q 2925 325 2975 287 
Q 3025 250 3125 250 
L 3175 250 
L 3175 100 
L 2325 100 
L 2325 250 
L 2375 250 
Q 2475 250 2525 287 
Q 2575 325 2575 425 
L 2575 2300 
Q 2575 2575 2512 2662 
Q 2450 2750 2325 2750 
Q 2150 2750 2012 2625 
Q 1875 2500 1800 2275 
L 1800 425 
Q 1800 325 1850 287 
Q 1900 250 2000 250 
L 2050 250 
L 2050 100 
L 1200 100 
L 1200 250 
L 1250 250 
Q 1350 250 1400 287 
Q 1450 325 1450 425 
L 1450 2300 
Q 1450 2525 1400 2637 
Q 1350 2750 1200 2750 
Q 1025 2750 887 2625 
Q 750 2500 675 2250 
L 675 425 
Q 675 325 725 287 
Q 775 250 875 250 
L 925 250 
L 925 100 
L 75 100 
L 75 250 
L 125 250 
Q 225 250 275 287 
Q 325 325 325 425 
L 325 2600 
Q 325 2675 300 2712 
Q 275 2750 200 2750 
L 100 2750 
L 100 2900 
L 175 2900 
z
" transform="scale(0.015625)"/>
      </defs>
      <use xlink:href="#SimSun-5ef6"/>
      <use xlink:href="#SimSun-8fdf" transform="translate(100 0)"/>
      <use xlink:href="#SimSun-20" transform="translate(200 0)"/>
      <use xlink:href="#SimSun-2f" transform="translate(250 0)"/>
      <use xlink:href="#SimSun-20" transform="translate(300 0)"/>
      <use xlink:href="#SimSun-6d" transform="translate(350 0)"/>
     </g>
    </g>
   </g>
   <g id="line2d_175">
    <path d="M 29.810937 69.646561 
L 29.953668 70.771684 
L 30.239128 70.168314 
L 30.381858 77.027796 
L 30.667318 76.834437 
L 31.809159 76.173699 
L 32.950999 75.27214 
L 33.95011 74.266012 
L 34.09284 65.737333 
L 35.09195 65.431825 
L 36.091061 64.905313 
L 37.090171 64.135946 
L 38.089282 63.101472 
L 39.088393 61.77926 
L 39.231123 68.783431 
L 39.373853 60.276446 
L 39.516583 60.004568 
L 39.659313 68.620311 
L 39.802043 59.44182 
L 39.944773 59.150883 
L 40.087503 68.412788 
L 40.230233 68.333511 
L 40.372963 70.942389 
L 40.658423 52.421942 
L 40.801154 58.787118 
L 40.943884 58.754561 
L 41.086614 51.805233 
L 41.229344 58.674273 
L 41.800264 58.451455 
L 41.942994 69.272481 
L 42.228454 68.898605 
L 42.371184 58.142731 
L 42.799375 57.852788 
L 42.942105 56.022829 
L 43.084835 57.630931 
L 43.227565 55.845454 
L 43.513025 55.644397 
L 43.655755 64.784403 
L 43.798485 55.419346 
L 43.941215 56.824074 
L 44.083945 55.170026 
L 44.369405 44.16959 
L 44.512136 47.948321 
L 45.511246 48.283995 
L 45.796706 48.333666 
L 45.939436 44.851473 
L 46.082166 48.362125 
L 46.367627 48.369037 
L 46.510357 44.997151 
L 46.653087 45.023383 
L 46.795817 48.338312 
L 47.652197 48.125397 
L 48.508578 47.704947 
L 48.651308 44.901885 
L 49.650418 44.460861 
L 50.649529 43.743036 
L 50.792259 43.617236 
L 50.934989 39.988315 
L 51.220449 39.442365 
L 51.363179 43.055014 
L 52.36229 41.842402 
L 52.50502 41.645387 
L 52.64775 50.773896 
L 53.21867 50.738028 
L 53.3614 42.531944 
L 53.50413 50.684332 
L 54.360511 50.377083 
L 55.216891 49.845575 
L 55.359621 45.117982 
L 55.645082 44.843459 
L 55.787812 49.363714 
L 56.358732 48.777883 
L 56.501462 43.845243 
L 57.500573 42.340281 
L 57.643303 34.963211 
L 57.786033 41.841249 
L 57.928763 41.580048 
L 58.071493 31.349929 
L 58.927873 30.858901 
L 59.213334 30.641808 
L 59.356064 27.143784 
L 59.498794 30.397128 
L 60.497904 29.316702 
L 60.640634 26.819414 
L 61.497015 26.323548 
L 62.353395 25.584154 
L 63.352506 24.395813 
L 64.066156 23.32343 
L 64.208886 23.514432 
L 64.494346 23.105756 
L 64.637077 22.327843 
L 64.779807 22.666727 
L 65.065267 21.499762 
L 65.207997 21.208129 
L 65.350727 26.014049 
L 65.778917 25.585449 
L 66.064377 45.465333 
L 66.207107 40.08028 
L 66.492568 40.05181 
L 66.635298 44.968433 
L 66.778028 46.002991 
L 66.920758 30.596303 
L 68.062598 31.501163 
L 68.205329 36.358143 
L 68.490789 36.796878 
L 68.633519 31.825967 
L 68.776249 31.893312 
L 68.918979 27.237553 
L 69.061709 27.39272 
L 69.204439 32.061418 
L 69.918089 32.226228 
L 70.06082 28.323924 
L 70.34628 28.538326 
L 70.48901 34.124776 
L 70.9172 34.789663 
L 71.05993 28.969826 
L 71.916311 29.285384 
L 72.201771 29.340628 
L 72.344501 36.599732 
L 73.343611 37.47758 
L 74.199992 37.966008 
L 75.056372 38.207128 
L 75.341832 38.044855 
L 75.484563 38.234523 
L 75.627293 38.229849 
L 75.912753 37.745276 
L 76.198213 37.556811 
L 76.340943 38.103225 
L 76.483673 38.057307 
L 76.626403 37.226049 
L 77.625514 36.232384 
L 78.624624 34.934091 
L 78.910084 34.508436 
L 79.052814 44.284351 
L 79.338275 44.062369 
L 79.481005 42.765383 
L 79.623735 42.541564 
L 79.766465 32.920941 
L 79.909195 32.852025 
L 80.051925 41.838977 
L 80.337385 41.34475 
L 80.480115 32.533619 
L 80.622845 32.443207 
L 80.765575 40.564786 
L 81.193766 39.738547 
L 81.336496 41.85863 
L 81.764686 41.240638 
L 81.907416 46.357871 
L 82.050146 43.864522 
L 82.192876 35.061999 
L 82.335606 35.002951 
L 82.478336 43.101706 
L 82.621066 34.868973 
L 82.763797 42.563393 
L 82.906527 34.713523 
L 83.905637 33.995054 
L 84.762018 33.154821 
L 84.904748 27.553506 
L 86.189318 25.19123 
L 86.332048 24.901531 
L 86.474779 21.431795 
L 87.331159 19.735079 
L 87.473889 17.017986 
L 88.61573 17.515141 
L 89.47211 17.701429 
L 89.61484 26.860974 
L 89.9003 10.343373 
L 90.613951 11.174433 
L 90.756681 18.811246 
L 92.041252 21.204874 
L 93.183092 22.924843 
L 94.324933 24.239193 
L 95.181313 24.952649 
L 95.324043 20.721148 
L 96.465884 22.433108 
L 96.751344 22.792922 
L 96.894074 31.17716 
L 97.036804 23.125691 
L 98.035915 24.080362 
L 98.178645 24.190517 
L 98.321375 35.35756 
L 98.464105 24.391551 
L 99.463216 24.897981 
L 99.605946 24.94603 
L 99.748676 38.691226 
L 99.891406 25.024527 
L 100.034136 25.055105 
L 100.176866 28.846446 
L 101.033247 31.040006 
L 101.175977 30.22948 
L 102.460547 32.543171 
L 102.603277 32.770301 
L 102.746007 41.176351 
L 103.031468 41.327896 
L 103.316928 33.821127 
L 103.459658 34.014836 
L 103.602388 44.99099 
L 103.745118 45.344785 
L 103.887848 26.651665 
L 104.458768 27.996689 
L 104.601498 30.738183 
L 104.886959 31.47245 
L 105.029689 29.263188 
L 105.172419 29.568182 
L 105.315149 32.537106 
L 105.600609 33.22324 
L 105.743339 30.74436 
L 106.028799 31.307515 
L 106.171529 37.083164 
L 106.314259 47.606351 
L 106.456989 39.98793 
L 107.59883 42.947522 
L 107.74156 50.271055 
L 107.88429 43.631237 
L 108.02702 43.965023 
L 108.16975 50.972189 
L 108.31248 44.616769 
L 108.597941 45.247823 
L 108.740671 51.841661 
L 108.883401 45.858664 
L 109.026131 50.568764 
L 109.311591 51.226608 
L 109.454321 58.258961 
L 109.597051 53.013521 
L 109.739781 58.707897 
L 109.882511 52.472019 
L 111.309812 55.184455 
L 112.594383 57.146731 
L 113.593493 58.363813 
L 113.736223 50.358629 
L 115.163524 53.201228 
L 116.448095 55.270684 
L 117.019015 56.043069 
L 117.161745 59.236642 
L 117.732666 59.058629 
L 117.875396 55.726403 
L 118.018126 58.940923 
L 118.160856 58.875036 
L 118.303586 55.852808 
L 118.731776 55.933661 
L 118.874506 58.477042 
L 120.016347 57.615128 
L 120.729997 56.947409 
L 120.872727 48.926998 
L 121.443648 49.079204 
L 121.586378 50.796001 
L 122.157298 51.582087 
L 122.300028 49.177262 
L 123.441869 49.092305 
L 123.584599 49.066458 
L 123.727329 54.017863 
L 123.870059 54.188354 
L 124.012789 52.112731 
L 124.155519 52.164024 
L 124.298249 50.990615 
L 124.440979 46.229636 
L 124.86917 46.060649 
L 125.0119 50.001211 
L 125.15463 50.07795 
L 125.29736 52.07688 
L 125.44009 52.190962 
L 125.58282 50.286152 
L 125.72555 50.348557 
L 125.86828 52.50934 
L 126.01101 60.209768 
L 126.15374 61.330052 
L 126.4392 61.803016 
L 126.581931 61.075204 
L 126.724661 62.259374 
L 126.867391 62.481548 
L 127.010121 61.686605 
L 127.581041 62.456486 
L 127.723771 66.045487 
L 128.009231 66.388497 
L 128.151961 67.048552 
L 128.294691 66.721436 
L 130.292913 68.846961 
L 132.005673 70.522086 
L 132.148404 71.290492 
L 132.291134 70.801058 
L 134.432085 73.030531 
L 134.574815 65.079715 
L 134.717545 65.391198 
L 134.860275 67.055403 
L 135.003005 66.015825 
L 135.145735 66.329258 
L 135.288465 67.892764 
L 135.431195 66.959079 
L 135.716656 67.593835 
L 135.859386 70.321238 
L 136.430306 71.607576 
L 136.573036 75.192383 
L 137.714877 77.614362 
L 137.857607 77.726817 
L 138.000337 85.245438 
L 138.143067 85.337562 
L 138.285797 78.411051 
L 139.855828 80.652151 
L 140.284018 81.196592 
L 140.426748 67.023756 
L 142.139509 72.195532 
L 142.424969 72.992351 
L 142.567699 72.348778 
L 143.42408 74.76844 
L 143.70954 76.380555 
L 143.85227 75.927255 
L 145.279571 79.586269 
L 145.422301 77.78019 
L 145.565031 78.270918 
L 145.707761 81.365432 
L 145.850491 80.980393 
L 146.849602 83.259113 
L 146.992332 85.357633 
L 147.135062 85.771091 
L 147.277792 83.719625 
L 148.990553 88.764528 
L 150.846044 93.530719 
L 152.844265 98.0258 
L 152.986995 98.326685 
L 153.129725 91.833568 
L 154.842486 96.732341 
L 154.985216 95.061918 
L 156.555247 97.483508 
L 158.125278 99.495092 
L 158.696198 100.122206 
L 158.838928 99.833439 
L 159.124388 100.102294 
L 159.267118 105.483424 
L 159.838039 106.316027 
L 159.980769 107.659491 
L 160.123499 106.714462 
L 160.694419 107.477391 
L 160.837149 108.80153 
L 161.26534 109.269079 
L 161.40807 107.275435 
L 161.5508 109.547017 
L 161.83626 106.650966 
L 161.97899 106.844138 
L 162.26445 109.362243 
L 162.54991 109.674376 
L 162.69264 107.749258 
L 162.83537 108.809771 
L 162.9781 111.054929 
L 163.120831 110.131537 
L 163.263561 108.316024 
L 163.406291 111.353881 
L 163.549021 110.439249 
L 164.119941 110.733018 
L 164.262671 111.825438 
L 164.405401 109.167109 
L 164.548131 109.256311 
L 164.690861 109.988736 
L 164.833591 110.056171 
L 164.976322 109.510662 
L 165.404512 109.7457 
L 165.547242 110.364924 
L 165.689972 109.891988 
L 165.832702 110.475553 
L 166.403622 110.571792 
L 166.546352 110.582672 
L 166.689082 110.139478 
L 166.831813 111.455241 
L 166.974543 111.138196 
L 167.117273 110.185254 
L 167.402733 110.208473 
L 167.688193 111.564129 
L 167.830923 111.272881 
L 167.973653 111.267161 
L 168.116383 111.526288 
L 168.259113 111.252431 
L 168.401843 111.496032 
L 168.544573 111.479392 
L 168.687304 111.222125 
L 168.830034 111.443106 
L 168.972764 111.408933 
L 169.115494 111.134093 
L 169.258224 113.877423 
L 169.400954 114.215799 
L 169.829144 114.159922 
L 169.971874 113.748843 
L 170.114604 114.119509 
L 170.257334 113.692983 
L 170.400065 113.664118 
L 170.542795 109.580715 
L 171.256445 110.630381 
L 171.399175 111.424273 
L 171.970095 111.966125 
L 172.112825 111.242082 
L 172.255556 109.673828 
L 172.398286 109.677835 
L 172.541016 109.912522 
L 172.683746 109.425185 
L 172.826476 109.661614 
L 173.111936 109.684267 
L 173.254666 109.517959 
L 173.397396 109.538629 
L 173.540126 109.677383 
L 173.825586 109.594613 
L 174.539237 109.668091 
L 174.681967 110.922805 
L 175.252887 111.034751 
L 175.395617 112.783715 
L 175.538347 112.847341 
L 175.681077 111.10902 
L 175.966538 111.15396 
L 176.109268 115.56093 
L 176.537458 115.584268 
L 176.680188 113.320107 
L 177.108378 113.329139 
L 177.393838 113.361481 
L 177.536568 115.614043 
L 177.822029 112.887601 
L 178.392949 112.969941 
L 178.535679 113.458646 
L 180.96209 113.493424 
L 182.674851 113.377629 
L 182.817581 115.336835 
L 182.960311 113.347102 
L 183.245772 113.313381 
L 183.388502 113.128421 
L 183.531232 113.276462 
L 183.816692 113.236349 
L 183.959422 113.085544 
L 184.102152 113.193042 
L 184.244882 113.059658 
L 184.387612 115.833566 
L 184.530342 112.782054 
L 184.673072 113.096849 
L 184.815802 115.225319 
L 184.958532 112.982144 
L 185.101263 115.196346 
L 185.243993 112.987847 
L 185.672183 112.89764 
L 185.814913 115.073848 
L 186.100373 115.042473 
L 186.385833 111.359675 
L 186.528563 114.990801 
L 187.527674 114.848673 
L 187.670404 113.276032 
L 188.812245 113.34262 
L 188.954975 111.69857 
L 190.239545 111.968996 
L 190.382275 113.357072 
L 190.667736 113.349544 
L 190.810466 112.068863 
L 193.094147 112.330472 
L 194.378718 112.372501 
L 194.521448 110.962461 
L 194.664178 110.93992 
L 194.806908 112.368573 
L 196.805129 112.21436 
L 198.80335 111.793142 
L 198.94608 112.630181 
L 199.08881 111.718166 
L 199.37427 111.639415 
L 199.517 112.64001 
L 199.659731 111.556866 
L 199.802461 111.514164 
L 199.945191 112.638637 
L 202.228872 112.504331 
L 203.798903 112.289183 
L 203.941633 111.992543 
L 204.369823 111.890545 
L 204.512553 112.159184 
L 205.511664 111.944477 
L 205.654394 111.539503 
L 206.082584 111.408085 
L 206.225314 111.768481 
L 206.653504 111.654116 
L 206.796234 111.139762 
L 206.938965 111.779503 
L 207.224425 110.962432 
L 207.367155 113.181263 
L 207.652615 112.929981 
L 207.795345 111.900781 
L 208.794456 110.982718 
L 208.937186 111.682264 
L 209.222646 111.377665 
L 209.365376 110.410723 
L 210.079026 109.510645 
L 211.078137 107.23292 
L 211.220867 109.348921 
L 211.649057 108.545144 
L 211.791787 107.322048 
L 212.790898 105.770439 
L 213.219088 104.969143 
L 213.504548 103.356746 
L 214.218199 101.756364 
L 214.360929 109.223122 
L 214.931849 108.717184 
L 215.502769 108.189603 
L 216.07369 107.346194 
L 216.35915 106.81161 
L 216.50188 102.979466 
L 216.93007 102.473997 
L 217.0728 100.734376 
L 217.35826 100.335534 
L 217.50099 95.032855 
L 217.64372 96.345916 
L 218.214641 95.907764 
L 218.357371 94.128001 
L 218.500101 95.682623 
L 219.499211 94.856142 
L 219.641941 93.84253 
L 219.927402 93.61012 
L 220.070132 94.352362 
L 220.498322 93.957109 
L 220.641052 91.86596 
L 220.926512 91.543529 
L 221.069242 93.404377 
L 221.497432 92.968842 
L 221.640163 90.334733 
L 221.925623 90.116979 
L 222.068353 88.097544 
L 222.782003 87.407963 
L 222.924733 89.279555 
L 224.494764 87.70419 
L 225.922065 85.95743 
L 227.063906 84.313347 
L 227.206636 87.435426 
L 228.633936 86.140226 
L 230.061237 84.518948 
L 231.488538 82.522207 
L 231.631268 82.29996 
L 231.773998 80.818041 
L 232.487649 79.741453 
L 232.630379 73.711957 
L 232.915839 73.350826 
L 233.058569 76.902851 
L 233.344029 76.340724 
L 233.486759 72.572099 
L 234.77133 70.531141 
L 234.91406 71.617281 
L 235.05679 71.317594 
L 235.19952 69.756981 
L 235.19952 69.756981 
" clip-path="url(#p0e69287415)" style="fill: none; stroke: #0c5da5; stroke-width: 1.8; stroke-linecap: square"/>
   </g>
   <g id="line2d_176">
    <path d="M 29.810937 114.848571 
L 30.524588 114.618699 
L 30.667318 114.025153 
L 31.523698 113.677932 
L 31.951889 113.291242 
L 33.236459 111.691302 
L 33.95011 110.266215 
L 34.09284 99.708143 
L 34.80649 99.303903 
L 35.23468 98.795953 
L 36.091061 97.139972 
L 37.232902 94.008804 
L 38.089282 90.936384 
L 39.088393 86.887459 
L 39.231123 92.042126 
L 40.230233 89.513174 
L 40.372963 86.176179 
L 40.515693 79.81393 
L 41.086614 79.315165 
L 41.372074 78.800618 
L 41.657534 77.131456 
L 41.800264 76.672945 
L 41.942994 81.747832 
L 42.228454 80.848207 
L 42.371184 73.067847 
L 42.799375 70.972549 
L 42.942105 66.370264 
L 43.084835 69.550893 
L 43.227565 64.912491 
L 43.513025 63.680012 
L 43.655755 73.219414 
L 43.798485 65.620436 
L 43.941215 68.262311 
L 44.083945 64.54226 
L 44.226675 64.668856 
L 45.511246 61.397861 
L 46.510357 60.21824 
L 47.081277 59.899924 
L 47.937657 59.557485 
L 48.508578 59.318717 
L 48.651308 57.613754 
L 49.079498 57.428766 
L 49.935879 56.958408 
L 51.648639 56.122612 
L 52.50502 55.315285 
L 52.64775 70.028514 
L 53.932321 71.98754 
L 54.503241 72.844317 
L 54.931431 73.198614 
L 55.216891 73.374904 
L 55.645082 73.341958 
L 56.073272 73.320129 
L 56.786922 73.044876 
L 57.643303 72.23625 
L 57.928763 71.787381 
L 58.071493 52.127376 
L 58.642413 52.935132 
L 59.356064 53.372425 
L 60.212444 53.797148 
L 60.640634 53.640618 
L 60.783364 51.085842 
L 61.782475 50.805514 
L 62.210665 50.543159 
L 62.638855 49.948002 
L 63.780696 47.525774 
L 64.066156 46.716605 
L 64.208886 48.534763 
L 64.494346 47.841112 
L 64.637077 43.917952 
L 64.779807 47.016857 
L 64.922537 43.20271 
L 65.065267 53.948331 
L 65.350727 53.892279 
L 65.636187 53.706279 
L 65.778917 53.685179 
L 65.921647 58.085158 
L 66.064377 73.953675 
L 66.207107 65.1722 
L 66.492568 65.248233 
L 66.635298 67.169869 
L 66.778028 74.096595 
L 66.920758 48.724516 
L 67.634408 51.060702 
L 68.490789 53.380694 
L 68.633519 46.843416 
L 69.061709 46.932658 
L 69.347169 46.764394 
L 69.918089 46.010424 
L 70.06082 44.168997 
L 70.34628 43.88621 
L 70.48901 51.852705 
L 71.20266 52.473907 
L 72.059041 52.669957 
L 72.629961 52.404737 
L 73.486341 51.480615 
L 74.057262 50.527204 
L 74.770912 48.937364 
L 75.341832 47.060735 
L 75.912753 44.361802 
L 76.340943 41.742693 
L 76.483673 64.711123 
L 76.626403 62.33951 
L 77.910974 62.091738 
L 78.767354 61.749813 
L 79.338275 61.688855 
L 79.481005 64.719369 
L 80.480115 63.367585 
L 81.479226 61.517369 
L 81.764686 60.836989 
L 81.907416 65.421487 
L 82.192876 64.563767 
L 82.335606 62.916603 
L 82.478336 63.640679 
L 82.621066 61.87191 
L 82.763797 62.710899 
L 82.906527 61.516657 
L 83.334717 60.664588 
L 84.048367 58.386399 
L 84.762018 55.285301 
L 84.904748 49.745594 
L 85.618398 45.72489 
L 86.332048 40.961859 
L 86.617509 35.688491 
L 86.760239 61.788496 
L 87.331159 61.217535 
L 87.473889 35.08476 
L 87.902079 32.029755 
L 88.044809 60.141756 
L 89.18665 58.199026 
L 89.47211 57.577287 
L 89.61484 73.672754 
L 89.75757 73.645233 
L 89.9003 35.588782 
L 90.04303 73.386926 
L 90.756681 72.651579 
L 90.899411 41.673059 
L 91.613061 47.733569 
L 92.326712 52.037846 
L 92.897632 54.386591 
L 93.468552 55.90995 
L 93.754013 56.448049 
L 93.896743 33.509384 
L 94.753123 39.63933 
L 95.181313 41.876021 
L 95.324043 41.105343 
L 96.180424 44.556766 
L 96.751344 46.009723 
L 96.894074 42.316316 
L 97.036804 46.52358 
L 97.750455 47.471814 
L 98.178645 47.92365 
L 98.321375 47.238743 
L 98.464105 48.185117 
L 98.892295 48.447777 
L 99.605946 48.741778 
L 99.748676 50.541402 
L 99.891406 48.777821 
L 100.034136 48.815006 
L 100.176866 57.737304 
L 100.747786 58.345772 
L 101.033247 58.464076 
L 101.175977 54.347269 
L 101.604167 54.090476 
L 102.032357 53.494709 
L 102.175087 53.217907 
L 102.317817 85.919584 
L 103.031468 89.254499 
L 103.174198 91.433386 
L 103.316928 90.473311 
L 103.745118 92.284568 
L 103.887848 83.17523 
L 104.030578 83.721259 
L 104.173308 75.907111 
L 104.458768 77.416996 
L 104.601498 76.755325 
L 104.744229 77.633602 
L 104.886959 77.382241 
L 106.028799 83.77518 
L 106.314259 94.199834 
L 106.456989 90.680366 
L 107.17064 93.319618 
L 107.59883 94.912578 
L 107.74156 98.792793 
L 107.88429 94.484379 
L 108.02702 95.264716 
L 108.16975 100.036961 
L 108.31248 95.480644 
L 108.597941 95.989041 
L 108.740671 101.620708 
L 108.883401 96.638826 
L 109.026131 100.118679 
L 109.311591 100.956527 
L 109.454321 106.957 
L 109.597051 107.790654 
L 109.739781 107.536597 
L 109.882511 103.874293 
L 110.596162 105.381935 
L 111.880732 107.646564 
L 112.737113 108.772083 
L 113.593493 109.690089 
L 113.736223 114.015505 
L 114.592604 114.949134 
L 115.163524 115.321733 
L 115.734445 115.500391 
L 116.162635 115.479076 
L 116.733555 115.191502 
L 117.019015 114.954181 
L 117.161745 112.440004 
L 117.589936 111.919246 
L 118.160856 110.86963 
L 118.731776 109.307129 
L 118.874506 104.921123 
L 119.445427 101.780934 
L 120.301807 95.570649 
L 120.587267 93.37736 
L 120.729997 122.664245 
L 121.158188 122.794233 
L 121.443648 122.84552 
L 121.586378 135.95656 
L 122.157298 136.581989 
L 122.442758 115.97995 
L 122.870948 115.656208 
L 123.013679 79.17372 
L 123.584599 84.622151 
L 123.727329 93.208944 
L 124.298249 99.829556 
L 124.440979 90.385545 
L 124.86917 95.613345 
L 125.0119 107.406168 
L 125.15463 71.31388 
L 125.86828 76.494321 
L 126.01101 113.993637 
L 126.724661 117.336731 
L 127.438311 119.824699 
L 127.581041 120.192132 
L 127.723771 122.614371 
L 128.437422 123.629096 
L 129.008342 124.130462 
L 129.721992 124.350137 
L 130.150182 124.373294 
L 130.721103 124.20975 
L 131.720213 123.601763 
L 132.576594 122.709423 
L 133.290244 121.705945 
L 135.716656 117.251062 
L 136.430306 115.298141 
L 136.573036 111.002042 
L 137.143956 108.954431 
L 137.714877 106.478638 
L 137.857607 106.656708 
L 138.428527 104.472022 
L 139.284907 100.490832 
L 139.570368 98.947017 
L 139.713098 91.211953 
L 140.284018 88.686919 
L 140.426748 61.933077 
L 140.569478 60.481143 
L 140.712208 83.03005 
L 141.711319 77.552845 
L 141.854049 97.617276 
L 142.282239 97.86376 
L 142.710429 98.295734 
L 143.70954 99.994044 
L 143.85227 92.43466 
L 144.70865 96.361205 
L 144.851381 93.773562 
L 145.136841 94.934796 
L 145.279571 91.196902 
L 145.565031 92.450011 
L 145.707761 101.866422 
L 145.850491 95.745497 
L 147.135062 100.944742 
L 147.277792 106.330937 
L 147.420522 106.809649 
L 147.563252 89.1609 
L 148.419632 95.041441 
L 149.133283 98.775645 
L 149.561473 100.495218 
L 149.704203 87.104489 
L 150.417854 90.923096 
L 151.559694 95.529739 
L 152.701535 99.276197 
L 152.986995 99.925964 
L 153.129725 99.957158 
L 153.557915 100.513022 
L 154.842486 100.816671 
L 154.985216 114.90559 
L 155.413406 115.322162 
L 155.556136 95.81971 
L 156.127057 97.61826 
L 156.269787 98.15867 
L 156.412517 97.183199 
L 156.555247 97.761931 
L 156.697977 95.379822 
L 158.696198 104.430586 
L 158.838928 118.448486 
L 159.124388 118.709501 
L 159.267118 96.972268 
L 160.266229 102.961781 
L 161.122609 106.601018 
L 161.97899 109.412428 
L 162.40718 110.244059 
L 162.83537 110.578178 
L 162.9781 112.911742 
L 163.120831 110.658473 
L 163.263561 110.610616 
L 163.406291 113.585667 
L 164.119941 114.24562 
L 164.262671 114.288661 
L 164.405401 105.313131 
L 165.547242 103.181372 
L 166.689082 100.422549 
L 166.831813 96.60458 
L 168.687304 90.627654 
L 169.115494 89.125235 
L 169.258224 114.194717 
L 169.686414 112.911792 
L 170.114604 111.831808 
L 170.400065 110.710455 
L 170.542795 99.370389 
L 170.685525 98.780082 
L 170.828255 114.973652 
L 170.970985 97.252986 
L 171.113715 96.849933 
L 171.256445 97.192757 
L 171.399175 96.029788 
L 171.541905 114.302265 
L 171.684635 115.551344 
L 171.970095 115.68452 
L 172.112825 115.749395 
L 172.255556 107.861051 
L 172.398286 107.426041 
L 172.541016 85.829732 
L 172.683746 95.574843 
L 172.826476 113.63545 
L 172.969206 113.27805 
L 173.111936 105.497402 
L 173.254666 112.637054 
L 173.397396 112.3373 
L 173.540126 83.893321 
L 173.682856 133.566662 
L 174.253777 133.70389 
L 174.396507 132.76887 
L 174.539237 133.790288 
L 174.681967 133.866117 
L 174.824697 106.527009 
L 175.110157 107.129299 
L 175.395617 108.511701 
L 175.538347 108.913312 
L 175.966538 108.357262 
L 176.109268 125.057127 
L 176.537458 126.128888 
L 176.680188 133.641976 
L 176.822918 126.870023 
L 177.964759 130.219413 
L 178.392949 132.150093 
L 178.535679 119.436647 
L 178.678409 119.047786 
L 178.821139 119.254609 
L 179.392059 121.953553 
L 180.39117 125.783645 
L 180.96209 126.932083 
L 181.818471 128.715678 
L 182.674851 130.08955 
L 182.817581 138.096735 
L 182.960311 130.520298 
L 183.245772 130.831188 
L 183.388502 131.751647 
L 183.531232 131.059872 
L 183.816692 131.251898 
L 183.959422 132.524405 
L 184.102152 131.268899 
L 184.244882 132.94386 
L 184.387612 144.701245 
L 184.530342 144.815836 
L 184.673072 142.905249 
L 184.815802 145.0394 
L 184.958532 143.007654 
L 185.101263 145.210834 
L 185.243993 143.028584 
L 185.672183 143.105419 
L 185.814913 142.133526 
L 186.243103 142.0686 
L 186.385833 143.037164 
L 186.528563 142.000706 
L 186.814023 141.772779 
L 187.242214 141.517303 
L 187.527674 141.341697 
L 187.813134 141.040744 
L 188.812245 140.392107 
L 188.954975 126.747677 
L 189.383165 126.039511 
L 190.239545 124.21261 
L 190.382275 139.038034 
L 190.667736 138.700241 
L 190.810466 123.888563 
L 191.524116 123.206973 
L 194.378718 119.452879 
L 194.521448 115.053212 
L 194.664178 115.079664 
L 194.806908 119.340334 
L 195.092368 119.293546 
L 195.806018 119.39464 
L 195.948749 114.357611 
L 196.234209 114.485394 
L 196.805129 114.258263 
L 197.233319 114.414403 
L 197.518779 114.555452 
L 198.0897 113.960883 
L 198.80335 113.143772 
L 198.94608 116.687517 
L 199.659731 114.874825 
L 199.802461 114.278724 
L 199.945191 118.645485 
L 200.516111 116.765844 
L 200.944301 115.107195 
L 201.087031 115.192237 
L 201.229761 114.96995 
L 201.800682 112.876461 
L 201.943412 112.970857 
L 202.657062 111.008989 
L 203.513443 108.340656 
L 203.656173 107.988557 
L 203.798903 107.966378 
L 203.941633 99.369366 
L 204.084363 99.163522 
L 204.798013 97.042761 
L 205.083474 97.194848 
L 205.368934 98.072933 
L 205.511664 98.359654 
L 205.654394 109.86769 
L 206.225314 108.96582 
L 207.652615 106.232466 
L 207.938075 105.131653 
L 208.080805 104.934055 
L 208.794456 102.763606 
L 209.222646 100.905178 
L 209.365376 104.567662 
L 210.221756 102.201904 
L 210.507216 101.419402 
L 211.078137 99.875355 
L 211.649057 99.232234 
L 211.791787 99.056578 
L 211.934517 86.851754 
L 212.219977 86.436046 
L 212.505438 86.085129 
L 212.648168 86.166785 
L 213.219088 88.087737 
L 213.504548 90.926962 
L 213.647278 91.793534 
L 213.790008 90.367085 
L 213.932738 103.364952 
L 214.075468 103.65234 
L 214.218199 103.663916 
L 214.360929 116.00595 
L 214.503659 115.905563 
L 214.646389 116.024642 
L 214.789119 115.18048 
L 215.217309 115.878998 
L 215.645499 116.526347 
L 215.788229 111.559234 
L 216.21642 112.766991 
L 216.35915 113.087709 
L 216.50188 106.329292 
L 216.78734 106.936788 
L 216.93007 104.756188 
L 217.0728 104.888708 
L 217.35826 105.713793 
L 217.50099 99.742677 
L 217.64372 100.957375 
L 217.929181 100.959099 
L 218.071911 101.065014 
L 218.214641 101.322468 
L 218.357371 99.714027 
L 218.642831 103.172187 
L 218.928291 104.293969 
L 219.213751 104.559003 
L 219.499211 104.489662 
L 219.641941 105.101239 
L 219.927402 104.531285 
L 220.355592 106.017114 
L 220.498322 106.33222 
L 220.641052 108.000438 
L 220.926512 108.423398 
L 221.069242 108.471299 
L 221.354702 108.274854 
L 221.640163 108.207464 
L 222.211083 107.477532 
L 222.353813 107.538456 
L 222.496543 105.349797 
L 222.782003 104.791418 
L 222.924733 103.183734 
L 223.067463 103.351376 
L 223.352924 104.436747 
L 223.638384 105.623325 
L 223.781114 105.70523 
L 224.494764 107.991813 
L 224.922954 109.616012 
L 225.208415 109.884742 
L 225.922065 107.770708 
L 226.064795 107.522839 
L 226.350255 107.530063 
L 226.492985 107.489322 
L 226.635715 107.281013 
L 226.778445 107.276011 
L 227.063906 106.928412 
L 227.206636 104.428761 
L 227.634826 103.487666 
L 230.489427 95.289727 
L 231.060348 92.987488 
L 231.631268 91.076201 
L 231.916728 89.536314 
L 232.487649 87.92369 
L 232.630379 84.480576 
L 233.344029 81.489457 
L 233.629489 78.290424 
L 233.914949 76.514861 
L 234.200409 74.609208 
L 235.05679 71.548545 
L 235.19952 71.096901 
L 235.19952 71.096901 
" clip-path="url(#p0e69287415)" style="fill: none; stroke-dasharray: 6.66,2.88; stroke-dashoffset: 0; stroke: #00b945; stroke-width: 1.8"/>
   </g>
   <g id="patch_3">
    <path d="M 29.810938 151.954207 
L 29.810938 3.6 
" style="fill: none; stroke: #444444; stroke-linejoin: miter; stroke-linecap: square"/>
   </g>
   <g id="patch_4">
    <path d="M 235.19952 151.954207 
L 235.19952 3.6 
" style="fill: none; stroke: #444444; stroke-linejoin: miter; stroke-linecap: square"/>
   </g>
   <g id="patch_5">
    <path d="M 29.810937 151.954207 
L 235.19952 151.954207 
" style="fill: none; stroke: #444444; stroke-linejoin: miter; stroke-linecap: square"/>
   </g>
   <g id="patch_6">
    <path d="M 29.810937 3.6 
L 235.19952 3.6 
" style="fill: none; stroke: #444444; stroke-linejoin: miter; stroke-linecap: square"/>
   </g>
   <g id="legend_1">
    <g id="patch_7">
     <path d="M 106.19952 40.115625 
L 228.19952 40.115625 
Q 230.19952 40.115625 230.19952 38.115625 
L 230.19952 10.6 
Q 230.19952 8.6 228.19952 8.6 
L 106.19952 8.6 
Q 104.19952 8.6 104.19952 10.6 
L 104.19952 38.115625 
Q 104.19952 40.115625 106.19952 40.115625 
z
" style="fill: #ffffff; stroke: #c8c8c8; stroke-linejoin: miter"/>
    </g>
    <g id="line2d_177">
     <path d="M 108.19952 17.06875 
L 118.19952 17.06875 
L 128.19952 17.06875 
" style="fill: none; stroke: #0c5da5; stroke-width: 1.8; stroke-linecap: square"/>
    </g>
    <g id="text_16">
     <!-- 广播模型电离层延迟 -->
     <g transform="translate(136.19952 20.56875) scale(0.1 -0.1)">
      <defs>
       <path id="SimSun-5e7f" d="M 1000 4450 
L 1425 4200 
L 5100 4200 
L 5475 4575 
L 6000 4050 
L 1400 4050 
Q 1425 2025 1250 1187 
Q 1075 350 325 -600 
L 250 -550 
Q 1025 700 1037 2362 
Q 1050 4025 1000 4450 
z
M 3000 5250 
Q 3525 4950 3612 4837 
Q 3700 4725 3700 4600 
Q 3700 4525 3662 4437 
Q 3625 4350 3500 4275 
Q 3375 4200 3300 4500 
Q 3225 4775 2925 5175 
L 3000 5250 
z
" transform="scale(0.015625)"/>
       <path id="SimSun-64ad" d="M 5425 1600 
Q 5425 50 5450 -400 
L 5100 -525 
L 5100 -175 
L 3100 -175 
L 3100 -500 
L 2750 -625 
Q 2775 25 2775 2000 
Q 2425 1750 2025 1600 
L 2000 1675 
Q 2575 2025 2950 2412 
Q 3325 2800 3625 3250 
L 2700 3250 
L 2475 3200 
L 2275 3400 
L 3950 3400 
L 3950 4575 
Q 3400 4525 2575 4475 
L 2550 4575 
Q 3525 4700 4150 4850 
Q 4775 5000 5175 5200 
L 5500 4775 
Q 5275 4775 4275 4625 
L 4275 3400 
L 4500 3400 
Q 4625 3600 4775 3962 
Q 4925 4325 4975 4575 
L 5475 4250 
L 5250 4150 
Q 4900 3700 4650 3400 
L 5350 3400 
L 5650 3700 
L 6100 3250 
L 4425 3250 
Q 4725 2875 5175 2612 
Q 5625 2350 6125 2325 
L 6125 2250 
Q 5700 2175 5650 1975 
Q 5250 2150 4912 2462 
Q 4575 2775 4275 3250 
Q 4275 2450 4300 2125 
L 3925 1950 
Q 3950 2500 3950 3150 
Q 3725 2825 3375 2487 
Q 3025 2150 2800 2025 
L 3100 1850 
L 5050 1850 
L 5275 2075 
L 5625 1750 
L 5425 1600 
z
M 3100 1700 
L 3100 925 
L 3950 925 
L 3950 1700 
L 3100 1700 
z
M 4275 1700 
L 4275 925 
L 5100 925 
L 5100 1700 
L 4275 1700 
z
M 3100 775 
L 3100 -25 
L 3950 -25 
L 3950 775 
L 3100 775 
z
M 4275 775 
L 4275 -25 
L 5100 -25 
L 5100 775 
L 4275 775 
z
M 2925 4425 
Q 3375 4150 3450 4025 
Q 3525 3900 3525 3850 
Q 3525 3750 3437 3625 
Q 3350 3500 3325 3500 
Q 3250 3500 3200 3700 
Q 3100 3975 2875 4375 
L 2925 4425 
z
M 1725 2350 
L 2425 2825 
L 2475 2725 
L 1725 2075 
L 1725 -75 
Q 1725 -450 1225 -650 
Q 1200 -375 525 -100 
L 525 0 
Q 1175 -150 1287 -112 
Q 1400 -75 1400 125 
L 1400 1875 
Q 825 1425 575 1150 
L 275 1525 
Q 725 1725 1400 2175 
L 1400 3600 
L 775 3600 
L 550 3525 
L 325 3750 
L 1400 3750 
Q 1400 4825 1375 5200 
L 1925 4950 
L 1725 4775 
L 1725 3750 
L 2025 3750 
L 2275 4000 
L 2650 3600 
L 1725 3600 
L 1725 2350 
z
" transform="scale(0.015625)"/>
       <path id="SimSun-6a21" d="M 1275 -625 
Q 1300 225 1300 2575 
Q 950 1675 275 925 
L 225 975 
Q 1000 2200 1250 3625 
L 675 3625 
L 450 3575 
L 250 3775 
L 1300 3775 
Q 1300 4900 1275 5250 
L 1875 5000 
L 1625 4825 
L 1625 3775 
L 1900 3775 
L 2200 4075 
L 2650 3625 
L 1625 3625 
L 1625 3000 
Q 2200 2725 2337 2562 
Q 2475 2400 2475 2250 
Q 2475 2150 2412 2012 
Q 2350 1875 2300 1875 
Q 2225 1875 2125 2150 
Q 1950 2550 1625 2850 
Q 1625 250 1650 -475 
L 1275 -625 
z
M 4475 4400 
Q 4475 4825 4450 5275 
L 5025 5000 
L 4800 4825 
L 4800 4400 
L 5300 4400 
L 5600 4700 
L 6050 4250 
L 4800 4250 
Q 4800 3975 4825 3775 
L 4475 3650 
L 4475 4250 
L 3625 4250 
L 3625 3775 
L 3275 3600 
Q 3300 3900 3300 4250 
L 2675 4250 
L 2450 4200 
L 2250 4400 
L 3300 4400 
Q 3300 4750 3275 5250 
L 3825 5000 
L 3625 4850 
L 3625 4400 
L 4475 4400 
z
M 2825 1500 
Q 2850 2175 2850 2625 
Q 2850 3075 2825 3675 
L 3175 3475 
L 5000 3475 
L 5200 3700 
L 5550 3400 
L 5350 3250 
Q 5350 1975 5375 1700 
L 5025 1550 
L 5025 1850 
L 4150 1850 
Q 4125 1525 4075 1125 
L 5325 1125 
L 5650 1450 
L 6125 975 
L 4275 975 
Q 4550 550 4987 237 
Q 5425 -75 6100 -125 
L 6100 -225 
Q 5775 -275 5625 -550 
Q 4650 -175 4150 975 
L 4050 975 
Q 3650 -425 1875 -650 
L 1850 -575 
Q 2675 -375 3100 37 
Q 3525 450 3700 975 
L 2850 975 
Q 2525 975 2250 900 
L 2025 1125 
L 3725 1125 
Q 3775 1375 3800 1850 
L 3175 1850 
L 3175 1650 
L 2825 1500 
z
M 3175 3325 
L 3175 2750 
L 5025 2750 
L 5025 3325 
L 3175 3325 
z
M 3175 2600 
L 3175 2000 
L 5025 2000 
L 5025 2600 
L 3175 2600 
z
" transform="scale(0.015625)"/>
       <path id="SimSun-578b" d="M 2575 1675 
Q 2600 2250 2600 2600 
L 2600 3400 
L 1875 3400 
Q 1825 2075 500 1350 
L 450 1425 
Q 1475 2200 1550 3400 
L 1300 3400 
Q 975 3400 700 3325 
L 475 3550 
L 1550 3550 
L 1550 4600 
L 1225 4600 
L 925 4550 
L 725 4750 
L 3000 4750 
L 3300 5050 
L 3750 4600 
L 2925 4600 
L 2925 3550 
L 3200 3550 
L 3525 3875 
L 4000 3400 
L 2925 3400 
L 2925 2600 
Q 2925 2100 2950 1875 
L 2575 1675 
z
M 1875 4600 
L 1875 3550 
L 2600 3550 
L 2600 4600 
L 1875 4600 
z
M 4175 2525 
Q 4200 3100 4200 3650 
Q 4200 4200 4175 4600 
L 4700 4400 
L 4525 4225 
L 4525 2650 
L 4175 2525 
z
M 5200 5225 
L 5725 4975 
L 5550 4800 
L 5550 2225 
Q 5600 1750 5025 1525 
Q 5000 1825 4250 2000 
L 4250 2125 
Q 4900 2050 5062 2062 
Q 5225 2075 5225 2375 
L 5225 4450 
Q 5225 4775 5200 5225 
z
M 3025 1025 
Q 3025 1400 3000 1850 
L 3600 1600 
L 3375 1425 
L 3375 1025 
L 4550 1025 
L 4900 1375 
L 5400 875 
L 3375 875 
L 3375 -150 
L 5025 -150 
L 5425 250 
L 5975 -300 
L 1275 -300 
Q 950 -300 675 -375 
L 450 -150 
L 3025 -150 
L 3025 875 
L 2000 875 
Q 1675 875 1400 800 
L 1175 1025 
L 3025 1025 
z
" transform="scale(0.015625)"/>
       <path id="SimSun-7535" d="M 2875 3900 
Q 2875 4625 2850 5225 
L 3425 4950 
L 3225 4775 
L 3225 3900 
L 4750 3900 
L 5000 4150 
L 5350 3800 
L 5125 3625 
Q 5125 1625 5150 1125 
L 4775 950 
L 4775 1250 
L 3225 1250 
L 3225 125 
Q 3225 -150 3525 -150 
L 5250 -150 
Q 5475 -125 5500 112 
Q 5525 350 5550 1075 
L 5675 1075 
Q 5675 450 5762 250 
Q 5850 50 6025 -75 
Q 5925 -275 5775 -362 
Q 5625 -450 5350 -450 
L 3400 -450 
Q 2875 -450 2875 50 
L 2875 1250 
L 1375 1250 
L 1375 900 
L 1000 725 
Q 1025 1575 1025 2475 
Q 1025 3375 1000 4125 
L 1400 3900 
L 2875 3900 
z
M 1375 3750 
L 1375 2675 
L 2875 2675 
L 2875 3750 
L 1375 3750 
z
M 3225 3750 
L 3225 2675 
L 4775 2675 
L 4775 3750 
L 3225 3750 
z
M 1375 2525 
L 1375 1400 
L 2875 1400 
L 2875 2525 
L 1375 2525 
z
M 3225 2525 
L 3225 1400 
L 4775 1400 
L 4775 2525 
L 3225 2525 
z
" transform="scale(0.015625)"/>
       <path id="SimSun-79bb" d="M 2625 5200 
L 2650 5275 
Q 3225 5150 3375 5012 
Q 3525 4875 3525 4775 
Q 3525 4650 3375 4475 
L 5200 4475 
L 5550 4800 
L 6025 4325 
L 1175 4325 
Q 850 4325 575 4250 
L 350 4475 
L 3200 4475 
Q 3125 4700 3000 4862 
Q 2875 5025 2625 5200 
z
M 2200 725 
L 4025 750 
Q 3775 1075 3475 1300 
L 3525 1375 
Q 4275 1050 4425 875 
Q 4575 700 4575 550 
Q 4575 450 4525 325 
Q 4475 200 4425 200 
Q 4375 200 4350 275 
Q 4250 425 4125 625 
Q 3000 550 2600 487 
Q 2200 425 2000 275 
L 1750 775 
Q 1950 775 2187 987 
Q 2425 1200 2725 1675 
L 1225 1675 
Q 1225 -200 1250 -475 
L 875 -625 
Q 900 200 900 737 
Q 900 1275 875 2050 
L 1225 1825 
L 2800 1825 
Q 3000 2150 3100 2400 
L 1775 2400 
L 1625 2200 
L 1275 2475 
L 1425 2625 
Q 1425 3250 1400 4125 
L 1950 3900 
L 1750 3700 
L 1750 2550 
L 4600 2550 
Q 4600 3100 4575 4100 
L 5150 3850 
L 4925 3675 
Q 4950 2500 4950 2275 
L 4600 2125 
L 4600 2400 
L 3175 2400 
L 3575 2175 
Q 3275 2000 3150 1825 
L 5125 1825 
L 5300 2075 
L 5700 1750 
L 5500 1600 
L 5500 125 
Q 5550 -425 4950 -600 
Q 4950 -275 4175 -100 
L 4175 0 
Q 4900 -50 5037 -50 
Q 5175 -50 5175 75 
L 5175 1675 
L 3075 1675 
Q 2625 1100 2200 725 
z
M 3275 3650 
Q 3625 3925 3825 4200 
L 4150 3850 
Q 3925 3800 3500 3525 
Q 4025 3300 4125 3175 
Q 4225 3050 4225 2900 
Q 4225 2825 4187 2725 
Q 4150 2625 4125 2625 
Q 4050 2625 3950 2800 
Q 3750 3050 3300 3325 
Q 2675 2950 1975 2700 
L 1950 2775 
Q 2600 3100 3100 3475 
Q 2725 3700 2150 3975 
L 2175 4050 
Q 2750 3875 3275 3650 
z
" transform="scale(0.015625)"/>
       <path id="SimSun-5c42" d="M 2075 2775 
L 4775 2775 
L 5075 3075 
L 5525 2625 
L 2900 2625 
Q 2525 2625 2300 2550 
L 2075 2775 
z
M 4350 850 
Q 4825 575 5162 300 
Q 5500 25 5525 -175 
Q 5550 -375 5450 -487 
Q 5350 -600 5325 -600 
Q 5250 -600 5225 -525 
Q 5125 -350 4975 -75 
Q 3800 -175 3087 -275 
Q 2375 -375 2150 -525 
L 1900 -50 
Q 2225 -25 2700 575 
Q 3175 1175 3350 1625 
L 2400 1625 
Q 2075 1625 1800 1550 
L 1575 1775 
L 5225 1775 
L 5550 2100 
L 6025 1625 
L 3425 1625 
L 3900 1300 
Q 3675 1225 3275 825 
Q 2875 400 2350 -50 
L 4925 25 
Q 4700 375 4275 775 
L 4350 850 
z
M 1550 4675 
L 1550 3825 
L 5050 3825 
L 5050 4675 
L 1550 4675 
z
M 250 -575 
Q 725 150 925 925 
Q 1125 1700 1150 2462 
Q 1175 3225 1175 3862 
Q 1175 4500 1150 5025 
L 1550 4825 
L 5025 4825 
L 5275 5075 
L 5625 4725 
L 5425 4575 
Q 5425 4300 5425 4012 
Q 5425 3725 5450 3525 
L 5050 3375 
L 5050 3675 
L 1550 3675 
Q 1550 2925 1475 2150 
Q 1400 1375 1162 700 
Q 925 25 325 -650 
L 250 -575 
z
" transform="scale(0.015625)"/>
      </defs>
      <use xlink:href="#SimSun-5e7f"/>
      <use xlink:href="#SimSun-64ad" transform="translate(100 0)"/>
      <use xlink:href="#SimSun-6a21" transform="translate(200 0)"/>
      <use xlink:href="#SimSun-578b" transform="translate(300 0)"/>
      <use xlink:href="#SimSun-7535" transform="translate(400 0)"/>
      <use xlink:href="#SimSun-79bb" transform="translate(500 0)"/>
      <use xlink:href="#SimSun-5c42" transform="translate(600 0)"/>
      <use xlink:href="#SimSun-5ef6" transform="translate(700 0)"/>
      <use xlink:href="#SimSun-8fdf" transform="translate(800 0)"/>
     </g>
    </g>
    <g id="line2d_178">
     <path d="M 108.19952 31.326562 
L 118.19952 31.326562 
L 128.19952 31.326562 
" style="fill: none; stroke-dasharray: 6.66,2.88; stroke-dashoffset: 0; stroke: #00b945; stroke-width: 1.8"/>
    </g>
    <g id="text_17">
     <!-- 双频平滑电离层延迟 -->
     <g transform="translate(136.19952 34.826562) scale(0.1 -0.1)">
      <defs>
       <path id="SimSun-53cc" d="M 500 4375 
L 2625 4375 
L 2800 4625 
L 3225 4300 
L 3000 4125 
Q 2650 2850 2300 2100 
Q 2725 1600 2875 1312 
Q 3025 1025 3025 825 
Q 3025 675 2962 537 
Q 2900 400 2875 400 
Q 2800 400 2700 700 
Q 2525 1150 2100 1800 
Q 1375 650 300 -50 
L 250 25 
Q 1325 1000 1875 2050 
Q 1550 2600 825 3500 
L 900 3550 
Q 1500 2975 2050 2350 
Q 2450 3325 2650 4225 
L 1325 4225 
Q 1000 4225 725 4150 
L 500 4375 
z
M 3200 4400 
L 5125 4400 
L 5325 4675 
L 5725 4350 
L 5500 4175 
Q 5200 2275 4675 1275 
Q 5275 325 6025 75 
L 6025 -25 
Q 5600 -75 5500 -300 
Q 4875 275 4450 1000 
Q 3650 50 2425 -475 
L 2375 -400 
Q 3725 450 4275 1325 
Q 3725 2650 3625 4250 
L 3425 4175 
L 3200 4400 
z
M 3750 4250 
Q 3925 2700 4475 1625 
Q 4875 2525 5150 4250 
L 3750 4250 
z
" transform="scale(0.015625)"/>
       <path id="SimSun-9891" d="M 2800 2050 
L 3225 1675 
L 3000 1550 
Q 2400 625 1862 200 
Q 1325 -225 400 -575 
L 375 -500 
Q 1475 100 2000 712 
Q 2525 1325 2800 2050 
z
M 1800 2950 
L 1800 4375 
Q 1800 4700 1775 5250 
L 2300 5025 
L 2100 4850 
L 2100 4075 
L 2500 4075 
L 2775 4350 
L 3150 3925 
L 2100 3925 
L 2100 2950 
L 2575 2950 
L 2875 3225 
L 3275 2800 
L 1800 2800 
L 2250 2550 
L 2075 2425 
L 2075 1150 
L 1750 950 
L 1750 2800 
L 1150 2800 
Q 825 2800 550 2725 
L 325 2950 
L 1000 2950 
L 1000 3900 
Q 1000 4200 975 4500 
L 1500 4275 
L 1300 4100 
L 1300 2950 
L 1800 2950 
z
M 1100 2325 
L 1550 2025 
Q 1375 1975 1100 1500 
Q 800 1000 325 575 
L 275 650 
Q 825 1400 1100 2325 
z
M 3375 800 
Q 3400 1450 3400 2312 
Q 3400 3175 3375 3925 
L 3725 3725 
L 4200 3725 
Q 4300 4425 4325 4700 
L 3775 4700 
Q 3450 4700 3175 4625 
L 2950 4850 
L 5400 4850 
L 5725 5150 
L 6150 4700 
L 4800 4700 
Q 4625 4500 4325 3725 
L 5425 3725 
L 5625 3950 
L 6000 3650 
L 5800 3500 
L 5800 1975 
Q 5800 1550 5825 1100 
L 5475 900 
L 5475 3575 
L 3725 3575 
L 3725 1025 
L 3375 800 
z
M 5000 2875 
L 4775 2700 
Q 4775 1500 4612 987 
Q 4450 475 3987 100 
Q 3525 -275 2575 -575 
L 2550 -500 
Q 3550 -50 3937 400 
Q 4325 850 4387 1587 
Q 4450 2325 4425 3150 
L 5000 2875 
z
M 4725 875 
Q 5700 425 5862 250 
Q 6025 75 6025 -100 
Q 6025 -225 5975 -362 
Q 5925 -500 5875 -500 
Q 5825 -500 5775 -400 
Q 5650 -175 5437 87 
Q 5225 350 4675 800 
L 4725 875 
z
" transform="scale(0.015625)"/>
       <path id="SimSun-5e73" d="M 3375 750 
Q 3375 200 3400 -350 
L 2975 -525 
Q 3000 250 3000 875 
L 3000 2325 
L 1050 2325 
Q 725 2325 450 2250 
L 225 2475 
L 3000 2475 
L 3000 4575 
L 1600 4575 
Q 1275 4575 1000 4500 
L 775 4725 
L 4850 4725 
L 5200 5075 
L 5700 4575 
L 3375 4575 
L 3375 2475 
L 5200 2475 
L 5575 2850 
L 6100 2325 
L 3375 2325 
L 3375 750 
z
M 4750 4325 
L 5275 3925 
Q 5075 3925 4725 3475 
Q 4350 3025 3925 2625 
L 3850 2675 
Q 4500 3550 4750 4325 
z
M 1300 4200 
Q 2025 3675 2150 3487 
Q 2275 3300 2275 3150 
Q 2275 3075 2237 2962 
Q 2200 2850 2062 2750 
Q 1925 2650 1800 3100 
Q 1675 3525 1225 4150 
L 1300 4200 
z
" transform="scale(0.015625)"/>
       <path id="SimSun-6ed1" d="M 2675 3225 
Q 2675 4575 2650 5025 
L 3025 4800 
L 4700 4800 
L 4925 5025 
L 5275 4675 
L 5050 4525 
L 5050 3225 
L 5450 3225 
L 5675 3475 
L 6075 3075 
Q 5850 3025 5687 2887 
Q 5525 2750 5350 2525 
L 5275 2550 
L 5500 3075 
L 2275 3075 
Q 2275 2825 2225 2662 
Q 2175 2500 2012 2462 
Q 1850 2425 1775 2537 
Q 1700 2650 1900 2825 
Q 2075 2975 2200 3500 
L 2275 3500 
L 2275 3225 
L 2675 3225 
z
M 3000 2375 
L 3000 1750 
L 4725 1750 
L 4725 2375 
L 3000 2375 
z
M 3000 1600 
L 3000 950 
L 4725 950 
L 4725 1600 
L 3000 1600 
z
M 2650 -575 
Q 2675 150 2675 1025 
Q 2675 1900 2650 2725 
L 3000 2525 
L 4700 2525 
L 4925 2750 
L 5275 2400 
L 5050 2250 
L 5050 50 
Q 5050 -225 4937 -362 
Q 4825 -500 4575 -600 
Q 4425 -275 3850 -125 
L 3850 -25 
Q 4500 -100 4612 -75 
Q 4725 -50 4725 125 
L 4725 800 
L 3000 800 
L 3000 -400 
L 2650 -575 
z
M 3000 4650 
L 3000 4075 
L 3750 4075 
L 3975 4300 
L 4275 4000 
L 4075 3875 
L 4075 3225 
L 4725 3225 
L 4725 4650 
L 3000 4650 
z
M 3000 3925 
L 3000 3225 
L 3775 3225 
L 3775 3925 
L 3000 3925 
z
M 1925 3975 
Q 1375 1475 1300 1175 
Q 1200 850 1225 400 
Q 1225 -50 1225 -187 
Q 1225 -325 1100 -325 
Q 1000 -325 862 -275 
Q 725 -225 725 -50 
Q 725 75 800 325 
Q 875 575 875 725 
Q 875 900 762 1000 
Q 650 1100 275 1200 
L 275 1300 
Q 725 1250 837 1262 
Q 950 1275 1087 1487 
Q 1225 1700 1825 4000 
L 1925 3975 
z
M 300 3775 
Q 1075 3375 1087 3100 
Q 1100 2825 962 2725 
Q 825 2625 725 2975 
Q 600 3325 250 3700 
L 300 3775 
z
M 875 5100 
Q 1575 4750 1637 4575 
Q 1700 4400 1700 4325 
Q 1700 4200 1612 4100 
Q 1525 4000 1475 4000 
Q 1400 4000 1325 4250 
Q 1200 4575 825 5025 
L 875 5100 
z
" transform="scale(0.015625)"/>
      </defs>
      <use xlink:href="#SimSun-53cc"/>
      <use xlink:href="#SimSun-9891" transform="translate(100 0)"/>
      <use xlink:href="#SimSun-5e73" transform="translate(200 0)"/>
      <use xlink:href="#SimSun-6ed1" transform="translate(300 0)"/>
      <use xlink:href="#SimSun-7535" transform="translate(400 0)"/>
      <use xlink:href="#SimSun-79bb" transform="translate(500 0)"/>
      <use xlink:href="#SimSun-5c42" transform="translate(600 0)"/>
      <use xlink:href="#SimSun-5ef6" transform="translate(700 0)"/>
      <use xlink:href="#SimSun-8fdf" transform="translate(800 0)"/>
     </g>
    </g>
   </g>
  </g>
 </g>
 <defs>
  <clipPath id="p0e69287415">
   <rect x="29.810938" y="3.6" width="205.388583" height="148.354208"/>
  </clipPath>
 </defs>
</svg>
