<?xml version="1.0" encoding="UTF-8"?>
<svg xmlns="http://www.w3.org/2000/svg" width="1280" height="560" viewBox="0 0 1280 560">
<rect width="100%" height="100%" fill="#ffffff"/>
<style>.title{font:700 24px 'Arial','Microsoft YaHei',sans-serif;fill:#1f2937;}.axis{font:14px 'Arial','Microsoft YaHei',sans-serif;fill:#374151;}.tick{font:12px 'Arial','Microsoft YaHei',sans-serif;fill:#6b7280;}.legend{font:14px 'Arial','Microsoft YaHei',sans-serif;fill:#111827;}</style>
<text x="90" y="36" class="title">Exercise 5.5: G01 resC1_TGD(m) and resIF(m)</text>
<rect x="90" y="70" width="1150" height="420" fill="#fbfdff" stroke="#cbd5e1"/>
<line x1="90" y1="490" x2="1240" y2="490" stroke="#e5e7eb" stroke-width="1"/>
<text x="78" y="494" text-anchor="end" class="tick">-9.239</text>
<line x1="90" y1="420" x2="1240" y2="420" stroke="#e5e7eb" stroke-width="1"/>
<text x="78" y="424" text-anchor="end" class="tick">-6.159</text>
<line x1="90" y1="350" x2="1240" y2="350" stroke="#e5e7eb" stroke-width="1"/>
<text x="78" y="354" text-anchor="end" class="tick">-3.080</text>
<line x1="90" y1="280" x2="1240" y2="280" stroke="#e5e7eb" stroke-width="1"/>
<text x="78" y="284" text-anchor="end" class="tick">0.000</text>
<line x1="90" y1="210" x2="1240" y2="210" stroke="#e5e7eb" stroke-width="1"/>
<text x="78" y="214" text-anchor="end" class="tick">3.080</text>
<line x1="90" y1="140" x2="1240" y2="140" stroke="#e5e7eb" stroke-width="1"/>
<text x="78" y="144" text-anchor="end" class="tick">6.159</text>
<line x1="90" y1="70" x2="1240" y2="70" stroke="#e5e7eb" stroke-width="1"/>
<text x="78" y="74" text-anchor="end" class="tick">9.239</text>
<line x1="90" y1="70" x2="90" y2="490" stroke="#eef2f7" stroke-width="1"/>
<text x="90" y="510" text-anchor="middle" class="tick">06:55</text>
<line x1="233.75" y1="70" x2="233.75" y2="490" stroke="#eef2f7" stroke-width="1"/>
<text x="233.75" y="510" text-anchor="middle" class="tick">07:38</text>
<line x1="377.5" y1="70" x2="377.5" y2="490" stroke="#eef2f7" stroke-width="1"/>
<text x="377.5" y="510" text-anchor="middle" class="tick">08:21</text>
<line x1="521.25" y1="70" x2="521.25" y2="490" stroke="#eef2f7" stroke-width="1"/>
<text x="521.25" y="510" text-anchor="middle" class="tick">09:04</text>
<line x1="665" y1="70" x2="665" y2="490" stroke="#eef2f7" stroke-width="1"/>
<text x="665" y="510" text-anchor="middle" class="tick">09:47</text>
<line x1="808.75" y1="70" x2="808.75" y2="490" stroke="#eef2f7" stroke-width="1"/>
<text x="808.75" y="510" text-anchor="middle" class="tick">10:30</text>
<line x1="952.5" y1="70" x2="952.5" y2="490" stroke="#eef2f7" stroke-width="1"/>
<text x="952.5" y="510" text-anchor="middle" class="tick">11:13</text>
<line x1="1096.25" y1="70" x2="1096.25" y2="490" stroke="#eef2f7" stroke-width="1"/>
<text x="1096.25" y="510" text-anchor="middle" class="tick">11:56</text>
<line x1="1240" y1="70" x2="1240" y2="490" stroke="#eef2f7" stroke-width="1"/>
<text x="1240" y="510" text-anchor="middle" class="tick">12:40</text>
<line x1="90" y1="490" x2="1240" y2="490" stroke="#475569" stroke-width="1.5"/>
<line x1="90" y1="70" x2="90" y2="490" stroke="#475569" stroke-width="1.5"/>
<text x="665" y="540" text-anchor="middle" class="axis">Epoch time of day</text>
<text x="26" y="280" transform="rotate(-90 26 280)" text-anchor="middle" class="axis">Residual / nm</text>
<polyline fill="none" stroke="#ff7f0e" stroke-width="2" points="90,280 93.3333,280 96.6667,280 100,280 103.333,280 106.667,280 110,280 113.333,280 116.667,195.323 120,280 123.333,280 126.667,280 130,280 133.333,280 136.667,364.677 140,195.323 143.333,195.323 146.667,280 150,280 153.333,364.677 156.667,195.323 160,364.677 163.333,280 166.667,280 170,195.323 173.333,364.677 176.667,280 180,364.677 183.333,280 186.667,280 190,280 193.333,280 196.667,364.677 200,364.677 203.333,280 206.667,280 210,280 213.333,195.323 216.667,280 220,195.323 223.333,364.677 226.667,449.355 230,280 233.333,280 236.667,280 240,195.323 243.333,195.323 246.667,364.677 250,280 253.333,280 256.667,280 260,280 263.333,280 266.667,364.677 270,195.323 273.333,280 276.667,280 280,280 283.333,195.323 286.667,364.677 290,280 293.333,195.323 296.667,280 300,280 303.333,280 306.667,280 310,280 313.333,280 316.667,280 320,280 323.333,280 326.667,280 330,364.677 333.333,195.323 336.667,364.677 340,280 343.333,280 346.667,364.677 350,449.355 353.333,364.677 356.667,449.355 360,280 363.333,280 366.667,280 370,364.677 373.333,280 376.667,195.323 380,364.677 383.333,195.323 386.667,280 390,280 393.333,364.677 396.667,280 400,364.677 403.333,280 406.667,195.323 410,280 413.333,280 416.667,280 420,364.677 423.333,195.323 426.667,280 430,280 433.333,280 436.667,364.677 440,195.323 443.333,280 446.667,280 450,195.323 453.333,280 456.667,110.645 460,280 463.333,364.677 466.667,280 470,280 473.333,195.323 476.667,280 480,364.677 483.333,364.677 486.667,364.677 490,449.355 493.333,280 496.667,364.677 500,280 503.333,280 506.667,280 510,280 513.333,280 516.667,364.677 520,280 523.333,280 526.667,280 530,195.323 533.333,280 536.667,280 540,280 543.333,280 546.667,364.677 550,280 553.333,195.323 556.667,195.323 560,195.323 563.333,280 566.667,280 570,195.323 573.333,280 576.667,364.677 580,280 583.333,280 586.667,280 590,280 593.333,280 596.667,364.677 600,280 603.333,364.677 606.667,364.677 610,280 613.333,280 616.667,280 620,280 623.333,280 626.667,195.323 630,364.677 633.333,280 636.667,280 640,364.677 643.333,280 646.667,364.677 650,280 653.333,364.677 656.667,364.677 660,280 663.333,280 666.667,280 670,195.323 673.333,280 676.667,364.677 680,280 683.333,280 686.667,280 690,195.323 693.333,280 696.667,280 700,280 703.333,364.677 706.667,280 710,195.323 713.333,280 716.667,449.355 720,280 723.333,364.677 726.667,280 730,280 733.333,280 736.667,280 740,280 743.333,280 746.667,280 750,110.645 753.333,280 756.667,280 760,280 763.333,280 766.667,280 770,280 773.333,364.677 776.667,364.677 780,364.677 783.333,364.677 786.667,364.677 790,280 793.333,280 796.667,280 800,449.355 803.333,280 806.667,280 810,195.323 813.333,195.323 816.667,280 820,195.323 823.333,195.323 826.667,195.323 830,195.323 833.333,364.677 836.667,280 840,364.677 843.333,280 846.667,195.323 850,280 853.333,364.677 856.667,195.323 860,364.677 863.333,280 866.667,280 870,280 873.333,280 876.667,110.645 880,280 883.333,280 886.667,280 890,280 893.333,280 896.667,364.677 900,195.323 903.333,280 906.667,280 910,195.323 913.333,364.677 916.667,280 920,280 923.333,280 926.667,280 930,280 933.333,195.323 936.667,280 940,280 943.333,449.355 946.667,195.323 950,280 953.333,280 956.667,280 960,280 963.333,280 966.667,280 970,195.323 973.333,280 976.667,195.323 980,195.323 983.333,280 986.667,280 990,364.677 993.333,364.677 996.667,280 1000,364.677 1003.33,364.677 1006.67,280 1010,280 1013.33,280 1016.67,280 1020,280 1023.33,280 1026.67,280 1030,280 1033.33,195.323 1036.67,280 1040,280 1043.33,280 1046.67,280 1050,280 1053.33,364.677 1056.67,280 1060,280 1063.33,195.323 1066.67,280 1070,280 1073.33,280 1076.67,195.323 1080,195.323 1083.33,280 1086.67,280 1090,364.677 1093.33,364.677 1096.67,195.323 1100,280 1103.33,280 1106.67,280 1110,280 1113.33,280 1116.67,280 1120,364.677 1123.33,280 1126.67,280 1130,110.645 1133.33,280 1136.67,280 1140,280 1143.33,364.677 1146.67,280 1150,280 1153.33,280 1156.67,280 1160,280 1163.33,280 1166.67,195.323 1170,280 1173.33,280 1176.67,364.677 1180,280 1183.33,280 1186.67,280 1190,280 1193.33,364.677 1196.67,280 1200,280 1203.33,280 1206.67,280 1210,364.677 1213.33,280 1216.67,280 1220,280 1223.33,364.677 1226.67,280 1230,364.677 1233.33,280 1236.67,280 1240,280 "/>
<polyline fill="none" stroke="#1f77b4" stroke-width="2" points="90,280 93.3333,195.323 96.6667,280 100,195.323 103.333,280 106.667,280 110,280 113.333,195.323 116.667,280 120,364.677 123.333,364.677 126.667,280 130,195.323 133.333,364.677 136.667,280 140,280 143.333,280 146.667,280 150,195.323 153.333,280 156.667,280 160,280 163.333,195.323 166.667,280 170,280 173.333,280 176.667,280 180,280 183.333,280 186.667,195.323 190,280 193.333,364.677 196.667,280 200,195.323 203.333,280 206.667,195.323 210,449.355 213.333,280 216.667,195.323 220,280 223.333,280 226.667,280 230,195.323 233.333,280 236.667,280 240,110.645 243.333,280 246.667,364.677 250,280 253.333,280 256.667,280 260,280 263.333,364.677 266.667,195.323 270,195.323 273.333,280 276.667,195.323 280,280 283.333,280 286.667,364.677 290,280 293.333,110.645 296.667,280 300,280 303.333,280 306.667,280 310,280 313.333,195.323 316.667,280 320,280 323.333,280 326.667,364.677 330,449.355 333.333,280 336.667,280 340,280 343.333,280 346.667,364.677 350,364.677 353.333,280 356.667,280 360,364.677 363.333,280 366.667,280 370,280 373.333,280 376.667,280 380,364.677 383.333,195.323 386.667,195.323 390,280 393.333,280 396.667,195.323 400,280 403.333,280 406.667,195.323 410,280 413.333,195.323 416.667,280 420,364.677 423.333,110.645 426.667,280 430,280 433.333,280 436.667,280 440,280 443.333,280 446.667,195.323 450,280 453.333,195.323 456.667,195.323 460,280 463.333,280 466.667,280 470,280 473.333,195.323 476.667,280 480,280 483.333,195.323 486.667,364.677 490,280 493.333,195.323 496.667,280 500,280 503.333,280 506.667,280 510,280 513.333,280 516.667,280 520,280 523.333,280 526.667,280 530,364.677 533.333,280 536.667,280 540,280 543.333,280 546.667,280 550,280 553.333,195.323 556.667,280 560,195.323 563.333,280 566.667,195.323 570,280 573.333,280 576.667,280 580,280 583.333,280 586.667,280 590,364.677 593.333,280 596.667,364.677 600,280 603.333,364.677 606.667,364.677 610,280 613.333,280 616.667,280 620,280 623.333,280 626.667,195.323 630,364.677 633.333,280 636.667,280 640,280 643.333,280 646.667,364.677 650,280 653.333,364.677 656.667,364.677 660,280 663.333,280 666.667,195.323 670,364.677 673.333,280 676.667,280 680,280 683.333,280 686.667,280 690,195.323 693.333,280 696.667,280 700,280 703.333,280 706.667,280 710,280 713.333,280 716.667,364.677 720,280 723.333,364.677 726.667,280 730,280 733.333,280 736.667,280 740,280 743.333,280 746.667,280 750,195.323 753.333,280 756.667,280 760,280 763.333,280 766.667,280 770,280 773.333,449.355 776.667,449.355 780,280 783.333,364.677 786.667,364.677 790,280 793.333,280 796.667,280 800,364.677 803.333,280 806.667,280 810,110.645 813.333,195.323 816.667,280 820,280 823.333,195.323 826.667,195.323 830,195.323 833.333,364.677 836.667,280 840,280 843.333,280 846.667,280 850,280 853.333,364.677 856.667,280 860,280 863.333,280 866.667,280 870,280 873.333,280 876.667,195.323 880,195.323 883.333,280 886.667,280 890,280 893.333,280 896.667,364.677 900,195.323 903.333,195.323 906.667,280 910,280 913.333,364.677 916.667,280 920,280 923.333,280 926.667,280 930,280 933.333,195.323 936.667,280 940,280 943.333,364.677 946.667,280 950,280 953.333,280 956.667,280 960,280 963.333,280 966.667,280 970,364.677 973.333,280 976.667,280 980,195.323 983.333,195.323 986.667,280 990,364.677 993.333,364.677 996.667,280 1000,280 1003.33,364.677 1006.67,280 1010,280 1013.33,280 1016.67,280 1020,280 1023.33,280 1026.67,280 1030,195.323 1033.33,280 1036.67,280 1040,195.323 1043.33,280 1046.67,364.677 1050,280 1053.33,364.677 1056.67,280 1060,280 1063.33,280 1066.67,280 1070,280 1073.33,280 1076.67,195.323 1080,280 1083.33,280 1086.67,280 1090,364.677 1093.33,280 1096.67,110.645 1100,280 1103.33,280 1106.67,280 1110,280 1113.33,280 1116.67,280 1120,364.677 1123.33,280 1126.67,280 1130,195.323 1133.33,280 1136.67,280 1140,280 1143.33,364.677 1146.67,280 1150,280 1153.33,280 1156.67,195.323 1160,280 1163.33,280 1166.67,195.323 1170,280 1173.33,280 1176.67,280 1180,280 1183.33,364.677 1186.67,280 1190,280 1193.33,280 1196.67,280 1200,280 1203.33,280 1206.67,280 1210,364.677 1213.33,280 1216.67,195.323 1220,280 1223.33,364.677 1226.67,280 1230,280 1233.33,280 1236.67,280 1240,280 "/>
<rect x="980" y="42" width="240" height="66" rx="8" ry="8" fill="#ffffff" stroke="#cbd5e1"/>
<line x1="996" y1="65" x2="1028" y2="65" stroke="#ff7f0e" stroke-width="3"/>
<text x="1038" y="70" class="legend">G01 resC1_TGD(m)</text>
<line x1="996" y1="91" x2="1028" y2="91" stroke="#1f77b4" stroke-width="3"/>
<text x="1038" y="96" class="legend">G01 resIF(m)</text>
</svg>
