<?xml version="1.0" encoding="UTF-8"?>
<svg xmlns="http://www.w3.org/2000/svg" width="1280" height="560" viewBox="0 0 1280 560">
<rect width="100%" height="100%" fill="#ffffff"/>
<style>.title{font:700 24px 'Arial','Microsoft YaHei',sans-serif;fill:#1f2937;}.axis{font:14px 'Arial','Microsoft YaHei',sans-serif;fill:#374151;}.tick{font:12px 'Arial','Microsoft YaHei',sans-serif;fill:#6b7280;}.legend{font:14px 'Arial','Microsoft YaHei',sans-serif;fill:#111827;}</style>
<text x="90" y="36" class="title">习题5.5：G10 回代残差图</text>
<rect x="90" y="70" width="1150" height="420" fill="#fbfdff" stroke="#cbd5e1"/>
<line x1="90" y1="490" x2="1240" y2="490" stroke="#e5e7eb" stroke-width="1"/>
<text x="78" y="494" text-anchor="end" class="tick">-10.000</text>
<line x1="90" y1="420" x2="1240" y2="420" stroke="#e5e7eb" stroke-width="1"/>
<text x="78" y="424" text-anchor="end" class="tick">-6.667</text>
<line x1="90" y1="350" x2="1240" y2="350" stroke="#e5e7eb" stroke-width="1"/>
<text x="78" y="354" text-anchor="end" class="tick">-3.333</text>
<line x1="90" y1="280" x2="1240" y2="280" stroke="#e5e7eb" stroke-width="1"/>
<text x="78" y="284" text-anchor="end" class="tick">0.000</text>
<line x1="90" y1="210" x2="1240" y2="210" stroke="#e5e7eb" stroke-width="1"/>
<text x="78" y="214" text-anchor="end" class="tick">3.333</text>
<line x1="90" y1="140" x2="1240" y2="140" stroke="#e5e7eb" stroke-width="1"/>
<text x="78" y="144" text-anchor="end" class="tick">6.667</text>
<line x1="90" y1="70" x2="1240" y2="70" stroke="#e5e7eb" stroke-width="1"/>
<text x="78" y="74" text-anchor="end" class="tick">10.000</text>
<line x1="90" y1="70" x2="90" y2="490" stroke="#eef2f7" stroke-width="1"/>
<text x="90" y="510" text-anchor="middle" class="tick">00:00</text>
<line x1="233.75" y1="70" x2="233.75" y2="490" stroke="#eef2f7" stroke-width="1"/>
<text x="233.75" y="510" text-anchor="middle" class="tick">02:59</text>
<line x1="377.5" y1="70" x2="377.5" y2="490" stroke="#eef2f7" stroke-width="1"/>
<text x="377.5" y="510" text-anchor="middle" class="tick">05:59</text>
<line x1="521.25" y1="70" x2="521.25" y2="490" stroke="#eef2f7" stroke-width="1"/>
<text x="521.25" y="510" text-anchor="middle" class="tick">08:59</text>
<line x1="665" y1="70" x2="665" y2="490" stroke="#eef2f7" stroke-width="1"/>
<text x="665" y="510" text-anchor="middle" class="tick">11:59</text>
<line x1="808.75" y1="70" x2="808.75" y2="490" stroke="#eef2f7" stroke-width="1"/>
<text x="808.75" y="510" text-anchor="middle" class="tick">14:59</text>
<line x1="952.5" y1="70" x2="952.5" y2="490" stroke="#eef2f7" stroke-width="1"/>
<text x="952.5" y="510" text-anchor="middle" class="tick">17:59</text>
<line x1="1096.25" y1="70" x2="1096.25" y2="490" stroke="#eef2f7" stroke-width="1"/>
<text x="1096.25" y="510" text-anchor="middle" class="tick">20:59</text>
<line x1="1240" y1="70" x2="1240" y2="490" stroke="#eef2f7" stroke-width="1"/>
<text x="1240" y="510" text-anchor="middle" class="tick">23:59</text>
<line x1="90" y1="490" x2="1240" y2="490" stroke="#475569" stroke-width="1.5"/>
<line x1="90" y1="70" x2="90" y2="490" stroke="#475569" stroke-width="1.5"/>
<text x="665" y="540" text-anchor="middle" class="axis">Epoch time of day</text>
<text x="26" y="280" transform="rotate(-90 26 280)" text-anchor="middle" class="axis">Residual / nm</text>
<polyline fill="none" stroke="#d62728" stroke-width="2" points="90,280 90.7992,358.231 91.5983,436.462 92.3975,280 93.1967,280 93.9958,358.231 94.795,280 95.5942,280 96.3933,280 97.1925,280 97.9917,280 98.7908,358.231 99.59,280 100.389,280 101.188,201.769 101.987,280 102.787,280 103.586,280 104.385,280 105.184,280 105.983,280 106.782,280 107.582,358.231 108.381,280 109.18,201.769 109.979,358.231 110.778,280 111.577,201.769 112.377,280 113.176,436.462 113.975,280 114.774,280 115.573,358.231 116.372,358.231 117.172,358.231 117.971,280 118.77,201.769 119.569,280 120.368,358.231 121.167,280 121.967,201.769 122.766,280 123.565,280 124.364,280 125.163,280 125.962,280 126.762,123.538 127.561,358.231 128.36,280 129.159,280 129.958,280 130.757,280 131.557,358.231 132.356,280 133.155,123.538 133.954,280 134.753,280 135.552,358.231 136.352,280 137.151,280 137.95,280 138.749,201.769 139.548,280 140.347,201.769 141.147,280 141.946,280 142.745,280 143.544,280 144.343,280 145.142,201.769 145.942,280 146.741,280 147.54,201.769 148.339,201.769 149.138,280 149.937,280 150.737,358.231 151.536,280 152.335,280 153.134,280 153.933,280 154.732,280 155.532,358.231 156.331,280 157.13,280 157.929,280 158.728,280 159.527,280 160.327,280 161.126,280 161.925,280 162.724,358.231 163.523,358.231 164.322,280 165.122,280 165.921,280 166.72,280 167.519,358.231 168.318,280 169.117,280 169.917,280 170.716,280 171.515,280 172.314,280 173.113,280 173.912,280 174.712,280 175.511,280 176.31,280 177.109,280 177.908,280 178.707,280 179.507,280 180.306,280 181.105,280 181.904,358.231 182.703,358.231 183.502,280 184.302,280 185.101,280 185.9,436.462 186.699,358.231 187.498,280 188.297,280 189.097,201.769 189.896,280 190.695,280 191.494,280 192.293,280 193.092,280 193.892,201.769 194.691,280 195.49,280 196.289,280 197.088,280 197.887,280 198.687,280 199.486,280 200.285,280 201.084,280 201.883,280 202.682,280 203.482,201.769 204.281,201.769 205.08,280 205.879,280 206.678,123.538 207.477,201.769 208.277,280 209.076,280 209.875,280 210.674,280 211.473,201.769 212.272,280 213.072,280 213.871,280 214.67,280 215.469,280 216.268,280 217.067,358.231 217.867,280 218.666,358.231 219.465,201.769 220.264,280 221.063,280 221.862,280 222.662,280 223.461,280 224.26,280 225.059,201.769 225.858,201.769 226.657,280 "/>
<polyline fill="none" stroke="#d62728" stroke-width="2" points="1125.72,280 1126.52,280 1127.32,280 1128.12,280 1128.92,280 1129.72,280 1130.51,280 1131.31,280 1132.11,280 1132.91,280 1133.71,280 1134.51,280 1135.31,201.769 1136.11,201.769 1136.91,280 1137.71,201.769 1138.51,280 1139.31,280 1140.1,280 1140.9,358.231 1141.7,201.769 1142.5,280 1143.3,280 1144.1,280 1144.9,201.769 1146.5,280 1147.3,358.231 1148.1,358.231 1148.9,358.231 1149.69,280 1150.49,280 1151.29,280 1152.09,280 1152.89,280 1153.69,280 1154.49,201.769 1155.29,280 1156.09,280 1156.89,358.231 1157.69,358.231 1158.49,280 1159.28,280 1160.08,280 1160.88,280 1161.68,280 1162.48,358.231 1163.28,280 1164.08,280 1164.88,280 1165.68,436.462 1166.48,280 1167.28,358.231 1168.08,358.231 1168.87,280 1169.67,280 1170.47,201.769 1171.27,280 1172.07,280 1172.87,280 1173.67,280 1174.47,280 1175.27,280 1176.07,358.231 1176.87,280 1177.67,280 1178.46,358.231 1179.26,358.231 1180.06,280 1180.86,280 1181.66,201.769 1182.46,201.769 1183.26,280 1184.06,280 1184.86,280 1185.66,280 1186.46,280 1187.26,280 1188.05,280 1188.85,280 1189.65,280 1190.45,280 1191.25,280 1192.05,280 1192.85,358.231 1193.65,280 1194.45,280 1195.25,280 1196.05,280 1196.85,358.231 1197.64,280 1198.44,280 1199.24,280 1200.04,280 1200.84,280 1201.64,280 1202.44,280 1203.24,280 1204.04,358.231 1204.84,280 1205.64,280 1206.44,280 1207.23,280 1208.03,280 1208.83,280 1209.63,280 1210.43,280 1211.23,280 1212.03,280 1212.83,280 1213.63,280 1214.43,280 1215.23,280 1216.03,280 1216.82,280 1217.62,280 1218.42,280 1219.22,280 1220.02,436.462 1220.82,280 1221.62,280 1222.42,280 1223.22,280 1224.02,280 1224.82,280 1225.62,280 1226.41,358.231 1227.21,358.231 1228.01,280 1228.81,280 1229.61,358.231 1230.41,358.231 1231.21,280 1232.01,201.769 1232.81,280 1233.61,280 1234.41,358.231 1235.21,123.538 1236,280 1236.8,201.769 1237.6,280 1238.4,280 1239.2,201.769 1240,201.769 "/>
<polyline fill="none" stroke="#ff7f0e" stroke-width="2" points="90,280 90.7992,358.231 91.5983,358.231 92.3975,280 93.1967,280 93.9958,280 94.795,280 95.5942,280 96.3933,280 97.1925,280 97.9917,280 98.7908,358.231 99.59,280 100.389,280 101.188,280 101.987,280 102.787,280 103.586,280 104.385,280 105.184,280 105.983,280 106.782,358.231 107.582,358.231 108.381,280 109.18,358.231 109.979,280 110.778,280 111.577,280 112.377,358.231 113.176,358.231 113.975,280 114.774,201.769 115.573,358.231 116.372,358.231 117.172,280 117.971,280 118.77,201.769 119.569,280 120.368,358.231 121.167,280 121.967,201.769 122.766,280 123.565,358.231 124.364,280 125.163,280 125.962,280 126.762,201.769 127.561,280 128.36,280 129.159,280 129.958,280 130.757,280 131.557,358.231 132.356,280 133.155,201.769 133.954,280 134.753,280 135.552,358.231 136.352,280 137.151,280 137.95,280 138.749,201.769 139.548,280 140.347,280 141.147,280 141.946,280 142.745,280 143.544,280 144.343,358.231 145.142,201.769 145.942,280 146.741,358.231 147.54,123.538 148.339,201.769 149.138,280 149.937,280 150.737,358.231 151.536,280 152.335,280 153.134,280 153.933,280 154.732,280 155.532,280 156.331,280 157.13,280 157.929,280 158.728,280 159.527,280 160.327,280 161.126,280 161.925,358.231 162.724,358.231 163.523,358.231 164.322,280 165.122,280 165.921,201.769 166.72,358.231 167.519,358.231 168.318,280 169.117,201.769 169.917,280 170.716,280 171.515,280 172.314,201.769 173.113,280 173.912,280 174.712,358.231 175.511,280 176.31,280 177.109,280 177.908,201.769 178.707,358.231 179.507,280 180.306,280 181.105,280 181.904,358.231 182.703,358.231 183.502,280 184.302,280 185.101,280 185.9,358.231 186.699,358.231 187.498,280 188.297,280 189.097,201.769 189.896,280 190.695,280 191.494,280 192.293,280 193.092,280 193.892,201.769 194.691,280 195.49,358.231 196.289,280 197.088,201.769 197.887,280 198.687,280 199.486,280 200.285,280 201.084,280 201.883,280 202.682,358.231 203.482,201.769 204.281,280 205.08,280 205.879,280 206.678,201.769 207.477,123.538 208.277,201.769 209.076,280 209.875,280 210.674,201.769 211.473,201.769 212.272,280 213.072,280 213.871,280 214.67,280 215.469,280 216.268,280 217.067,358.231 217.867,280 218.666,358.231 219.465,201.769 220.264,280 221.063,280 221.862,280 222.662,280 223.461,280 224.26,280 225.059,201.769 225.858,201.769 226.657,280 "/>
<polyline fill="none" stroke="#ff7f0e" stroke-width="2" points="1125.72,280 1126.52,280 1127.32,280 1128.12,280 1128.92,280 1129.72,280 1130.51,280 1131.31,358.231 1132.11,280 1132.91,280 1133.71,280 1134.51,358.231 1135.31,280 1136.11,201.769 1136.91,280 1137.71,201.769 1138.51,280 1139.31,280 1140.1,280 1140.9,358.231 1141.7,123.538 1142.5,358.231 1143.3,280 1144.1,280 1144.9,201.769 1146.5,201.769 1147.3,280 1148.1,358.231 1148.9,280 1149.69,280 1150.49,280 1151.29,280 1152.09,280 1152.89,280 1153.69,280 1154.49,280 1155.29,358.231 1156.09,201.769 1156.89,358.231 1157.69,358.231 1158.49,280 1159.28,280 1160.08,280 1160.88,280 1161.68,280 1162.48,358.231 1163.28,280 1164.08,280 1164.88,280 1165.68,358.231 1166.48,280 1167.28,358.231 1168.08,280 1168.87,280 1169.67,280 1170.47,280 1171.27,280 1172.07,280 1172.87,280 1173.67,280 1174.47,280 1175.27,280 1176.07,280 1176.87,280 1177.67,280 1178.46,358.231 1179.26,280 1180.06,280 1180.86,280 1181.66,201.769 1182.46,280 1183.26,280 1184.06,280 1184.86,280 1185.66,280 1186.46,280 1187.26,280 1188.05,280 1188.85,280 1189.65,280 1190.45,280 1191.25,280 1192.05,280 1192.85,358.231 1193.65,280 1194.45,280 1195.25,280 1196.05,280 1196.85,358.231 1197.64,280 1198.44,280 1199.24,201.769 1200.04,358.231 1200.84,280 1201.64,280 1202.44,280 1203.24,280 1204.04,358.231 1204.84,280 1205.64,280 1206.44,280 1207.23,280 1208.03,280 1208.83,280 1209.63,280 1210.43,280 1211.23,280 1212.03,280 1212.83,280 1213.63,280 1214.43,280 1215.23,280 1216.03,280 1216.82,280 1217.62,280 1218.42,280 1219.22,280 1220.02,358.231 1220.82,358.231 1221.62,280 1222.42,280 1223.22,280 1224.02,280 1224.82,280 1225.62,280 1226.41,280 1227.21,358.231 1228.01,280 1228.81,280 1229.61,358.231 1230.41,358.231 1231.21,280 1232.01,280 1232.81,280 1233.61,280 1234.41,280 1235.21,201.769 1236,280 1236.8,201.769 1237.6,201.769 1238.4,358.231 1239.2,201.769 1240,280 "/>
<polyline fill="none" stroke="#1f77b4" stroke-width="2" points="90,358.231 90.7992,358.231 91.5983,358.231 92.3975,280 93.1967,280 93.9958,280 94.795,280 95.5942,280 96.3933,280 97.1925,280 97.9917,280 98.7908,358.231 99.59,280 100.389,280 101.188,280 101.987,280 102.787,280 103.586,280 104.385,280 105.184,280 105.983,280 106.782,280 107.582,436.462 108.381,280 109.18,280 109.979,280 110.778,280 111.577,280 112.377,201.769 113.176,358.231 113.975,201.769 114.774,280 115.573,358.231 116.372,280 117.172,280 117.971,280 118.77,123.538 119.569,280 120.368,358.231 121.167,280 121.967,201.769 122.766,280 123.565,280 124.364,280 125.163,280 125.962,280 126.762,201.769 127.561,280 128.36,280 129.159,280 129.958,280 130.757,280 131.557,358.231 132.356,280 133.155,201.769 133.954,280 134.753,280 135.552,280 136.352,280 137.151,201.769 137.95,280 138.749,201.769 139.548,201.769 140.347,201.769 141.147,280 141.946,280 142.745,280 143.544,280 144.343,280 145.142,201.769 145.942,358.231 146.741,280 147.54,123.538 148.339,201.769 149.138,280 149.937,358.231 150.737,358.231 151.536,280 152.335,280 153.134,280 153.933,280 154.732,358.231 155.532,280 156.331,280 157.13,280 157.929,280 158.728,280 159.527,280 160.327,201.769 161.126,280 161.925,280 162.724,358.231 163.523,358.231 164.322,280 165.122,280 165.921,280 166.72,280 167.519,436.462 168.318,280 169.117,280 169.917,280 170.716,201.769 171.515,280 172.314,358.231 173.113,280 173.912,280 174.712,358.231 175.511,280 176.31,280 177.109,280 177.908,280 178.707,280 179.507,280 180.306,201.769 181.105,280 181.904,358.231 182.703,358.231 183.502,280 184.302,201.769 185.101,280 185.9,358.231 186.699,436.462 187.498,280 188.297,280 189.097,201.769 189.896,358.231 190.695,280 191.494,280 192.293,280 193.092,280 193.892,201.769 194.691,280 195.49,280 196.289,280 197.088,280 197.887,280 198.687,280 199.486,280 200.285,280 201.084,201.769 201.883,123.538 202.682,280 203.482,280 204.281,280 205.08,280 205.879,280 206.678,201.769 207.477,201.769 208.277,201.769 209.076,280 209.875,280 210.674,280 211.473,280 212.272,280 213.072,280 213.871,280 214.67,201.769 215.469,280 216.268,280 217.067,280 217.867,201.769 218.666,280 219.465,201.769 220.264,280 221.063,280 221.862,201.769 222.662,280 223.461,280 224.26,280 225.059,280 225.858,280 226.657,201.769 "/>
<polyline fill="none" stroke="#1f77b4" stroke-width="2" points="1125.72,280 1126.52,280 1127.32,280 1128.12,280 1128.92,280 1129.72,280 1130.51,280 1131.31,280 1132.11,280 1132.91,280 1133.71,280 1134.51,280 1135.31,280 1136.11,201.769 1136.91,280 1137.71,201.769 1138.51,201.769 1139.31,280 1140.1,280 1140.9,358.231 1141.7,123.538 1142.5,280 1143.3,280 1144.1,280 1144.9,201.769 1146.5,201.769 1147.3,280 1148.1,358.231 1148.9,280 1149.69,280 1150.49,280 1151.29,280 1152.09,280 1152.89,280 1153.69,280 1154.49,280 1155.29,280 1156.09,280 1156.89,358.231 1157.69,436.462 1158.49,280 1159.28,280 1160.08,280 1160.88,280 1161.68,280 1162.48,358.231 1163.28,280 1164.08,280 1164.88,280 1165.68,358.231 1166.48,280 1167.28,358.231 1168.08,280 1168.87,280 1169.67,280 1170.47,280 1171.27,280 1172.07,201.769 1172.87,280 1173.67,201.769 1174.47,280 1175.27,280 1176.07,280 1176.87,280 1177.67,358.231 1178.46,436.462 1179.26,280 1180.06,280 1180.86,280 1181.66,123.538 1182.46,280 1183.26,280 1184.06,280 1184.86,280 1185.66,358.231 1186.46,358.231 1187.26,280 1188.05,280 1188.85,280 1189.65,280 1190.45,280 1191.25,280 1192.05,280 1192.85,358.231 1193.65,280 1194.45,280 1195.25,280 1196.05,280 1196.85,358.231 1197.64,358.231 1198.44,280 1199.24,280 1200.04,280 1200.84,280 1201.64,280 1202.44,280 1203.24,280 1204.04,358.231 1204.84,280 1205.64,280 1206.44,280 1207.23,280 1208.03,280 1208.83,280 1209.63,280 1210.43,280 1211.23,358.231 1212.03,280 1212.83,280 1213.63,280 1214.43,201.769 1215.23,280 1216.03,280 1216.82,280 1217.62,280 1218.42,280 1219.22,280 1220.02,436.462 1220.82,358.231 1221.62,280 1222.42,280 1223.22,358.231 1224.02,358.231 1224.82,280 1225.62,280 1226.41,280 1227.21,358.231 1228.01,280 1228.81,280 1229.61,358.231 1230.41,358.231 1231.21,280 1232.01,280 1232.81,280 1233.61,280 1234.41,280 1235.21,201.769 1236,280 1236.8,201.769 1237.6,280 1238.4,280 1239.2,201.769 1240,201.769 "/>
<rect x="980" y="42" width="240" height="90" rx="8" ry="8" fill="#ffffff" stroke="#cbd5e1"/>
<line x1="996" y1="65" x2="1028" y2="65" stroke="#d62728" stroke-width="3"/>
<text x="1038" y="70" class="legend">G10 raw residual</text>
<line x1="996" y1="91" x2="1028" y2="91" stroke="#ff7f0e" stroke-width="3"/>
<text x="1038" y="96" class="legend">G10 TGD residual</text>
<line x1="996" y1="117" x2="1028" y2="117" stroke="#1f77b4" stroke-width="3"/>
<text x="1038" y="122" class="legend">G10 IF residual</text>
</svg>
