<?xml version="1.0" encoding="UTF-8"?>
<svg xmlns="http://www.w3.org/2000/svg" width="1280" height="560" viewBox="0 0 1280 560">
<rect width="100%" height="100%" fill="#ffffff"/>
<style>.title{font:700 24px 'Arial','Microsoft YaHei',sans-serif;fill:#1f2937;}.axis{font:14px 'Arial','Microsoft YaHei',sans-serif;fill:#374151;}.tick{font:12px 'Arial','Microsoft YaHei',sans-serif;fill:#6b7280;}</style>
<text x="90" y="36" class="title">Exercise 5.5: G10 C1 TGD correction time series</text>
<rect x="90" y="70" width="1150" height="420" fill="#fbfdff" stroke="#cbd5e1"/>
<line x1="90" y1="490" x2="1240" y2="490" stroke="#e5e7eb" stroke-width="1"/>
<text x="78" y="494" text-anchor="end" class="tick">1.56</text>
<line x1="90" y1="420" x2="1240" y2="420" stroke="#e5e7eb" stroke-width="1"/>
<text x="78" y="424" text-anchor="end" class="tick">1.63</text>
<line x1="90" y1="350" x2="1240" y2="350" stroke="#e5e7eb" stroke-width="1"/>
<text x="78" y="354" text-anchor="end" class="tick">1.71</text>
<line x1="90" y1="280" x2="1240" y2="280" stroke="#e5e7eb" stroke-width="1"/>
<text x="78" y="284" text-anchor="end" class="tick">1.78</text>
<line x1="90" y1="210" x2="1240" y2="210" stroke="#e5e7eb" stroke-width="1"/>
<text x="78" y="214" text-anchor="end" class="tick">1.85</text>
<line x1="90" y1="140" x2="1240" y2="140" stroke="#e5e7eb" stroke-width="1"/>
<text x="78" y="144" text-anchor="end" class="tick">1.92</text>
<line x1="90" y1="70" x2="1240" y2="70" stroke="#e5e7eb" stroke-width="1"/>
<text x="78" y="74" text-anchor="end" class="tick">1.99</text>
<line x1="90" y1="70" x2="90" y2="490" stroke="#eef2f7" stroke-width="1"/>
<text x="90" y="510" text-anchor="middle" class="tick">00:00</text>
<line x1="233.75" y1="70" x2="233.75" y2="490" stroke="#eef2f7" stroke-width="1"/>
<text x="233.75" y="510" text-anchor="middle" class="tick">02:59</text>
<line x1="377.5" y1="70" x2="377.5" y2="490" stroke="#eef2f7" stroke-width="1"/>
<text x="377.5" y="510" text-anchor="middle" class="tick">05:59</text>
<line x1="521.25" y1="70" x2="521.25" y2="490" stroke="#eef2f7" stroke-width="1"/>
<text x="521.25" y="510" text-anchor="middle" class="tick">08:59</text>
<line x1="665" y1="70" x2="665" y2="490" stroke="#eef2f7" stroke-width="1"/>
<text x="665" y="510" text-anchor="middle" class="tick">11:59</text>
<line x1="808.75" y1="70" x2="808.75" y2="490" stroke="#eef2f7" stroke-width="1"/>
<text x="808.75" y="510" text-anchor="middle" class="tick">14:59</text>
<line x1="952.5" y1="70" x2="952.5" y2="490" stroke="#eef2f7" stroke-width="1"/>
<text x="952.5" y="510" text-anchor="middle" class="tick">17:59</text>
<line x1="1096.25" y1="70" x2="1096.25" y2="490" stroke="#eef2f7" stroke-width="1"/>
<text x="1096.25" y="510" text-anchor="middle" class="tick">20:59</text>
<line x1="1240" y1="70" x2="1240" y2="490" stroke="#eef2f7" stroke-width="1"/>
<text x="1240" y="510" text-anchor="middle" class="tick">23:59</text>
<line x1="90" y1="490" x2="1240" y2="490" stroke="#475569" stroke-width="1.5"/>
<line x1="90" y1="70" x2="90" y2="490" stroke="#475569" stroke-width="1.5"/>
<text x="665" y="540" text-anchor="middle" class="axis">Epoch time of day</text>
<text x="26" y="280" transform="rotate(-90 26 280)" text-anchor="middle" class="axis">TGD correction / m</text>
<polyline fill="none" stroke="#2ca02c" stroke-width="2" points="90,280 90.7992,280 91.5983,280 92.3975,280 93.1967,280 93.9958,280 94.795,280 95.5942,280 96.3933,280 97.1925,280 97.9917,280 98.7908,280 99.59,280 100.389,280 101.188,280 101.987,280 102.787,280 103.586,280 104.385,280 105.184,280 105.983,280 106.782,280 107.582,280 108.381,280 109.18,280 109.979,280 110.778,280 111.577,280 112.377,280 113.176,280 113.975,280 114.774,280 115.573,280 116.372,280 117.172,280 117.971,280 118.77,280 119.569,280 120.368,280 121.167,280 121.967,280 122.766,280 123.565,280 124.364,280 125.163,280 125.962,280 126.762,280 127.561,280 128.36,280 129.159,280 129.958,280 130.757,280 131.557,280 132.356,280 133.155,280 133.954,280 134.753,280 135.552,280 136.352,280 137.151,280 137.95,280 138.749,280 139.548,280 140.347,280 141.147,280 141.946,280 142.745,280 143.544,280 144.343,280 145.142,280 145.942,280 146.741,280 147.54,280 148.339,280 149.138,280 149.937,280 150.737,280 151.536,280 152.335,280 153.134,280 153.933,280 154.732,280 155.532,280 156.331,280 157.13,280 157.929,280 158.728,280 159.527,280 160.327,280 161.126,280 161.925,280 162.724,280 163.523,280 164.322,280 165.122,280 165.921,280 166.72,280 167.519,280 168.318,280 169.117,280 169.917,280 170.716,280 171.515,280 172.314,280 173.113,280 173.912,280 174.712,280 175.511,280 176.31,280 177.109,280 177.908,280 178.707,280 179.507,280 180.306,280 181.105,280 181.904,280 182.703,280 183.502,280 184.302,280 185.101,280 185.9,280 186.699,280 187.498,280 188.297,280 189.097,280 189.896,280 190.695,280 191.494,280 192.293,280 193.092,280 193.892,280 194.691,280 195.49,280 196.289,280 197.088,280 197.887,280 198.687,280 199.486,280 200.285,280 201.084,280 201.883,280 202.682,280 203.482,280 204.281,280 205.08,280 205.879,280 206.678,280 207.477,280 208.277,280 209.076,280 209.875,280 210.674,280 211.473,280 212.272,280 213.072,280 213.871,280 214.67,280 215.469,280 216.268,280 217.067,280 217.867,280 218.666,280 219.465,280 220.264,280 221.063,280 221.862,280 222.662,280 223.461,280 224.26,280 225.059,280 225.858,280 226.657,280 1125.72,280 1126.52,280 1127.32,280 1128.12,280 1128.92,280 1129.72,280 1130.51,280 1131.31,280 1132.11,280 1132.91,280 1133.71,280 1134.51,280 1135.31,280 1136.11,280 1136.91,280 1137.71,280 1138.51,280 1139.31,280 1140.1,280 1140.9,280 1141.7,280 1142.5,280 1143.3,280 1144.1,280 1144.9,280 1146.5,280 1147.3,280 1148.1,280 1148.9,280 1149.69,280 1150.49,280 1151.29,280 1152.09,280 1152.89,280 1153.69,280 1154.49,280 1155.29,280 1156.09,280 1156.89,280 1157.69,280 1158.49,280 1159.28,280 1160.08,280 1160.88,280 1161.68,280 1162.48,280 1163.28,280 1164.08,280 1164.88,280 1165.68,280 1166.48,280 1167.28,280 1168.08,280 1168.87,280 1169.67,280 1170.47,280 1171.27,280 1172.07,280 1172.87,280 1173.67,280 1174.47,280 1175.27,280 1176.07,280 1176.87,280 1177.67,280 1178.46,280 1179.26,280 1180.06,280 1180.86,280 1181.66,280 1182.46,280 1183.26,280 1184.06,280 1184.86,280 1185.66,280 1186.46,280 1187.26,280 1188.05,280 1188.85,280 1189.65,280 1190.45,280 1191.25,280 1192.05,280 1192.85,280 1193.65,280 1194.45,280 1195.25,280 1196.05,280 1196.85,280 1197.64,280 1198.44,280 1199.24,280 1200.04,280 1200.84,280 1201.64,280 1202.44,280 1203.24,280 1204.04,280 1204.84,280 1205.64,280 1206.44,280 1207.23,280 1208.03,280 1208.83,280 1209.63,280 1210.43,280 1211.23,280 1212.03,280 1212.83,280 1213.63,280 1214.43,280 1215.23,280 1216.03,280 1216.82,280 1217.62,280 1218.42,280 1219.22,280 1220.02,280 1220.82,280 1221.62,280 1222.42,280 1223.22,280 1224.02,280 1224.82,280 1225.62,280 1226.41,280 1227.21,280 1228.01,280 1228.81,280 1229.61,280 1230.41,280 1231.21,280 1232.01,280 1232.81,280 1233.61,280 1234.41,280 1235.21,280 1236,280 1236.8,280 1237.6,280 1238.4,280 1239.2,280 1240,280 "/>
<rect x="980" y="42" width="240" height="54" rx="8" ry="8" fill="#ffffff" stroke="#cbd5e1"/>
<line x1="1000" y1="69" x2="1032" y2="69" stroke="#2ca02c" stroke-width="3"/>
<text x="1042" y="74" class="axis">G10 C1 TGD correction</text>
</svg>
