<?xml version="1.0" encoding="utf-8" standalone="no"?>
<!DOCTYPE svg PUBLIC "-//W3C//DTD SVG 1.1//EN"
  "http://www.w3.org/Graphics/SVG/1.1/DTD/svg11.dtd">
<svg xmlns:xlink="http://www.w3.org/1999/xlink" width="238.79952pt" height="181.19952pt" viewBox="0 0 238.79952 181.19952" xmlns="http://www.w3.org/2000/svg" version="1.1">
 <metadata>
  <rdf:RDF xmlns:dc="http://purl.org/dc/elements/1.1/" xmlns:cc="http://creativecommons.org/ns#" xmlns:rdf="http://www.w3.org/1999/02/22-rdf-syntax-ns#">
   <cc:Work>
    <dc:type rdf:resource="http://purl.org/dc/dcmitype/StillImage"/>
    <dc:date>2026-04-22T23:17:52.214447</dc:date>
    <dc:format>image/svg+xml</dc:format>
    <dc:creator>
     <cc:Agent>
      <dc:title>Matplotlib v3.10.0, https://matplotlib.org/</dc:title>
     </cc:Agent>
    </dc:creator>
   </cc:Work>
  </rdf:RDF>
 </metadata>
 <defs>
  <style type="text/css">*{stroke-linejoin: round; stroke-linecap: butt}</style>
 </defs>
 <g id="figure_1">
  <g id="patch_1">
   <path d="M 0 181.19952 
L 238.79952 181.19952 
L 238.79952 0 
L 0 0 
z
" style="fill: #ffffff"/>
  </g>
  <g id="axes_1">
   <g id="patch_2">
    <path d="M 24.810938 151.954207 
L 235.19952 151.954207 
L 235.19952 3.6 
L 24.810938 3.6 
z
" style="fill: #ffffff"/>
   </g>
   <g id="matplotlib.axis_1">
    <g id="xtick_1">
     <g id="line2d_1">
      <path d="M 24.810937 151.954207 
L 24.810937 3.6 
" clip-path="url(#p63c2deb883)" style="fill: none; stroke-dasharray: 2.59,1.12; stroke-dashoffset: 0; stroke: #d7d7d7; stroke-opacity: 0.7; stroke-width: 0.7"/>
     </g>
     <g id="line2d_2">
      <defs>
       <path id="mea3684ea17" d="M 0 0 
L 0 -3 
" style="stroke: #000000; stroke-width: 0.5"/>
      </defs>
      <g>
       <use xlink:href="#mea3684ea17" x="24.810937" y="151.954207" style="stroke: #000000; stroke-width: 0.5"/>
      </g>
     </g>
     <g id="line2d_3">
      <defs>
       <path id="maca4ccb8a7" d="M 0 0 
L 0 3 
" style="stroke: #000000; stroke-width: 0.5"/>
      </defs>
      <g>
       <use xlink:href="#maca4ccb8a7" x="24.810937" y="3.6" style="stroke: #000000; stroke-width: 0.5"/>
      </g>
     </g>
     <g id="text_1">
      <!-- 0 -->
      <g transform="translate(22.310937 162.397958) scale(0.1 -0.1)">
       <defs>
        <path id="TimesNewRomanPSMT-30" d="M 231 2094 
Q 231 2819 450 3342 
Q 669 3866 1031 4122 
Q 1313 4325 1613 4325 
Q 2100 4325 2488 3828 
Q 2972 3213 2972 2159 
Q 2972 1422 2759 906 
Q 2547 391 2217 158 
Q 1888 -75 1581 -75 
Q 975 -75 572 641 
Q 231 1244 231 2094 
z
M 844 2016 
Q 844 1141 1059 588 
Q 1238 122 1591 122 
Q 1759 122 1940 273 
Q 2122 425 2216 781 
Q 2359 1319 2359 2297 
Q 2359 3022 2209 3506 
Q 2097 3866 1919 4016 
Q 1791 4119 1609 4119 
Q 1397 4119 1231 3928 
Q 1006 3669 925 3112 
Q 844 2556 844 2016 
z
" transform="scale(0.015625)"/>
       </defs>
       <use xlink:href="#TimesNewRomanPSMT-30"/>
      </g>
     </g>
    </g>
    <g id="xtick_2">
     <g id="line2d_4">
      <path d="M 51.127786 151.954207 
L 51.127786 3.6 
" clip-path="url(#p63c2deb883)" style="fill: none; stroke-dasharray: 2.59,1.12; stroke-dashoffset: 0; stroke: #d7d7d7; stroke-opacity: 0.7; stroke-width: 0.7"/>
     </g>
     <g id="line2d_5">
      <g>
       <use xlink:href="#mea3684ea17" x="51.127786" y="151.954207" style="stroke: #000000; stroke-width: 0.5"/>
      </g>
     </g>
     <g id="line2d_6">
      <g>
       <use xlink:href="#maca4ccb8a7" x="51.127786" y="3.6" style="stroke: #000000; stroke-width: 0.5"/>
      </g>
     </g>
     <g id="text_2">
      <!-- 3 -->
      <g transform="translate(48.627786 162.397958) scale(0.1 -0.1)">
       <defs>
        <path id="TimesNewRomanPSMT-33" d="M 325 3431 
Q 506 3859 782 4092 
Q 1059 4325 1472 4325 
Q 1981 4325 2253 3994 
Q 2459 3747 2459 3466 
Q 2459 3003 1878 2509 
Q 2269 2356 2469 2072 
Q 2669 1788 2669 1403 
Q 2669 853 2319 450 
Q 1863 -75 997 -75 
Q 569 -75 414 31 
Q 259 138 259 259 
Q 259 350 332 419 
Q 406 488 509 488 
Q 588 488 669 463 
Q 722 447 909 348 
Q 1097 250 1169 231 
Q 1284 197 1416 197 
Q 1734 197 1970 444 
Q 2206 691 2206 1028 
Q 2206 1275 2097 1509 
Q 2016 1684 1919 1775 
Q 1784 1900 1550 2001 
Q 1316 2103 1072 2103 
L 972 2103 
L 972 2197 
Q 1219 2228 1467 2375 
Q 1716 2522 1828 2728 
Q 1941 2934 1941 3181 
Q 1941 3503 1739 3701 
Q 1538 3900 1238 3900 
Q 753 3900 428 3381 
L 325 3431 
z
" transform="scale(0.015625)"/>
       </defs>
       <use xlink:href="#TimesNewRomanPSMT-33"/>
      </g>
     </g>
    </g>
    <g id="xtick_3">
     <g id="line2d_7">
      <path d="M 77.444634 151.954207 
L 77.444634 3.6 
" clip-path="url(#p63c2deb883)" style="fill: none; stroke-dasharray: 2.59,1.12; stroke-dashoffset: 0; stroke: #d7d7d7; stroke-opacity: 0.7; stroke-width: 0.7"/>
     </g>
     <g id="line2d_8">
      <g>
       <use xlink:href="#mea3684ea17" x="77.444634" y="151.954207" style="stroke: #000000; stroke-width: 0.5"/>
      </g>
     </g>
     <g id="line2d_9">
      <g>
       <use xlink:href="#maca4ccb8a7" x="77.444634" y="3.6" style="stroke: #000000; stroke-width: 0.5"/>
      </g>
     </g>
     <g id="text_3">
      <!-- 6 -->
      <g transform="translate(74.944634 162.397958) scale(0.1 -0.1)">
       <defs>
        <path id="TimesNewRomanPSMT-36" d="M 2869 4325 
L 2869 4209 
Q 2456 4169 2195 4045 
Q 1934 3922 1679 3669 
Q 1425 3416 1258 3105 
Q 1091 2794 978 2366 
Q 1428 2675 1881 2675 
Q 2316 2675 2634 2325 
Q 2953 1975 2953 1425 
Q 2953 894 2631 456 
Q 2244 -75 1606 -75 
Q 1172 -75 869 213 
Q 275 772 275 1663 
Q 275 2231 503 2743 
Q 731 3256 1154 3653 
Q 1578 4050 1965 4187 
Q 2353 4325 2688 4325 
L 2869 4325 
z
M 925 2138 
Q 869 1716 869 1456 
Q 869 1156 980 804 
Q 1091 453 1309 247 
Q 1469 100 1697 100 
Q 1969 100 2183 356 
Q 2397 613 2397 1088 
Q 2397 1622 2184 2012 
Q 1972 2403 1581 2403 
Q 1463 2403 1327 2353 
Q 1191 2303 925 2138 
z
" transform="scale(0.015625)"/>
       </defs>
       <use xlink:href="#TimesNewRomanPSMT-36"/>
      </g>
     </g>
    </g>
    <g id="xtick_4">
     <g id="line2d_10">
      <path d="M 103.761483 151.954207 
L 103.761483 3.6 
" clip-path="url(#p63c2deb883)" style="fill: none; stroke-dasharray: 2.59,1.12; stroke-dashoffset: 0; stroke: #d7d7d7; stroke-opacity: 0.7; stroke-width: 0.7"/>
     </g>
     <g id="line2d_11">
      <g>
       <use xlink:href="#mea3684ea17" x="103.761483" y="151.954207" style="stroke: #000000; stroke-width: 0.5"/>
      </g>
     </g>
     <g id="line2d_12">
      <g>
       <use xlink:href="#maca4ccb8a7" x="103.761483" y="3.6" style="stroke: #000000; stroke-width: 0.5"/>
      </g>
     </g>
     <g id="text_4">
      <!-- 9 -->
      <g transform="translate(101.261483 162.397958) scale(0.1 -0.1)">
       <defs>
        <path id="TimesNewRomanPSMT-39" d="M 338 -88 
L 338 28 
Q 744 34 1094 217 
Q 1444 400 1770 856 
Q 2097 1313 2225 1859 
Q 1734 1544 1338 1544 
Q 891 1544 572 1889 
Q 253 2234 253 2806 
Q 253 3363 572 3797 
Q 956 4325 1575 4325 
Q 2097 4325 2469 3894 
Q 2925 3359 2925 2575 
Q 2925 1869 2578 1258 
Q 2231 647 1613 244 
Q 1109 -88 516 -88 
L 338 -88 
z
M 2275 2091 
Q 2331 2497 2331 2741 
Q 2331 3044 2228 3395 
Q 2125 3747 1936 3934 
Q 1747 4122 1506 4122 
Q 1228 4122 1018 3872 
Q 809 3622 809 3128 
Q 809 2469 1088 2097 
Q 1291 1828 1588 1828 
Q 1731 1828 1928 1897 
Q 2125 1966 2275 2091 
z
" transform="scale(0.015625)"/>
       </defs>
       <use xlink:href="#TimesNewRomanPSMT-39"/>
      </g>
     </g>
    </g>
    <g id="xtick_5">
     <g id="line2d_13">
      <path d="M 130.078331 151.954207 
L 130.078331 3.6 
" clip-path="url(#p63c2deb883)" style="fill: none; stroke-dasharray: 2.59,1.12; stroke-dashoffset: 0; stroke: #d7d7d7; stroke-opacity: 0.7; stroke-width: 0.7"/>
     </g>
     <g id="line2d_14">
      <g>
       <use xlink:href="#mea3684ea17" x="130.078331" y="151.954207" style="stroke: #000000; stroke-width: 0.5"/>
      </g>
     </g>
     <g id="line2d_15">
      <g>
       <use xlink:href="#maca4ccb8a7" x="130.078331" y="3.6" style="stroke: #000000; stroke-width: 0.5"/>
      </g>
     </g>
     <g id="text_5">
      <!-- 12 -->
      <g transform="translate(125.078331 162.397958) scale(0.1 -0.1)">
       <defs>
        <path id="TimesNewRomanPSMT-31" d="M 750 3822 
L 1781 4325 
L 1884 4325 
L 1884 747 
Q 1884 391 1914 303 
Q 1944 216 2037 169 
Q 2131 122 2419 116 
L 2419 0 
L 825 0 
L 825 116 
Q 1125 122 1212 167 
Q 1300 213 1334 289 
Q 1369 366 1369 747 
L 1369 3034 
Q 1369 3497 1338 3628 
Q 1316 3728 1258 3775 
Q 1200 3822 1119 3822 
Q 1003 3822 797 3725 
L 750 3822 
z
" transform="scale(0.015625)"/>
        <path id="TimesNewRomanPSMT-32" d="M 2934 816 
L 2638 0 
L 138 0 
L 138 116 
Q 1241 1122 1691 1759 
Q 2141 2397 2141 2925 
Q 2141 3328 1894 3587 
Q 1647 3847 1303 3847 
Q 991 3847 742 3664 
Q 494 3481 375 3128 
L 259 3128 
Q 338 3706 661 4015 
Q 984 4325 1469 4325 
Q 1984 4325 2329 3994 
Q 2675 3663 2675 3213 
Q 2675 2891 2525 2569 
Q 2294 2063 1775 1497 
Q 997 647 803 472 
L 1909 472 
Q 2247 472 2383 497 
Q 2519 522 2628 598 
Q 2738 675 2819 816 
L 2934 816 
z
" transform="scale(0.015625)"/>
       </defs>
       <use xlink:href="#TimesNewRomanPSMT-31"/>
       <use xlink:href="#TimesNewRomanPSMT-32" transform="translate(50 0)"/>
      </g>
     </g>
    </g>
    <g id="xtick_6">
     <g id="line2d_16">
      <path d="M 156.39518 151.954207 
L 156.39518 3.6 
" clip-path="url(#p63c2deb883)" style="fill: none; stroke-dasharray: 2.59,1.12; stroke-dashoffset: 0; stroke: #d7d7d7; stroke-opacity: 0.7; stroke-width: 0.7"/>
     </g>
     <g id="line2d_17">
      <g>
       <use xlink:href="#mea3684ea17" x="156.39518" y="151.954207" style="stroke: #000000; stroke-width: 0.5"/>
      </g>
     </g>
     <g id="line2d_18">
      <g>
       <use xlink:href="#maca4ccb8a7" x="156.39518" y="3.6" style="stroke: #000000; stroke-width: 0.5"/>
      </g>
     </g>
     <g id="text_6">
      <!-- 15 -->
      <g transform="translate(151.39518 162.397958) scale(0.1 -0.1)">
       <defs>
        <path id="TimesNewRomanPSMT-35" d="M 2778 4238 
L 2534 3706 
L 1259 3706 
L 981 3138 
Q 1809 3016 2294 2522 
Q 2709 2097 2709 1522 
Q 2709 1188 2573 903 
Q 2438 619 2231 419 
Q 2025 219 1772 97 
Q 1413 -75 1034 -75 
Q 653 -75 479 54 
Q 306 184 306 341 
Q 306 428 378 495 
Q 450 563 559 563 
Q 641 563 702 538 
Q 763 513 909 409 
Q 1144 247 1384 247 
Q 1750 247 2026 523 
Q 2303 800 2303 1197 
Q 2303 1581 2056 1914 
Q 1809 2247 1375 2428 
Q 1034 2569 447 2591 
L 1259 4238 
L 2778 4238 
z
" transform="scale(0.015625)"/>
       </defs>
       <use xlink:href="#TimesNewRomanPSMT-31"/>
       <use xlink:href="#TimesNewRomanPSMT-35" transform="translate(50 0)"/>
      </g>
     </g>
    </g>
    <g id="xtick_7">
     <g id="line2d_19">
      <path d="M 182.712028 151.954207 
L 182.712028 3.6 
" clip-path="url(#p63c2deb883)" style="fill: none; stroke-dasharray: 2.59,1.12; stroke-dashoffset: 0; stroke: #d7d7d7; stroke-opacity: 0.7; stroke-width: 0.7"/>
     </g>
     <g id="line2d_20">
      <g>
       <use xlink:href="#mea3684ea17" x="182.712028" y="151.954207" style="stroke: #000000; stroke-width: 0.5"/>
      </g>
     </g>
     <g id="line2d_21">
      <g>
       <use xlink:href="#maca4ccb8a7" x="182.712028" y="3.6" style="stroke: #000000; stroke-width: 0.5"/>
      </g>
     </g>
     <g id="text_7">
      <!-- 18 -->
      <g transform="translate(177.712028 162.397958) scale(0.1 -0.1)">
       <defs>
        <path id="TimesNewRomanPSMT-38" d="M 1228 2134 
Q 725 2547 579 2797 
Q 434 3047 434 3316 
Q 434 3728 753 4026 
Q 1072 4325 1600 4325 
Q 2113 4325 2425 4047 
Q 2738 3769 2738 3413 
Q 2738 3175 2569 2928 
Q 2400 2681 1866 2347 
Q 2416 1922 2594 1678 
Q 2831 1359 2831 1006 
Q 2831 559 2490 242 
Q 2150 -75 1597 -75 
Q 994 -75 656 303 
Q 388 606 388 966 
Q 388 1247 577 1523 
Q 766 1800 1228 2134 
z
M 1719 2469 
Q 2094 2806 2194 3001 
Q 2294 3197 2294 3444 
Q 2294 3772 2109 3958 
Q 1925 4144 1606 4144 
Q 1288 4144 1088 3959 
Q 888 3775 888 3528 
Q 888 3366 970 3203 
Q 1053 3041 1206 2894 
L 1719 2469 
z
M 1375 2016 
Q 1116 1797 991 1539 
Q 866 1281 866 981 
Q 866 578 1086 336 
Q 1306 94 1647 94 
Q 1984 94 2187 284 
Q 2391 475 2391 747 
Q 2391 972 2272 1150 
Q 2050 1481 1375 2016 
z
" transform="scale(0.015625)"/>
       </defs>
       <use xlink:href="#TimesNewRomanPSMT-31"/>
       <use xlink:href="#TimesNewRomanPSMT-38" transform="translate(50 0)"/>
      </g>
     </g>
    </g>
    <g id="xtick_8">
     <g id="line2d_22">
      <path d="M 209.028876 151.954207 
L 209.028876 3.6 
" clip-path="url(#p63c2deb883)" style="fill: none; stroke-dasharray: 2.59,1.12; stroke-dashoffset: 0; stroke: #d7d7d7; stroke-opacity: 0.7; stroke-width: 0.7"/>
     </g>
     <g id="line2d_23">
      <g>
       <use xlink:href="#mea3684ea17" x="209.028876" y="151.954207" style="stroke: #000000; stroke-width: 0.5"/>
      </g>
     </g>
     <g id="line2d_24">
      <g>
       <use xlink:href="#maca4ccb8a7" x="209.028876" y="3.6" style="stroke: #000000; stroke-width: 0.5"/>
      </g>
     </g>
     <g id="text_8">
      <!-- 21 -->
      <g transform="translate(204.028876 162.397958) scale(0.1 -0.1)">
       <use xlink:href="#TimesNewRomanPSMT-32"/>
       <use xlink:href="#TimesNewRomanPSMT-31" transform="translate(50 0)"/>
      </g>
     </g>
    </g>
    <g id="xtick_9">
     <g id="line2d_25">
      <path d="M 31.39015 151.954207 
L 31.39015 3.6 
" clip-path="url(#p63c2deb883)" style="fill: none; stroke-dasharray: 1.295,0.56; stroke-dashoffset: 0; stroke: #d7d7d7; stroke-opacity: 0.28; stroke-width: 0.35"/>
     </g>
     <g id="line2d_26">
      <defs>
       <path id="m52d9a34b8a" d="M 0 0 
L 0 -1.5 
" style="stroke: #000000; stroke-width: 0.5"/>
      </defs>
      <g>
       <use xlink:href="#m52d9a34b8a" x="31.39015" y="151.954207" style="stroke: #000000; stroke-width: 0.5"/>
      </g>
     </g>
     <g id="line2d_27">
      <defs>
       <path id="m52e277e274" d="M 0 0 
L 0 1.5 
" style="stroke: #000000; stroke-width: 0.5"/>
      </defs>
      <g>
       <use xlink:href="#m52e277e274" x="31.39015" y="3.6" style="stroke: #000000; stroke-width: 0.5"/>
      </g>
     </g>
    </g>
    <g id="xtick_10">
     <g id="line2d_28">
      <path d="M 37.969362 151.954207 
L 37.969362 3.6 
" clip-path="url(#p63c2deb883)" style="fill: none; stroke-dasharray: 1.295,0.56; stroke-dashoffset: 0; stroke: #d7d7d7; stroke-opacity: 0.28; stroke-width: 0.35"/>
     </g>
     <g id="line2d_29">
      <g>
       <use xlink:href="#m52d9a34b8a" x="37.969362" y="151.954207" style="stroke: #000000; stroke-width: 0.5"/>
      </g>
     </g>
     <g id="line2d_30">
      <g>
       <use xlink:href="#m52e277e274" x="37.969362" y="3.6" style="stroke: #000000; stroke-width: 0.5"/>
      </g>
     </g>
    </g>
    <g id="xtick_11">
     <g id="line2d_31">
      <path d="M 44.548574 151.954207 
L 44.548574 3.6 
" clip-path="url(#p63c2deb883)" style="fill: none; stroke-dasharray: 1.295,0.56; stroke-dashoffset: 0; stroke: #d7d7d7; stroke-opacity: 0.28; stroke-width: 0.35"/>
     </g>
     <g id="line2d_32">
      <g>
       <use xlink:href="#m52d9a34b8a" x="44.548574" y="151.954207" style="stroke: #000000; stroke-width: 0.5"/>
      </g>
     </g>
     <g id="line2d_33">
      <g>
       <use xlink:href="#m52e277e274" x="44.548574" y="3.6" style="stroke: #000000; stroke-width: 0.5"/>
      </g>
     </g>
    </g>
    <g id="xtick_12">
     <g id="line2d_34">
      <path d="M 57.706998 151.954207 
L 57.706998 3.6 
" clip-path="url(#p63c2deb883)" style="fill: none; stroke-dasharray: 1.295,0.56; stroke-dashoffset: 0; stroke: #d7d7d7; stroke-opacity: 0.28; stroke-width: 0.35"/>
     </g>
     <g id="line2d_35">
      <g>
       <use xlink:href="#m52d9a34b8a" x="57.706998" y="151.954207" style="stroke: #000000; stroke-width: 0.5"/>
      </g>
     </g>
     <g id="line2d_36">
      <g>
       <use xlink:href="#m52e277e274" x="57.706998" y="3.6" style="stroke: #000000; stroke-width: 0.5"/>
      </g>
     </g>
    </g>
    <g id="xtick_13">
     <g id="line2d_37">
      <path d="M 64.28621 151.954207 
L 64.28621 3.6 
" clip-path="url(#p63c2deb883)" style="fill: none; stroke-dasharray: 1.295,0.56; stroke-dashoffset: 0; stroke: #d7d7d7; stroke-opacity: 0.28; stroke-width: 0.35"/>
     </g>
     <g id="line2d_38">
      <g>
       <use xlink:href="#m52d9a34b8a" x="64.28621" y="151.954207" style="stroke: #000000; stroke-width: 0.5"/>
      </g>
     </g>
     <g id="line2d_39">
      <g>
       <use xlink:href="#m52e277e274" x="64.28621" y="3.6" style="stroke: #000000; stroke-width: 0.5"/>
      </g>
     </g>
    </g>
    <g id="xtick_14">
     <g id="line2d_40">
      <path d="M 70.865422 151.954207 
L 70.865422 3.6 
" clip-path="url(#p63c2deb883)" style="fill: none; stroke-dasharray: 1.295,0.56; stroke-dashoffset: 0; stroke: #d7d7d7; stroke-opacity: 0.28; stroke-width: 0.35"/>
     </g>
     <g id="line2d_41">
      <g>
       <use xlink:href="#m52d9a34b8a" x="70.865422" y="151.954207" style="stroke: #000000; stroke-width: 0.5"/>
      </g>
     </g>
     <g id="line2d_42">
      <g>
       <use xlink:href="#m52e277e274" x="70.865422" y="3.6" style="stroke: #000000; stroke-width: 0.5"/>
      </g>
     </g>
    </g>
    <g id="xtick_15">
     <g id="line2d_43">
      <path d="M 84.023846 151.954207 
L 84.023846 3.6 
" clip-path="url(#p63c2deb883)" style="fill: none; stroke-dasharray: 1.295,0.56; stroke-dashoffset: 0; stroke: #d7d7d7; stroke-opacity: 0.28; stroke-width: 0.35"/>
     </g>
     <g id="line2d_44">
      <g>
       <use xlink:href="#m52d9a34b8a" x="84.023846" y="151.954207" style="stroke: #000000; stroke-width: 0.5"/>
      </g>
     </g>
     <g id="line2d_45">
      <g>
       <use xlink:href="#m52e277e274" x="84.023846" y="3.6" style="stroke: #000000; stroke-width: 0.5"/>
      </g>
     </g>
    </g>
    <g id="xtick_16">
     <g id="line2d_46">
      <path d="M 90.603059 151.954207 
L 90.603059 3.6 
" clip-path="url(#p63c2deb883)" style="fill: none; stroke-dasharray: 1.295,0.56; stroke-dashoffset: 0; stroke: #d7d7d7; stroke-opacity: 0.28; stroke-width: 0.35"/>
     </g>
     <g id="line2d_47">
      <g>
       <use xlink:href="#m52d9a34b8a" x="90.603059" y="151.954207" style="stroke: #000000; stroke-width: 0.5"/>
      </g>
     </g>
     <g id="line2d_48">
      <g>
       <use xlink:href="#m52e277e274" x="90.603059" y="3.6" style="stroke: #000000; stroke-width: 0.5"/>
      </g>
     </g>
    </g>
    <g id="xtick_17">
     <g id="line2d_49">
      <path d="M 97.182271 151.954207 
L 97.182271 3.6 
" clip-path="url(#p63c2deb883)" style="fill: none; stroke-dasharray: 1.295,0.56; stroke-dashoffset: 0; stroke: #d7d7d7; stroke-opacity: 0.28; stroke-width: 0.35"/>
     </g>
     <g id="line2d_50">
      <g>
       <use xlink:href="#m52d9a34b8a" x="97.182271" y="151.954207" style="stroke: #000000; stroke-width: 0.5"/>
      </g>
     </g>
     <g id="line2d_51">
      <g>
       <use xlink:href="#m52e277e274" x="97.182271" y="3.6" style="stroke: #000000; stroke-width: 0.5"/>
      </g>
     </g>
    </g>
    <g id="xtick_18">
     <g id="line2d_52">
      <path d="M 110.340695 151.954207 
L 110.340695 3.6 
" clip-path="url(#p63c2deb883)" style="fill: none; stroke-dasharray: 1.295,0.56; stroke-dashoffset: 0; stroke: #d7d7d7; stroke-opacity: 0.28; stroke-width: 0.35"/>
     </g>
     <g id="line2d_53">
      <g>
       <use xlink:href="#m52d9a34b8a" x="110.340695" y="151.954207" style="stroke: #000000; stroke-width: 0.5"/>
      </g>
     </g>
     <g id="line2d_54">
      <g>
       <use xlink:href="#m52e277e274" x="110.340695" y="3.6" style="stroke: #000000; stroke-width: 0.5"/>
      </g>
     </g>
    </g>
    <g id="xtick_19">
     <g id="line2d_55">
      <path d="M 116.919907 151.954207 
L 116.919907 3.6 
" clip-path="url(#p63c2deb883)" style="fill: none; stroke-dasharray: 1.295,0.56; stroke-dashoffset: 0; stroke: #d7d7d7; stroke-opacity: 0.28; stroke-width: 0.35"/>
     </g>
     <g id="line2d_56">
      <g>
       <use xlink:href="#m52d9a34b8a" x="116.919907" y="151.954207" style="stroke: #000000; stroke-width: 0.5"/>
      </g>
     </g>
     <g id="line2d_57">
      <g>
       <use xlink:href="#m52e277e274" x="116.919907" y="3.6" style="stroke: #000000; stroke-width: 0.5"/>
      </g>
     </g>
    </g>
    <g id="xtick_20">
     <g id="line2d_58">
      <path d="M 123.499119 151.954207 
L 123.499119 3.6 
" clip-path="url(#p63c2deb883)" style="fill: none; stroke-dasharray: 1.295,0.56; stroke-dashoffset: 0; stroke: #d7d7d7; stroke-opacity: 0.28; stroke-width: 0.35"/>
     </g>
     <g id="line2d_59">
      <g>
       <use xlink:href="#m52d9a34b8a" x="123.499119" y="151.954207" style="stroke: #000000; stroke-width: 0.5"/>
      </g>
     </g>
     <g id="line2d_60">
      <g>
       <use xlink:href="#m52e277e274" x="123.499119" y="3.6" style="stroke: #000000; stroke-width: 0.5"/>
      </g>
     </g>
    </g>
    <g id="xtick_21">
     <g id="line2d_61">
      <path d="M 136.657543 151.954207 
L 136.657543 3.6 
" clip-path="url(#p63c2deb883)" style="fill: none; stroke-dasharray: 1.295,0.56; stroke-dashoffset: 0; stroke: #d7d7d7; stroke-opacity: 0.28; stroke-width: 0.35"/>
     </g>
     <g id="line2d_62">
      <g>
       <use xlink:href="#m52d9a34b8a" x="136.657543" y="151.954207" style="stroke: #000000; stroke-width: 0.5"/>
      </g>
     </g>
     <g id="line2d_63">
      <g>
       <use xlink:href="#m52e277e274" x="136.657543" y="3.6" style="stroke: #000000; stroke-width: 0.5"/>
      </g>
     </g>
    </g>
    <g id="xtick_22">
     <g id="line2d_64">
      <path d="M 143.236755 151.954207 
L 143.236755 3.6 
" clip-path="url(#p63c2deb883)" style="fill: none; stroke-dasharray: 1.295,0.56; stroke-dashoffset: 0; stroke: #d7d7d7; stroke-opacity: 0.28; stroke-width: 0.35"/>
     </g>
     <g id="line2d_65">
      <g>
       <use xlink:href="#m52d9a34b8a" x="143.236755" y="151.954207" style="stroke: #000000; stroke-width: 0.5"/>
      </g>
     </g>
     <g id="line2d_66">
      <g>
       <use xlink:href="#m52e277e274" x="143.236755" y="3.6" style="stroke: #000000; stroke-width: 0.5"/>
      </g>
     </g>
    </g>
    <g id="xtick_23">
     <g id="line2d_67">
      <path d="M 149.815967 151.954207 
L 149.815967 3.6 
" clip-path="url(#p63c2deb883)" style="fill: none; stroke-dasharray: 1.295,0.56; stroke-dashoffset: 0; stroke: #d7d7d7; stroke-opacity: 0.28; stroke-width: 0.35"/>
     </g>
     <g id="line2d_68">
      <g>
       <use xlink:href="#m52d9a34b8a" x="149.815967" y="151.954207" style="stroke: #000000; stroke-width: 0.5"/>
      </g>
     </g>
     <g id="line2d_69">
      <g>
       <use xlink:href="#m52e277e274" x="149.815967" y="3.6" style="stroke: #000000; stroke-width: 0.5"/>
      </g>
     </g>
    </g>
    <g id="xtick_24">
     <g id="line2d_70">
      <path d="M 162.974392 151.954207 
L 162.974392 3.6 
" clip-path="url(#p63c2deb883)" style="fill: none; stroke-dasharray: 1.295,0.56; stroke-dashoffset: 0; stroke: #d7d7d7; stroke-opacity: 0.28; stroke-width: 0.35"/>
     </g>
     <g id="line2d_71">
      <g>
       <use xlink:href="#m52d9a34b8a" x="162.974392" y="151.954207" style="stroke: #000000; stroke-width: 0.5"/>
      </g>
     </g>
     <g id="line2d_72">
      <g>
       <use xlink:href="#m52e277e274" x="162.974392" y="3.6" style="stroke: #000000; stroke-width: 0.5"/>
      </g>
     </g>
    </g>
    <g id="xtick_25">
     <g id="line2d_73">
      <path d="M 169.553604 151.954207 
L 169.553604 3.6 
" clip-path="url(#p63c2deb883)" style="fill: none; stroke-dasharray: 1.295,0.56; stroke-dashoffset: 0; stroke: #d7d7d7; stroke-opacity: 0.28; stroke-width: 0.35"/>
     </g>
     <g id="line2d_74">
      <g>
       <use xlink:href="#m52d9a34b8a" x="169.553604" y="151.954207" style="stroke: #000000; stroke-width: 0.5"/>
      </g>
     </g>
     <g id="line2d_75">
      <g>
       <use xlink:href="#m52e277e274" x="169.553604" y="3.6" style="stroke: #000000; stroke-width: 0.5"/>
      </g>
     </g>
    </g>
    <g id="xtick_26">
     <g id="line2d_76">
      <path d="M 176.132816 151.954207 
L 176.132816 3.6 
" clip-path="url(#p63c2deb883)" style="fill: none; stroke-dasharray: 1.295,0.56; stroke-dashoffset: 0; stroke: #d7d7d7; stroke-opacity: 0.28; stroke-width: 0.35"/>
     </g>
     <g id="line2d_77">
      <g>
       <use xlink:href="#m52d9a34b8a" x="176.132816" y="151.954207" style="stroke: #000000; stroke-width: 0.5"/>
      </g>
     </g>
     <g id="line2d_78">
      <g>
       <use xlink:href="#m52e277e274" x="176.132816" y="3.6" style="stroke: #000000; stroke-width: 0.5"/>
      </g>
     </g>
    </g>
    <g id="xtick_27">
     <g id="line2d_79">
      <path d="M 189.29124 151.954207 
L 189.29124 3.6 
" clip-path="url(#p63c2deb883)" style="fill: none; stroke-dasharray: 1.295,0.56; stroke-dashoffset: 0; stroke: #d7d7d7; stroke-opacity: 0.28; stroke-width: 0.35"/>
     </g>
     <g id="line2d_80">
      <g>
       <use xlink:href="#m52d9a34b8a" x="189.29124" y="151.954207" style="stroke: #000000; stroke-width: 0.5"/>
      </g>
     </g>
     <g id="line2d_81">
      <g>
       <use xlink:href="#m52e277e274" x="189.29124" y="3.6" style="stroke: #000000; stroke-width: 0.5"/>
      </g>
     </g>
    </g>
    <g id="xtick_28">
     <g id="line2d_82">
      <path d="M 195.870452 151.954207 
L 195.870452 3.6 
" clip-path="url(#p63c2deb883)" style="fill: none; stroke-dasharray: 1.295,0.56; stroke-dashoffset: 0; stroke: #d7d7d7; stroke-opacity: 0.28; stroke-width: 0.35"/>
     </g>
     <g id="line2d_83">
      <g>
       <use xlink:href="#m52d9a34b8a" x="195.870452" y="151.954207" style="stroke: #000000; stroke-width: 0.5"/>
      </g>
     </g>
     <g id="line2d_84">
      <g>
       <use xlink:href="#m52e277e274" x="195.870452" y="3.6" style="stroke: #000000; stroke-width: 0.5"/>
      </g>
     </g>
    </g>
    <g id="xtick_29">
     <g id="line2d_85">
      <path d="M 202.449664 151.954207 
L 202.449664 3.6 
" clip-path="url(#p63c2deb883)" style="fill: none; stroke-dasharray: 1.295,0.56; stroke-dashoffset: 0; stroke: #d7d7d7; stroke-opacity: 0.28; stroke-width: 0.35"/>
     </g>
     <g id="line2d_86">
      <g>
       <use xlink:href="#m52d9a34b8a" x="202.449664" y="151.954207" style="stroke: #000000; stroke-width: 0.5"/>
      </g>
     </g>
     <g id="line2d_87">
      <g>
       <use xlink:href="#m52e277e274" x="202.449664" y="3.6" style="stroke: #000000; stroke-width: 0.5"/>
      </g>
     </g>
    </g>
    <g id="xtick_30">
     <g id="line2d_88">
      <path d="M 215.608088 151.954207 
L 215.608088 3.6 
" clip-path="url(#p63c2deb883)" style="fill: none; stroke-dasharray: 1.295,0.56; stroke-dashoffset: 0; stroke: #d7d7d7; stroke-opacity: 0.28; stroke-width: 0.35"/>
     </g>
     <g id="line2d_89">
      <g>
       <use xlink:href="#m52d9a34b8a" x="215.608088" y="151.954207" style="stroke: #000000; stroke-width: 0.5"/>
      </g>
     </g>
     <g id="line2d_90">
      <g>
       <use xlink:href="#m52e277e274" x="215.608088" y="3.6" style="stroke: #000000; stroke-width: 0.5"/>
      </g>
     </g>
    </g>
    <g id="xtick_31">
     <g id="line2d_91">
      <path d="M 222.187301 151.954207 
L 222.187301 3.6 
" clip-path="url(#p63c2deb883)" style="fill: none; stroke-dasharray: 1.295,0.56; stroke-dashoffset: 0; stroke: #d7d7d7; stroke-opacity: 0.28; stroke-width: 0.35"/>
     </g>
     <g id="line2d_92">
      <g>
       <use xlink:href="#m52d9a34b8a" x="222.187301" y="151.954207" style="stroke: #000000; stroke-width: 0.5"/>
      </g>
     </g>
     <g id="line2d_93">
      <g>
       <use xlink:href="#m52e277e274" x="222.187301" y="3.6" style="stroke: #000000; stroke-width: 0.5"/>
      </g>
     </g>
    </g>
    <g id="xtick_32">
     <g id="line2d_94">
      <path d="M 228.766513 151.954207 
L 228.766513 3.6 
" clip-path="url(#p63c2deb883)" style="fill: none; stroke-dasharray: 1.295,0.56; stroke-dashoffset: 0; stroke: #d7d7d7; stroke-opacity: 0.28; stroke-width: 0.35"/>
     </g>
     <g id="line2d_95">
      <g>
       <use xlink:href="#m52d9a34b8a" x="228.766513" y="151.954207" style="stroke: #000000; stroke-width: 0.5"/>
      </g>
     </g>
     <g id="line2d_96">
      <g>
       <use xlink:href="#m52e277e274" x="228.766513" y="3.6" style="stroke: #000000; stroke-width: 0.5"/>
      </g>
     </g>
    </g>
    <g id="text_9">
     <!-- 时间 / h -->
     <g transform="translate(110.005229 176.310458) scale(0.1 -0.1)">
      <defs>
       <path id="SimSun-65f6" d="M 4500 3600 
Q 4500 4575 4475 5225 
L 5100 4900 
L 4850 4725 
L 4850 3600 
L 5225 3600 
L 5550 3925 
L 6025 3450 
L 4850 3450 
L 4850 100 
Q 4850 -375 4300 -575 
Q 4275 -200 3475 -25 
L 3475 100 
Q 4150 0 4325 25 
Q 4500 50 4500 325 
L 4500 3450 
L 3200 3450 
Q 2875 3450 2600 3375 
L 2375 3600 
L 4500 3600 
z
M 2875 2825 
Q 3525 2375 3637 2200 
Q 3750 2025 3750 1925 
Q 3750 1800 3637 1637 
Q 3525 1475 3475 1475 
Q 3400 1475 3325 1775 
Q 3200 2225 2800 2750 
L 2875 2825 
z
M 925 4150 
L 925 2650 
L 1950 2650 
L 1950 4150 
L 925 4150 
z
M 925 2500 
L 925 900 
L 1950 900 
L 1950 2500 
L 925 2500 
z
M 2300 2000 
Q 2300 800 2325 450 
L 1950 250 
L 1950 750 
L 925 750 
L 925 225 
L 550 25 
Q 575 825 575 2425 
Q 575 4025 550 4500 
L 950 4300 
L 1900 4300 
L 2100 4550 
L 2500 4225 
L 2300 4050 
L 2300 2000 
z
" transform="scale(0.015625)"/>
       <path id="SimSun-95f4" d="M 2150 525 
Q 2175 1325 2175 2112 
Q 2175 2900 2150 3675 
L 2525 3450 
L 3750 3450 
L 4000 3700 
L 4325 3375 
L 4125 3200 
Q 4125 1550 4150 775 
L 3800 575 
L 3800 975 
L 2500 975 
L 2500 700 
L 2150 525 
z
M 2500 3300 
L 2500 2325 
L 3800 2325 
L 3800 3300 
L 2500 3300 
z
M 2500 2175 
L 2500 1125 
L 3800 1125 
L 3800 2175 
L 2500 2175 
z
M 1275 5200 
Q 1850 4825 1950 4675 
Q 2050 4525 2050 4425 
Q 2050 4275 1950 4137 
Q 1850 4000 1825 4000 
Q 1750 4000 1675 4275 
Q 1550 4650 1200 5125 
L 1275 5200 
z
M 1125 425 
Q 1125 25 1150 -375 
L 750 -525 
Q 775 -150 775 1950 
Q 775 4050 750 4425 
L 1350 4125 
L 1125 3975 
L 1125 425 
z
M 4225 125 
Q 5025 0 5125 37 
Q 5225 75 5225 250 
L 5225 4450 
L 3225 4450 
Q 2900 4450 2625 4375 
L 2400 4600 
L 5175 4600 
L 5425 4850 
L 5775 4500 
L 5575 4350 
L 5575 225 
Q 5575 -100 5462 -250 
Q 5350 -400 5000 -550 
Q 4800 -125 4225 25 
L 4225 125 
z
" transform="scale(0.015625)"/>
       <path id="SimSun-20" d="M 0 0 
Q 0 0 0 0 
z
" transform="scale(0.015625)"/>
       <path id="SimSun-2f" d="M 400 -475 
L 225 -375 
L 2775 4975 
L 2950 4875 
L 400 -475 
z
" transform="scale(0.015625)"/>
       <path id="SimSun-68" d="M 200 100 
L 200 250 
L 325 250 
Q 450 250 500 300 
Q 550 350 550 450 
L 550 4025 
Q 550 4125 500 4175 
Q 450 4225 325 4225 
L 175 4225 
L 175 4375 
L 450 4375 
Q 550 4375 650 4425 
Q 750 4475 850 4575 
L 900 4575 
L 900 2450 
Q 1125 2725 1362 2837 
Q 1600 2950 1875 2950 
Q 2250 2950 2450 2737 
Q 2650 2525 2650 2075 
L 2650 450 
Q 2650 350 2712 300 
Q 2775 250 2875 250 
L 3000 250 
L 3000 100 
L 1950 100 
L 1950 250 
L 2075 250 
Q 2200 250 2250 300 
Q 2300 350 2300 450 
L 2300 2025 
Q 2300 2450 2162 2587 
Q 2025 2725 1800 2725 
Q 1600 2725 1362 2600 
Q 1125 2475 900 2175 
L 900 450 
Q 900 350 962 300 
Q 1025 250 1125 250 
L 1250 250 
L 1250 100 
L 200 100 
z
" transform="scale(0.015625)"/>
      </defs>
      <use xlink:href="#SimSun-65f6"/>
      <use xlink:href="#SimSun-95f4" transform="translate(100 0)"/>
      <use xlink:href="#SimSun-20" transform="translate(200 0)"/>
      <use xlink:href="#SimSun-2f" transform="translate(250 0)"/>
      <use xlink:href="#SimSun-20" transform="translate(300 0)"/>
      <use xlink:href="#SimSun-68" transform="translate(350 0)"/>
     </g>
    </g>
   </g>
   <g id="matplotlib.axis_2">
    <g id="ytick_1">
     <g id="line2d_97">
      <path d="M 24.810938 140.233843 
L 235.19952 140.233843 
" clip-path="url(#p63c2deb883)" style="fill: none; stroke-dasharray: 2.59,1.12; stroke-dashoffset: 0; stroke: #d7d7d7; stroke-opacity: 0.7; stroke-width: 0.7"/>
     </g>
     <g id="line2d_98">
      <defs>
       <path id="m4d5166abe9" d="M 0 0 
L 3 0 
" style="stroke: #000000; stroke-width: 0.5"/>
      </defs>
      <g>
       <use xlink:href="#m4d5166abe9" x="24.810938" y="140.233843" style="stroke: #000000; stroke-width: 0.5"/>
      </g>
     </g>
     <g id="line2d_99">
      <defs>
       <path id="mcd686dee1c" d="M 0 0 
L -3 0 
" style="stroke: #000000; stroke-width: 0.5"/>
      </defs>
      <g>
       <use xlink:href="#mcd686dee1c" x="235.19952" y="140.233843" style="stroke: #000000; stroke-width: 0.5"/>
      </g>
     </g>
     <g id="text_10">
      <!-- $\mathdefault{3}$ -->
      <g transform="translate(16.310938 143.705718) scale(0.1 -0.1)">
       <use xlink:href="#TimesNewRomanPSMT-33" transform="translate(0 0.421875)"/>
      </g>
     </g>
    </g>
    <g id="ytick_2">
     <g id="line2d_100">
      <path d="M 24.810938 107.863798 
L 235.19952 107.863798 
" clip-path="url(#p63c2deb883)" style="fill: none; stroke-dasharray: 2.59,1.12; stroke-dashoffset: 0; stroke: #d7d7d7; stroke-opacity: 0.7; stroke-width: 0.7"/>
     </g>
     <g id="line2d_101">
      <g>
       <use xlink:href="#m4d5166abe9" x="24.810938" y="107.863798" style="stroke: #000000; stroke-width: 0.5"/>
      </g>
     </g>
     <g id="line2d_102">
      <g>
       <use xlink:href="#mcd686dee1c" x="235.19952" y="107.863798" style="stroke: #000000; stroke-width: 0.5"/>
      </g>
     </g>
     <g id="text_11">
      <!-- $\mathdefault{4}$ -->
      <g transform="translate(16.310938 111.335673) scale(0.1 -0.1)">
       <defs>
        <path id="TimesNewRomanPSMT-34" d="M 2978 1563 
L 2978 1119 
L 2409 1119 
L 2409 0 
L 1894 0 
L 1894 1119 
L 100 1119 
L 100 1519 
L 2066 4325 
L 2409 4325 
L 2409 1563 
L 2978 1563 
z
M 1894 1563 
L 1894 3666 
L 406 1563 
L 1894 1563 
z
" transform="scale(0.015625)"/>
       </defs>
       <use xlink:href="#TimesNewRomanPSMT-34" transform="translate(0 0.421875)"/>
      </g>
     </g>
    </g>
    <g id="ytick_3">
     <g id="line2d_103">
      <path d="M 24.810938 75.493753 
L 235.19952 75.493753 
" clip-path="url(#p63c2deb883)" style="fill: none; stroke-dasharray: 2.59,1.12; stroke-dashoffset: 0; stroke: #d7d7d7; stroke-opacity: 0.7; stroke-width: 0.7"/>
     </g>
     <g id="line2d_104">
      <g>
       <use xlink:href="#m4d5166abe9" x="24.810938" y="75.493753" style="stroke: #000000; stroke-width: 0.5"/>
      </g>
     </g>
     <g id="line2d_105">
      <g>
       <use xlink:href="#mcd686dee1c" x="235.19952" y="75.493753" style="stroke: #000000; stroke-width: 0.5"/>
      </g>
     </g>
     <g id="text_12">
      <!-- $\mathdefault{5}$ -->
      <g transform="translate(16.310938 78.965628) scale(0.1 -0.1)">
       <use xlink:href="#TimesNewRomanPSMT-35" transform="translate(0 0.78125)"/>
      </g>
     </g>
    </g>
    <g id="ytick_4">
     <g id="line2d_106">
      <path d="M 24.810938 43.123708 
L 235.19952 43.123708 
" clip-path="url(#p63c2deb883)" style="fill: none; stroke-dasharray: 2.59,1.12; stroke-dashoffset: 0; stroke: #d7d7d7; stroke-opacity: 0.7; stroke-width: 0.7"/>
     </g>
     <g id="line2d_107">
      <g>
       <use xlink:href="#m4d5166abe9" x="24.810938" y="43.123708" style="stroke: #000000; stroke-width: 0.5"/>
      </g>
     </g>
     <g id="line2d_108">
      <g>
       <use xlink:href="#mcd686dee1c" x="235.19952" y="43.123708" style="stroke: #000000; stroke-width: 0.5"/>
      </g>
     </g>
     <g id="text_13">
      <!-- $\mathdefault{6}$ -->
      <g transform="translate(16.310938 46.595583) scale(0.1 -0.1)">
       <use xlink:href="#TimesNewRomanPSMT-36" transform="translate(0 0.421875)"/>
      </g>
     </g>
    </g>
    <g id="ytick_5">
     <g id="line2d_109">
      <path d="M 24.810938 10.753663 
L 235.19952 10.753663 
" clip-path="url(#p63c2deb883)" style="fill: none; stroke-dasharray: 2.59,1.12; stroke-dashoffset: 0; stroke: #d7d7d7; stroke-opacity: 0.7; stroke-width: 0.7"/>
     </g>
     <g id="line2d_110">
      <g>
       <use xlink:href="#m4d5166abe9" x="24.810938" y="10.753663" style="stroke: #000000; stroke-width: 0.5"/>
      </g>
     </g>
     <g id="line2d_111">
      <g>
       <use xlink:href="#mcd686dee1c" x="235.19952" y="10.753663" style="stroke: #000000; stroke-width: 0.5"/>
      </g>
     </g>
     <g id="text_14">
      <!-- $\mathdefault{7}$ -->
      <g transform="translate(16.310938 14.225538) scale(0.1 -0.1)">
       <defs>
        <path id="TimesNewRomanPSMT-37" d="M 644 4238 
L 2916 4238 
L 2916 4119 
L 1503 -88 
L 1153 -88 
L 2419 3728 
L 1253 3728 
Q 900 3728 750 3644 
Q 488 3500 328 3200 
L 238 3234 
L 644 4238 
z
" transform="scale(0.015625)"/>
       </defs>
       <use xlink:href="#TimesNewRomanPSMT-37" transform="translate(0 0.78125)"/>
      </g>
     </g>
    </g>
    <g id="ytick_6">
     <g id="line2d_112">
      <path d="M 24.810938 146.707852 
L 235.19952 146.707852 
" clip-path="url(#p63c2deb883)" style="fill: none; stroke-dasharray: 1.295,0.56; stroke-dashoffset: 0; stroke: #d7d7d7; stroke-opacity: 0.28; stroke-width: 0.35"/>
     </g>
     <g id="line2d_113">
      <defs>
       <path id="m68e0f1b2c2" d="M 0 0 
L 1.5 0 
" style="stroke: #000000; stroke-width: 0.5"/>
      </defs>
      <g>
       <use xlink:href="#m68e0f1b2c2" x="24.810938" y="146.707852" style="stroke: #000000; stroke-width: 0.5"/>
      </g>
     </g>
     <g id="line2d_114">
      <defs>
       <path id="m3c9247c6f7" d="M 0 0 
L -1.5 0 
" style="stroke: #000000; stroke-width: 0.5"/>
      </defs>
      <g>
       <use xlink:href="#m3c9247c6f7" x="235.19952" y="146.707852" style="stroke: #000000; stroke-width: 0.5"/>
      </g>
     </g>
    </g>
    <g id="ytick_7">
     <g id="line2d_115">
      <path d="M 24.810938 133.759834 
L 235.19952 133.759834 
" clip-path="url(#p63c2deb883)" style="fill: none; stroke-dasharray: 1.295,0.56; stroke-dashoffset: 0; stroke: #d7d7d7; stroke-opacity: 0.28; stroke-width: 0.35"/>
     </g>
     <g id="line2d_116">
      <g>
       <use xlink:href="#m68e0f1b2c2" x="24.810938" y="133.759834" style="stroke: #000000; stroke-width: 0.5"/>
      </g>
     </g>
     <g id="line2d_117">
      <g>
       <use xlink:href="#m3c9247c6f7" x="235.19952" y="133.759834" style="stroke: #000000; stroke-width: 0.5"/>
      </g>
     </g>
    </g>
    <g id="ytick_8">
     <g id="line2d_118">
      <path d="M 24.810938 127.285825 
L 235.19952 127.285825 
" clip-path="url(#p63c2deb883)" style="fill: none; stroke-dasharray: 1.295,0.56; stroke-dashoffset: 0; stroke: #d7d7d7; stroke-opacity: 0.28; stroke-width: 0.35"/>
     </g>
     <g id="line2d_119">
      <g>
       <use xlink:href="#m68e0f1b2c2" x="24.810938" y="127.285825" style="stroke: #000000; stroke-width: 0.5"/>
      </g>
     </g>
     <g id="line2d_120">
      <g>
       <use xlink:href="#m3c9247c6f7" x="235.19952" y="127.285825" style="stroke: #000000; stroke-width: 0.5"/>
      </g>
     </g>
    </g>
    <g id="ytick_9">
     <g id="line2d_121">
      <path d="M 24.810938 120.811816 
L 235.19952 120.811816 
" clip-path="url(#p63c2deb883)" style="fill: none; stroke-dasharray: 1.295,0.56; stroke-dashoffset: 0; stroke: #d7d7d7; stroke-opacity: 0.28; stroke-width: 0.35"/>
     </g>
     <g id="line2d_122">
      <g>
       <use xlink:href="#m68e0f1b2c2" x="24.810938" y="120.811816" style="stroke: #000000; stroke-width: 0.5"/>
      </g>
     </g>
     <g id="line2d_123">
      <g>
       <use xlink:href="#m3c9247c6f7" x="235.19952" y="120.811816" style="stroke: #000000; stroke-width: 0.5"/>
      </g>
     </g>
    </g>
    <g id="ytick_10">
     <g id="line2d_124">
      <path d="M 24.810938 114.337807 
L 235.19952 114.337807 
" clip-path="url(#p63c2deb883)" style="fill: none; stroke-dasharray: 1.295,0.56; stroke-dashoffset: 0; stroke: #d7d7d7; stroke-opacity: 0.28; stroke-width: 0.35"/>
     </g>
     <g id="line2d_125">
      <g>
       <use xlink:href="#m68e0f1b2c2" x="24.810938" y="114.337807" style="stroke: #000000; stroke-width: 0.5"/>
      </g>
     </g>
     <g id="line2d_126">
      <g>
       <use xlink:href="#m3c9247c6f7" x="235.19952" y="114.337807" style="stroke: #000000; stroke-width: 0.5"/>
      </g>
     </g>
    </g>
    <g id="ytick_11">
     <g id="line2d_127">
      <path d="M 24.810938 101.389789 
L 235.19952 101.389789 
" clip-path="url(#p63c2deb883)" style="fill: none; stroke-dasharray: 1.295,0.56; stroke-dashoffset: 0; stroke: #d7d7d7; stroke-opacity: 0.28; stroke-width: 0.35"/>
     </g>
     <g id="line2d_128">
      <g>
       <use xlink:href="#m68e0f1b2c2" x="24.810938" y="101.389789" style="stroke: #000000; stroke-width: 0.5"/>
      </g>
     </g>
     <g id="line2d_129">
      <g>
       <use xlink:href="#m3c9247c6f7" x="235.19952" y="101.389789" style="stroke: #000000; stroke-width: 0.5"/>
      </g>
     </g>
    </g>
    <g id="ytick_12">
     <g id="line2d_130">
      <path d="M 24.810938 94.91578 
L 235.19952 94.91578 
" clip-path="url(#p63c2deb883)" style="fill: none; stroke-dasharray: 1.295,0.56; stroke-dashoffset: 0; stroke: #d7d7d7; stroke-opacity: 0.28; stroke-width: 0.35"/>
     </g>
     <g id="line2d_131">
      <g>
       <use xlink:href="#m68e0f1b2c2" x="24.810938" y="94.91578" style="stroke: #000000; stroke-width: 0.5"/>
      </g>
     </g>
     <g id="line2d_132">
      <g>
       <use xlink:href="#m3c9247c6f7" x="235.19952" y="94.91578" style="stroke: #000000; stroke-width: 0.5"/>
      </g>
     </g>
    </g>
    <g id="ytick_13">
     <g id="line2d_133">
      <path d="M 24.810938 88.441771 
L 235.19952 88.441771 
" clip-path="url(#p63c2deb883)" style="fill: none; stroke-dasharray: 1.295,0.56; stroke-dashoffset: 0; stroke: #d7d7d7; stroke-opacity: 0.28; stroke-width: 0.35"/>
     </g>
     <g id="line2d_134">
      <g>
       <use xlink:href="#m68e0f1b2c2" x="24.810938" y="88.441771" style="stroke: #000000; stroke-width: 0.5"/>
      </g>
     </g>
     <g id="line2d_135">
      <g>
       <use xlink:href="#m3c9247c6f7" x="235.19952" y="88.441771" style="stroke: #000000; stroke-width: 0.5"/>
      </g>
     </g>
    </g>
    <g id="ytick_14">
     <g id="line2d_136">
      <path d="M 24.810938 81.967762 
L 235.19952 81.967762 
" clip-path="url(#p63c2deb883)" style="fill: none; stroke-dasharray: 1.295,0.56; stroke-dashoffset: 0; stroke: #d7d7d7; stroke-opacity: 0.28; stroke-width: 0.35"/>
     </g>
     <g id="line2d_137">
      <g>
       <use xlink:href="#m68e0f1b2c2" x="24.810938" y="81.967762" style="stroke: #000000; stroke-width: 0.5"/>
      </g>
     </g>
     <g id="line2d_138">
      <g>
       <use xlink:href="#m3c9247c6f7" x="235.19952" y="81.967762" style="stroke: #000000; stroke-width: 0.5"/>
      </g>
     </g>
    </g>
    <g id="ytick_15">
     <g id="line2d_139">
      <path d="M 24.810938 69.019744 
L 235.19952 69.019744 
" clip-path="url(#p63c2deb883)" style="fill: none; stroke-dasharray: 1.295,0.56; stroke-dashoffset: 0; stroke: #d7d7d7; stroke-opacity: 0.28; stroke-width: 0.35"/>
     </g>
     <g id="line2d_140">
      <g>
       <use xlink:href="#m68e0f1b2c2" x="24.810938" y="69.019744" style="stroke: #000000; stroke-width: 0.5"/>
      </g>
     </g>
     <g id="line2d_141">
      <g>
       <use xlink:href="#m3c9247c6f7" x="235.19952" y="69.019744" style="stroke: #000000; stroke-width: 0.5"/>
      </g>
     </g>
    </g>
    <g id="ytick_16">
     <g id="line2d_142">
      <path d="M 24.810938 62.545735 
L 235.19952 62.545735 
" clip-path="url(#p63c2deb883)" style="fill: none; stroke-dasharray: 1.295,0.56; stroke-dashoffset: 0; stroke: #d7d7d7; stroke-opacity: 0.28; stroke-width: 0.35"/>
     </g>
     <g id="line2d_143">
      <g>
       <use xlink:href="#m68e0f1b2c2" x="24.810938" y="62.545735" style="stroke: #000000; stroke-width: 0.5"/>
      </g>
     </g>
     <g id="line2d_144">
      <g>
       <use xlink:href="#m3c9247c6f7" x="235.19952" y="62.545735" style="stroke: #000000; stroke-width: 0.5"/>
      </g>
     </g>
    </g>
    <g id="ytick_17">
     <g id="line2d_145">
      <path d="M 24.810938 56.071726 
L 235.19952 56.071726 
" clip-path="url(#p63c2deb883)" style="fill: none; stroke-dasharray: 1.295,0.56; stroke-dashoffset: 0; stroke: #d7d7d7; stroke-opacity: 0.28; stroke-width: 0.35"/>
     </g>
     <g id="line2d_146">
      <g>
       <use xlink:href="#m68e0f1b2c2" x="24.810938" y="56.071726" style="stroke: #000000; stroke-width: 0.5"/>
      </g>
     </g>
     <g id="line2d_147">
      <g>
       <use xlink:href="#m3c9247c6f7" x="235.19952" y="56.071726" style="stroke: #000000; stroke-width: 0.5"/>
      </g>
     </g>
    </g>
    <g id="ytick_18">
     <g id="line2d_148">
      <path d="M 24.810938 49.597717 
L 235.19952 49.597717 
" clip-path="url(#p63c2deb883)" style="fill: none; stroke-dasharray: 1.295,0.56; stroke-dashoffset: 0; stroke: #d7d7d7; stroke-opacity: 0.28; stroke-width: 0.35"/>
     </g>
     <g id="line2d_149">
      <g>
       <use xlink:href="#m68e0f1b2c2" x="24.810938" y="49.597717" style="stroke: #000000; stroke-width: 0.5"/>
      </g>
     </g>
     <g id="line2d_150">
      <g>
       <use xlink:href="#m3c9247c6f7" x="235.19952" y="49.597717" style="stroke: #000000; stroke-width: 0.5"/>
      </g>
     </g>
    </g>
    <g id="ytick_19">
     <g id="line2d_151">
      <path d="M 24.810938 36.649699 
L 235.19952 36.649699 
" clip-path="url(#p63c2deb883)" style="fill: none; stroke-dasharray: 1.295,0.56; stroke-dashoffset: 0; stroke: #d7d7d7; stroke-opacity: 0.28; stroke-width: 0.35"/>
     </g>
     <g id="line2d_152">
      <g>
       <use xlink:href="#m68e0f1b2c2" x="24.810938" y="36.649699" style="stroke: #000000; stroke-width: 0.5"/>
      </g>
     </g>
     <g id="line2d_153">
      <g>
       <use xlink:href="#m3c9247c6f7" x="235.19952" y="36.649699" style="stroke: #000000; stroke-width: 0.5"/>
      </g>
     </g>
    </g>
    <g id="ytick_20">
     <g id="line2d_154">
      <path d="M 24.810938 30.17569 
L 235.19952 30.17569 
" clip-path="url(#p63c2deb883)" style="fill: none; stroke-dasharray: 1.295,0.56; stroke-dashoffset: 0; stroke: #d7d7d7; stroke-opacity: 0.28; stroke-width: 0.35"/>
     </g>
     <g id="line2d_155">
      <g>
       <use xlink:href="#m68e0f1b2c2" x="24.810938" y="30.17569" style="stroke: #000000; stroke-width: 0.5"/>
      </g>
     </g>
     <g id="line2d_156">
      <g>
       <use xlink:href="#m3c9247c6f7" x="235.19952" y="30.17569" style="stroke: #000000; stroke-width: 0.5"/>
      </g>
     </g>
    </g>
    <g id="ytick_21">
     <g id="line2d_157">
      <path d="M 24.810938 23.701681 
L 235.19952 23.701681 
" clip-path="url(#p63c2deb883)" style="fill: none; stroke-dasharray: 1.295,0.56; stroke-dashoffset: 0; stroke: #d7d7d7; stroke-opacity: 0.28; stroke-width: 0.35"/>
     </g>
     <g id="line2d_158">
      <g>
       <use xlink:href="#m68e0f1b2c2" x="24.810938" y="23.701681" style="stroke: #000000; stroke-width: 0.5"/>
      </g>
     </g>
     <g id="line2d_159">
      <g>
       <use xlink:href="#m3c9247c6f7" x="235.19952" y="23.701681" style="stroke: #000000; stroke-width: 0.5"/>
      </g>
     </g>
    </g>
    <g id="ytick_22">
     <g id="line2d_160">
      <path d="M 24.810938 17.227672 
L 235.19952 17.227672 
" clip-path="url(#p63c2deb883)" style="fill: none; stroke-dasharray: 1.295,0.56; stroke-dashoffset: 0; stroke: #d7d7d7; stroke-opacity: 0.28; stroke-width: 0.35"/>
     </g>
     <g id="line2d_161">
      <g>
       <use xlink:href="#m68e0f1b2c2" x="24.810938" y="17.227672" style="stroke: #000000; stroke-width: 0.5"/>
      </g>
     </g>
     <g id="line2d_162">
      <g>
       <use xlink:href="#m3c9247c6f7" x="235.19952" y="17.227672" style="stroke: #000000; stroke-width: 0.5"/>
      </g>
     </g>
    </g>
    <g id="ytick_23">
     <g id="line2d_163">
      <path d="M 24.810938 4.279654 
L 235.19952 4.279654 
" clip-path="url(#p63c2deb883)" style="fill: none; stroke-dasharray: 1.295,0.56; stroke-dashoffset: 0; stroke: #d7d7d7; stroke-opacity: 0.28; stroke-width: 0.35"/>
     </g>
     <g id="line2d_164">
      <g>
       <use xlink:href="#m68e0f1b2c2" x="24.810938" y="4.279654" style="stroke: #000000; stroke-width: 0.5"/>
      </g>
     </g>
     <g id="line2d_165">
      <g>
       <use xlink:href="#m3c9247c6f7" x="235.19952" y="4.279654" style="stroke: #000000; stroke-width: 0.5"/>
      </g>
     </g>
    </g>
    <g id="text_15">
     <!-- 延迟 / m -->
     <g transform="translate(11.021875 97.777104) rotate(-90) scale(0.1 -0.1)">
      <defs>
       <path id="SimSun-5ef6" d="M 500 4450 
L 1800 4450 
L 2050 4700 
L 2450 4300 
Q 2225 4275 1900 3775 
Q 1575 3250 1250 2750 
L 1975 2750 
L 2150 3000 
L 2525 2675 
L 2325 2525 
Q 2175 1550 1875 750 
Q 2500 250 3112 175 
Q 3725 100 4350 100 
Q 5175 100 6025 175 
L 6025 75 
Q 5525 -25 5525 -350 
Q 3800 -350 3100 -187 
Q 2400 -25 1725 525 
Q 1175 -150 325 -525 
L 275 -450 
Q 1025 0 1500 750 
Q 1175 1175 825 2025 
L 900 2050 
Q 1275 1350 1625 1000 
Q 1925 1775 2000 2600 
L 1200 2600 
L 1050 2425 
L 725 2725 
Q 1025 2925 1362 3462 
Q 1700 4000 1825 4300 
L 1000 4300 
L 700 4250 
L 500 4450 
z
M 2800 4200 
Q 3675 4300 4412 4500 
Q 5150 4700 5350 4850 
L 5775 4400 
Q 5500 4400 5162 4350 
Q 4825 4300 4500 4250 
L 4500 2800 
L 5050 2800 
L 5350 3100 
L 5800 2650 
L 4500 2650 
L 4500 1025 
L 5200 1025 
L 5500 1325 
L 5950 875 
L 3425 875 
L 3225 650 
L 2900 975 
L 3075 1125 
L 3075 2275 
Q 3075 2775 3050 3200 
L 3575 2950 
L 3400 2825 
L 3400 1025 
L 4175 1025 
L 4175 4225 
Q 3575 4150 2825 4100 
L 2800 4200 
z
" transform="scale(0.015625)"/>
       <path id="SimSun-8fdf" d="M 3100 4500 
L 3100 3175 
L 4975 3175 
L 4975 4500 
L 3100 4500 
z
M 3100 3025 
Q 3075 1400 2100 650 
L 2050 725 
Q 2475 1225 2625 1850 
Q 2775 2475 2775 3387 
Q 2775 4300 2750 4875 
L 3100 4650 
L 4925 4650 
L 5175 4900 
L 5500 4575 
L 5300 4425 
Q 5300 3250 5325 2875 
L 4975 2725 
L 4975 3025 
L 3100 3025 
z
M 3625 2400 
L 3675 2500 
Q 4250 2225 4762 1912 
Q 5275 1600 5425 1387 
Q 5575 1175 5575 1025 
Q 5575 900 5500 800 
Q 5425 700 5400 700 
Q 5300 700 5175 950 
Q 5000 1275 4650 1612 
Q 4300 1950 3625 2400 
z
M 1600 950 
Q 1825 700 2225 450 
Q 2625 200 3400 162 
Q 4175 125 4825 150 
Q 5475 175 6100 275 
L 6100 175 
Q 5675 25 5600 -250 
Q 4500 -250 3750 -212 
Q 3000 -175 2562 0 
Q 2125 175 1825 525 
Q 1500 850 1412 837 
Q 1325 825 1050 512 
Q 775 200 650 -25 
L 275 325 
Q 725 600 1275 950 
L 1275 2925 
L 1075 2925 
Q 750 2925 475 2850 
L 250 3075 
L 1225 3075 
L 1500 3350 
L 1850 3000 
L 1600 2825 
L 1600 950 
z
M 925 4975 
L 975 5050 
Q 1500 4750 1662 4575 
Q 1825 4400 1812 4225 
Q 1800 4050 1712 3987 
Q 1625 3925 1575 3925 
Q 1475 3925 1400 4225 
Q 1275 4625 925 4975 
z
" transform="scale(0.015625)"/>
       <path id="SimSun-6d" d="M 175 2900 
Q 300 2900 425 2925 
Q 550 2950 625 3000 
L 675 3000 
L 675 2575 
Q 800 2775 950 2862 
Q 1100 2950 1275 2950 
Q 1500 2950 1625 2862 
Q 1750 2775 1775 2575 
Q 1900 2775 2062 2862 
Q 2225 2950 2400 2950 
Q 2700 2950 2812 2775 
Q 2925 2600 2925 2325 
L 2925 425 
Q 2925 325 2975 287 
Q 3025 250 3125 250 
L 3175 250 
L 3175 100 
L 2325 100 
L 2325 250 
L 2375 250 
Q 2475 250 2525 287 
Q 2575 325 2575 425 
L 2575 2300 
Q 2575 2575 2512 2662 
Q 2450 2750 2325 2750 
Q 2150 2750 2012 2625 
Q 1875 2500 1800 2275 
L 1800 425 
Q 1800 325 1850 287 
Q 1900 250 2000 250 
L 2050 250 
L 2050 100 
L 1200 100 
L 1200 250 
L 1250 250 
Q 1350 250 1400 287 
Q 1450 325 1450 425 
L 1450 2300 
Q 1450 2525 1400 2637 
Q 1350 2750 1200 2750 
Q 1025 2750 887 2625 
Q 750 2500 675 2250 
L 675 425 
Q 675 325 725 287 
Q 775 250 875 250 
L 925 250 
L 925 100 
L 75 100 
L 75 250 
L 125 250 
Q 225 250 275 287 
Q 325 325 325 425 
L 325 2600 
Q 325 2675 300 2712 
Q 275 2750 200 2750 
L 100 2750 
L 100 2900 
L 175 2900 
z
" transform="scale(0.015625)"/>
      </defs>
      <use xlink:href="#SimSun-5ef6"/>
      <use xlink:href="#SimSun-8fdf" transform="translate(100 0)"/>
      <use xlink:href="#SimSun-20" transform="translate(200 0)"/>
      <use xlink:href="#SimSun-2f" transform="translate(250 0)"/>
      <use xlink:href="#SimSun-20" transform="translate(300 0)"/>
      <use xlink:href="#SimSun-6d" transform="translate(350 0)"/>
     </g>
    </g>
   </g>
   <g id="line2d_166">
    <path d="M 24.810937 58.543859 
L 24.957142 67.413996 
L 25.249552 64.462722 
L 25.395756 110.121414 
L 25.541961 110.601656 
L 25.688166 108.521201 
L 26.565394 112.21786 
L 27.296418 114.448286 
L 28.027441 115.992208 
L 28.61226 116.766402 
L 29.050874 117.087448 
L 29.197079 63.542797 
L 29.928102 75.649809 
L 30.659126 83.836129 
L 31.39015 89.306213 
L 31.974968 92.17093 
L 32.559787 93.897872 
L 32.998401 94.507691 
L 33.290811 94.598521 
L 33.58322 94.437092 
L 33.87563 94.019389 
L 34.314244 92.8933 
L 34.460449 119.674462 
L 34.606653 89.174273 
L 34.752858 88.113895 
L 34.899063 121.203299 
L 35.045267 85.649919 
L 35.191472 84.23059 
L 35.337677 122.485671 
L 35.483882 122.861649 
L 35.630086 130.061265 
L 35.922496 50.003508 
L 36.0687 80.569279 
L 36.214905 82.097695 
L 36.36111 49.027745 
L 36.507315 84.926352 
L 37.092133 89.766191 
L 37.238338 131.300779 
L 37.530748 131.265981 
L 37.676952 93.662121 
L 38.115566 96.046272 
L 38.261771 92.503467 
L 38.407976 97.40413 
L 38.554181 93.918168 
L 38.84659 95.161825 
L 38.992795 125.270498 
L 39.138999 96.242661 
L 39.285204 100.472746 
L 39.431409 97.167538 
L 39.723818 14.826171 
L 39.870023 54.77987 
L 40.601047 67.067086 
L 41.185865 74.302179 
L 41.33207 52.26284 
L 41.478275 77.254522 
L 41.770684 79.828491 
L 41.916889 60.61169 
L 42.063094 62.398905 
L 42.209298 83.057921 
L 42.940322 86.968254 
L 43.525141 88.920395 
L 43.963755 89.745766 
L 44.10996 77.917007 
L 44.694779 79.651297 
L 45.133393 80.232177 
L 45.425802 80.269015 
L 45.718212 80.013874 
L 46.010621 79.450991 
L 46.30303 78.558678 
L 46.449235 69.674364 
L 46.741645 67.287202 
L 46.887849 75.66088 
L 47.472668 70.964342 
L 48.057487 63.860671 
L 48.203692 109.324626 
L 48.78851 110.800765 
L 48.934715 81.301198 
L 49.08092 111.410649 
L 49.811943 112.580534 
L 50.396762 113.165817 
L 50.835376 113.406683 
L 50.981581 104.581734 
L 51.273991 104.5773 
L 51.420195 113.468024 
L 52.005014 113.233665 
L 52.151219 104.061418 
L 52.736038 103.293277 
L 53.174652 102.487975 
L 53.320857 65.862273 
L 53.467061 101.838632 
L 53.613266 101.479389 
L 53.759471 50.949717 
L 54.34429 58.905238 
L 54.929108 64.44003 
L 55.075313 52.708996 
L 55.221518 66.491547 
L 55.806337 69.41113 
L 56.244951 70.696448 
L 56.391156 63.476698 
L 56.975974 65.893898 
L 57.414589 66.897823 
L 57.706998 67.201325 
L 57.999407 67.218286 
L 58.291817 66.949971 
L 58.584226 66.394177 
L 59.02284 65.008027 
L 59.461455 62.926342 
L 59.900069 60.092507 
L 61.069706 48.120348 
L 61.215911 59.925801 
L 61.654525 55.3826 
L 61.946935 121.547231 
L 62.093139 108.377931 
L 62.385549 108.404248 
L 62.531754 121.64528 
L 62.677958 123.385364 
L 62.824163 64.824489 
L 63.408982 72.765217 
L 63.993801 78.380125 
L 64.140005 91.074233 
L 64.432415 94.25378 
L 64.57862 82.268512 
L 64.724824 83.016616 
L 64.871029 69.433951 
L 65.017234 70.65605 
L 65.163438 84.790236 
L 65.602053 85.919691 
L 65.894462 86.343901 
L 66.040667 76.73563 
L 66.333076 77.768202 
L 66.479281 95.8829 
L 66.917895 98.855765 
L 67.0641 79.132858 
L 67.356509 79.21032 
L 67.648919 79.023448 
L 67.941328 78.569879 
L 68.233737 77.843883 
L 68.379942 105.753109 
L 69.110966 107.745129 
L 69.695784 108.724 
L 70.134399 109.113832 
L 70.573013 109.211525 
L 71.011627 109.014262 
L 71.157832 108.881674 
L 71.304036 109.661112 
L 71.450241 109.38218 
L 71.74265 108.004802 
L 71.888855 108.348766 
L 72.327469 107.004503 
L 72.619879 105.565039 
L 72.766083 105.322523 
L 73.497107 101.665517 
L 74.228131 96.715878 
L 74.959154 90.066812 
L 75.105359 88.479644 
L 75.251564 126.410604 
L 75.543973 125.984938 
L 75.690178 123.770859 
L 75.836382 123.361184 
L 75.982587 91.975641 
L 76.128792 92.677424 
L 76.274997 122.040421 
L 76.567406 121.081426 
L 76.713611 94.917431 
L 76.859815 95.347176 
L 77.00602 119.520348 
L 77.444634 117.80548 
L 77.590839 121.24797 
L 78.029453 119.804395 
L 78.175658 129.259006 
L 78.321863 125.120366 
L 78.468067 104.074205 
L 78.614272 104.302737 
L 78.760477 123.553138 
L 78.906681 104.651103 
L 79.052886 122.415299 
L 79.199091 104.858272 
L 79.637705 104.911456 
L 80.076319 104.661106 
L 80.514933 104.108679 
L 81.099752 102.894672 
L 81.245957 89.701646 
L 81.97698 85.436277 
L 82.708004 80.014651 
L 82.854209 70.683241 
L 83.731437 61.306804 
L 83.877642 37.729402 
L 84.462461 43.668011 
L 84.901075 46.310507 
L 85.339689 47.662377 
L 85.632098 47.917323 
L 85.778303 47.861032 
L 85.924508 47.685036 
L 86.070712 84.930722 
L 86.363122 10.343373 
L 86.801736 14.466249 
L 87.094145 16.103493 
L 87.24035 55.157499 
L 87.971374 65.148578 
L 88.702397 72.457346 
L 89.433421 77.709709 
L 90.164444 81.305503 
L 90.749263 83.16649 
L 91.187877 84.029831 
L 91.626491 84.466244 
L 91.772696 84.520108 
L 91.918901 73.787431 
L 92.50372 75.657902 
L 92.942334 76.470972 
L 93.380948 76.803283 
L 93.527153 96.473071 
L 93.673357 76.764277 
L 93.965767 76.518945 
L 94.404381 75.763914 
L 94.842995 74.538319 
L 94.9892 102.374518 
L 95.135405 73.453146 
L 95.720223 70.609923 
L 96.305042 66.805795 
L 96.451247 104.20663 
L 96.597452 64.511406 
L 96.743656 63.259042 
L 96.889861 60.661313 
L 97.47468 65.741565 
L 97.767089 67.651171 
L 97.913294 66.564379 
L 98.351908 68.153522 
L 98.790522 68.905478 
L 99.082932 68.941312 
L 99.375341 68.595502 
L 99.521546 89.27763 
L 99.813955 86.423661 
L 99.96016 69.823816 
L 100.106365 65.941515 
L 100.25257 65.075648 
L 100.398774 110.802513 
L 100.544979 111.731954 
L 100.691184 56.124295 
L 101.129798 58.040084 
L 101.276003 58.476173 
L 101.422207 62.862314 
L 101.714617 63.418011 
L 101.860821 59.209258 
L 102.007026 59.134709 
L 102.153231 63.478122 
L 102.44564 62.97658 
L 102.591845 57.737586 
L 102.884254 56.325054 
L 103.030459 64.198388 
L 103.176664 118.059488 
L 103.322869 100.424773 
L 104.346302 106.570938 
L 104.492506 107.325678 
L 104.638711 122.699831 
L 104.784916 108.751482 
L 104.93112 109.424067 
L 105.077325 123.716574 
L 105.22353 110.691969 
L 105.515939 111.86111 
L 105.662144 124.826317 
L 105.808349 112.93599 
L 105.954553 121.925507 
L 106.246963 123.145567 
L 106.393168 136.52566 
L 106.539372 125.990667 
L 106.685577 137.16322 
L 106.831782 125.352556 
L 107.855215 128.530647 
L 108.732443 130.627806 
L 109.609671 132.196264 
L 110.340695 133.122694 
L 110.633104 133.399491 
L 110.779309 114.738257 
L 111.656537 118.086258 
L 112.533766 120.622451 
L 113.264789 122.168995 
L 113.995813 123.228175 
L 114.142017 123.382872 
L 114.288222 129.174779 
L 114.873041 127.634321 
L 115.019246 118.700804 
L 115.16545 126.759229 
L 115.311655 126.294298 
L 115.45786 118.247655 
L 115.896474 117.582839 
L 116.042679 123.679672 
L 116.919907 119.841168 
L 117.94334 114.227587 
L 118.089545 81.788853 
L 118.528159 83.34009 
L 118.674363 83.637021 
L 118.820568 88.340485 
L 119.405387 90.725672 
L 119.551592 83.432021 
L 119.990206 82.170366 
L 120.42882 80.175886 
L 120.867434 77.439258 
L 121.013639 93.309352 
L 121.159844 92.982544 
L 121.306048 88.397974 
L 121.452253 87.682467 
L 121.598458 82.873508 
L 121.744662 69.274594 
L 122.183277 64.66921 
L 122.329481 70.788379 
L 122.475686 69.219014 
L 122.621891 74.860271 
L 122.768095 73.339332 
L 122.9143 63.636217 
L 123.060505 61.447096 
L 123.20671 67.896698 
L 123.352914 109.861159 
L 123.499119 111.9152 
L 123.791528 112.136385 
L 123.937733 110.079819 
L 124.083938 112.251137 
L 124.230143 112.269167 
L 124.376347 109.942635 
L 124.814961 109.552122 
L 124.961166 109.365833 
L 125.107371 117.582936 
L 125.39978 117.17106 
L 125.545985 118.209718 
L 125.69219 116.659646 
L 126.277009 115.330726 
L 127.008032 113.066182 
L 127.739056 110.070108 
L 128.616284 105.373182 
L 129.493512 99.24317 
L 129.639717 102.053634 
L 129.932126 95.534016 
L 130.809355 86.522001 
L 131.686583 74.788119 
L 131.978992 70.100515 
L 132.125197 40.558997 
L 132.271402 39.542934 
L 132.417607 48.497589 
L 132.563811 36.973011 
L 132.710016 35.411092 
L 132.856221 44.193279 
L 133.002425 31.703556 
L 133.294835 27.161748 
L 133.44104 65.435312 
L 133.879654 62.173318 
L 134.025858 60.752564 
L 134.172063 112.768022 
L 135.049291 117.706946 
L 135.341701 119.072703 
L 135.487905 117.134288 
L 135.63411 139.069946 
L 135.780315 138.792308 
L 135.92652 118.064538 
L 136.511338 118.92461 
L 137.096157 119.377726 
L 137.534771 119.462276 
L 137.973386 119.332667 
L 138.11959 27.4277 
L 138.850614 42.862223 
L 139.581637 53.908825 
L 140.166456 60.439967 
L 140.312661 33.558425 
L 141.043685 41.648832 
L 141.189889 42.96694 
L 141.336094 68.841709 
L 141.482299 69.517628 
L 141.628503 46.375247 
L 142.213322 49.71849 
L 142.359527 43.517231 
L 142.944346 46.515247 
L 143.090551 52.286341 
L 143.236755 34.145164 
L 143.38296 35.293038 
L 143.675369 52.349009 
L 143.821574 52.14634 
L 143.967779 69.191079 
L 144.698802 72.308605 
L 144.991212 75.887891 
L 145.137417 66.87497 
L 146.16085 75.20239 
L 147.038078 80.732456 
L 147.915306 85.024919 
L 148.792534 88.235671 
L 149.523558 90.159617 
L 150.254582 91.439011 
L 150.8394 92.010115 
L 150.985605 92.090264 
L 151.13181 55.47738 
L 151.862833 61.828253 
L 152.593857 66.055037 
L 152.886266 67.248811 
L 153.032471 57.702594 
L 153.324881 57.455319 
L 153.61729 56.893084 
L 154.055904 55.450577 
L 154.494518 53.259223 
L 155.079337 49.069082 
L 155.664156 43.2192 
L 156.248975 35.354121 
L 156.833794 24.918633 
L 156.979998 61.648567 
L 157.272408 56.97006 
L 157.418613 108.125898 
L 158.003431 108.672725 
L 158.149636 113.145424 
L 158.295841 108.811269 
L 158.734455 108.853188 
L 158.88066 108.823149 
L 159.026864 112.890963 
L 159.465478 112.507702 
L 159.611683 86.191697 
L 159.757888 112.156325 
L 160.050297 79.355467 
L 160.196502 79.563056 
L 160.342707 87.030696 
L 160.488911 107.020105 
L 160.781321 106.391835 
L 160.927526 80.040806 
L 161.07373 87.049956 
L 161.219935 113.427756 
L 161.36614 104.837425 
L 161.512344 79.766243 
L 161.658549 112.571633 
L 161.804754 92.472845 
L 162.389573 87.495983 
L 162.535777 110.278053 
L 162.681982 77.461237 
L 162.828187 77.002812 
L 162.974392 83.347762 
L 163.120596 82.828449 
L 163.266801 75.387126 
L 163.705415 73.393229 
L 163.85162 79.674636 
L 163.997825 71.840081 
L 164.144029 78.135343 
L 164.875053 73.504549 
L 165.021258 64.810764 
L 165.167462 90.775392 
L 165.313667 84.914019 
L 165.459872 60.920338 
L 165.752281 57.980976 
L 165.898486 82.66689 
L 166.044691 87.437199 
L 166.190895 81.352925 
L 166.3371 80.64619 
L 166.483305 85.386686 
L 166.629509 79.129589 
L 166.775714 83.867528 
L 166.921919 83.060122 
L 167.068124 76.584624 
L 167.214328 81.34561 
L 167.360533 80.436724 
L 167.506738 73.692813 
L 167.652942 120.182931 
L 167.799147 122.865113 
L 168.237761 121.547814 
L 168.383966 117.73268 
L 168.530171 120.582442 
L 168.676375 116.636533 
L 168.82258 116.061965 
L 168.968785 39.591424 
L 169.407399 48.942709 
L 169.553604 58.258517 
L 169.699808 60.25986 
L 169.846013 72.551769 
L 169.992218 73.776425 
L 170.138423 70.918118 
L 170.430832 73.504808 
L 170.577037 65.595544 
L 170.723241 29.7038 
L 170.869446 30.037308 
L 171.015651 40.021622 
L 171.161856 31.062241 
L 171.30806 39.469357 
L 171.454265 39.66034 
L 171.60047 29.908961 
L 171.746674 32.450625 
L 171.892879 32.525043 
L 172.039084 28.488952 
L 172.185289 32.358532 
L 172.477698 31.776972 
L 172.623903 37.756463 
L 172.916312 22.732878 
L 173.062517 29.368705 
L 173.208722 63.951307 
L 173.501131 63.763949 
L 173.79354 63.222917 
L 173.939745 105.048737 
L 174.08595 106.250248 
L 174.232155 61.726029 
L 174.524564 60.247689 
L 174.670769 142.201132 
L 175.109383 142.449281 
L 175.401792 91.901223 
L 175.986611 95.023637 
L 176.132816 142.759095 
L 176.279021 96.394217 
L 176.425225 85.972422 
L 177.010044 89.092895 
L 177.156249 99.830136 
L 178.033477 102.369727 
L 178.764501 103.884322 
L 179.495524 104.902845 
L 180.080343 105.383443 
L 180.665162 105.580188 
L 181.249981 105.501044 
L 181.396185 105.438699 
L 181.54239 139.924774 
L 181.688595 105.263253 
L 181.981004 105.020122 
L 182.127209 99.710917 
L 182.273414 104.709143 
L 182.565823 104.329928 
L 182.712028 99.397672 
L 182.858233 103.881959 
L 183.004437 99.133694 
L 183.150642 145.210834 
L 183.296847 74.172214 
L 183.589256 138.717598 
L 183.735461 98.157155 
L 183.881666 138.386064 
L 184.02787 101.382214 
L 184.466484 100.139787 
L 184.612689 136.935238 
L 184.905099 136.557771 
L 185.197508 68.535165 
L 185.343713 135.930375 
L 186.367146 134.1743 
L 186.51335 108.667352 
L 187.244374 111.234879 
L 187.682988 112.404344 
L 187.829193 69.020877 
L 188.560216 78.769602 
L 189.145035 84.762495 
L 189.29124 114.702358 
L 189.583649 114.821804 
L 189.729854 89.522283 
L 190.460878 94.084647 
L 191.191901 97.389175 
L 191.922925 99.642454 
L 192.507744 100.781815 
L 192.946358 101.281447 
L 193.384972 101.49237 
L 193.531177 74.73296 
L 193.677381 73.777267 
L 193.823586 101.423648 
L 194.2622 101.080331 
L 194.700814 100.463553 
L 194.847019 100.196856 
L 195.139429 98.134787 
L 195.870452 95.347823 
L 196.601476 91.687483 
L 197.478704 85.983007 
L 197.917318 82.511061 
L 198.063523 106.1813 
L 198.209728 79.934405 
L 198.502137 77.127113 
L 198.648342 106.322142 
L 198.794546 74.067691 
L 198.940751 72.435755 
L 199.086956 106.18457 
L 199.52557 105.834649 
L 200.110389 105.027308 
L 200.695208 103.811068 
L 201.426231 101.670049 
L 202.157255 98.762377 
L 202.888278 94.973269 
L 203.034483 94.096494 
L 203.326892 89.706113 
L 203.619302 87.415867 
L 203.765507 89.031521 
L 204.642735 81.174308 
L 204.78894 79.638284 
L 205.081349 72.393221 
L 205.373758 68.499849 
L 205.519963 70.76258 
L 205.958577 64.297311 
L 206.104782 57.02292 
L 206.250987 62.839979 
L 206.543396 53.963174 
L 206.689601 117.18595 
L 206.98201 116.425934 
L 207.128215 94.085424 
L 208.005443 85.943289 
L 208.151648 84.370947 
L 208.297853 112.005351 
L 208.590262 110.773606 
L 208.736467 77.342504 
L 209.46749 66.546446 
L 210.198514 52.761048 
L 210.490923 46.1472 
L 210.637128 106.945945 
L 211.075742 103.801422 
L 211.221947 53.250968 
L 211.660561 54.957128 
L 211.952971 55.518587 
L 212.24538 55.630069 
L 212.537789 55.290475 
L 212.683994 54.948648 
L 212.830199 46.375409 
L 213.268813 43.927262 
L 213.707427 40.271033 
L 213.853632 91.790258 
L 214.146041 93.339003 
L 214.292246 86.485811 
L 215.169474 91.907146 
L 215.900498 95.470473 
L 216.046703 84.518554 
L 216.485317 88.282608 
L 216.631521 80.066637 
L 216.923931 82.051957 
L 217.070136 43.231501 
L 217.21634 54.267679 
L 217.801159 63.847432 
L 217.947364 60.239046 
L 218.239773 69.949088 
L 219.117002 79.961143 
L 219.409411 86.859815 
L 219.555616 88.131537 
L 219.70182 85.319033 
L 220.140435 88.762688 
L 220.286639 78.924881 
L 220.579049 80.60398 
L 220.725253 92.682376 
L 221.163868 95.167522 
L 221.310072 65.551359 
L 221.602482 69.672842 
L 221.748686 60.702035 
L 222.47971 67.817165 
L 222.625915 80.766186 
L 223.356938 86.269935 
L 224.087962 90.217915 
L 224.672781 92.408364 
L 225.257599 93.808304 
L 225.696214 94.35662 
L 225.988623 94.483672 
L 226.281032 94.41699 
L 226.573442 94.151556 
L 226.865851 93.680151 
L 227.012056 109.964096 
L 227.74308 111.836962 
L 228.327898 112.864128 
L 228.912717 113.481457 
L 229.351331 113.674739 
L 229.789946 113.632237 
L 230.22856 113.346215 
L 230.667174 112.805182 
L 231.251993 111.659186 
L 231.544402 110.889879 
L 231.690607 104.875622 
L 232.275426 102.766228 
L 232.42163 102.12569 
L 232.567835 62.402821 
L 232.860245 63.48178 
L 233.006449 92.33579 
L 233.298859 89.912795 
L 233.445063 64.181523 
L 233.737473 63.815127 
L 234.029882 62.96114 
L 234.468496 60.714303 
L 234.760906 58.516053 
L 234.907111 67.359323 
L 235.053315 65.945658 
L 235.19952 54.019498 
L 235.19952 54.019498 
" clip-path="url(#p63c2deb883)" style="fill: none; stroke-dasharray: 11.52,2.88,1.8,2.88; stroke-dashoffset: 0; stroke: #222222; stroke-width: 1.8"/>
   </g>
   <g id="patch_3">
    <path d="M 24.810938 151.954207 
L 24.810938 3.6 
" style="fill: none; stroke: #444444; stroke-linejoin: miter; stroke-linecap: square"/>
   </g>
   <g id="patch_4">
    <path d="M 235.19952 151.954207 
L 235.19952 3.6 
" style="fill: none; stroke: #444444; stroke-linejoin: miter; stroke-linecap: square"/>
   </g>
   <g id="patch_5">
    <path d="M 24.810937 151.954207 
L 235.19952 151.954207 
" style="fill: none; stroke: #444444; stroke-linejoin: miter; stroke-linecap: square"/>
   </g>
   <g id="patch_6">
    <path d="M 24.810937 3.6 
L 235.19952 3.6 
" style="fill: none; stroke: #444444; stroke-linejoin: miter; stroke-linecap: square"/>
   </g>
   <g id="legend_1">
    <g id="patch_7">
     <path d="M 81.19952 25.81875 
L 228.19952 25.81875 
Q 230.19952 25.81875 230.19952 23.81875 
L 230.19952 10.6 
Q 230.19952 8.6 228.19952 8.6 
L 81.19952 8.6 
Q 79.19952 8.6 79.19952 10.6 
L 79.19952 23.81875 
Q 79.19952 25.81875 81.19952 25.81875 
z
" style="fill: #ffffff; stroke: #c8c8c8; stroke-linejoin: miter"/>
    </g>
    <g id="line2d_167">
     <path d="M 83.19952 17.029687 
L 93.19952 17.029687 
L 103.19952 17.029687 
" style="fill: none; stroke-dasharray: 11.52,2.88,1.8,2.88; stroke-dashoffset: 0; stroke: #222222; stroke-width: 1.8"/>
    </g>
    <g id="text_16">
     <!-- Saastamoinen 对流层延迟 -->
     <g transform="translate(111.19952 20.529687) scale(0.1 -0.1)">
      <defs>
       <path id="SimSun-53" d="M 1500 2150 
Q 825 2450 575 2675 
Q 325 2900 325 3375 
Q 325 3750 637 4087 
Q 950 4425 1525 4425 
Q 1775 4425 2000 4350 
Q 2225 4250 2325 4250 
Q 2400 4250 2462 4287 
Q 2525 4325 2575 4425 
L 2675 3400 
L 2550 3350 
Q 2325 3875 2087 4062 
Q 1850 4250 1475 4250 
Q 1000 4250 825 3987 
Q 650 3725 650 3425 
Q 650 3150 812 2987 
Q 975 2825 1700 2500 
Q 2300 2250 2562 1937 
Q 2825 1625 2825 1200 
Q 2825 750 2512 400 
Q 2200 50 1600 50 
Q 1350 50 1150 150 
Q 925 225 800 225 
Q 725 225 650 175 
Q 575 125 475 50 
L 275 1275 
L 425 1325 
Q 600 700 912 462 
Q 1225 225 1625 225 
Q 2050 225 2262 475 
Q 2475 725 2475 1200 
Q 2475 1450 2237 1687 
Q 2000 1925 1500 2150 
z
" transform="scale(0.015625)"/>
       <path id="SimSun-61" d="M 1225 75 
Q 775 75 525 287 
Q 275 500 275 775 
Q 275 1225 662 1512 
Q 1050 1800 2200 1925 
L 2200 2225 
Q 2200 2475 2087 2637 
Q 1975 2800 1575 2800 
Q 1150 2800 975 2662 
Q 800 2525 850 2375 
Q 875 2325 875 2275 
Q 875 2225 837 2150 
Q 800 2075 650 2075 
Q 550 2075 487 2137 
Q 425 2200 425 2325 
Q 425 2550 750 2750 
Q 1075 2950 1550 2950 
Q 2050 2950 2300 2762 
Q 2550 2575 2550 2225 
L 2550 575 
Q 2550 375 2587 337 
Q 2625 300 2725 300 
Q 2850 300 2900 412 
Q 2950 525 2950 725 
L 3075 725 
Q 3075 375 2950 237 
Q 2825 100 2625 100 
Q 2450 100 2350 175 
Q 2250 250 2200 425 
Q 1950 250 1737 162 
Q 1525 75 1225 75 
z
M 700 850 
Q 700 625 837 437 
Q 975 250 1275 250 
Q 1500 250 1725 337 
Q 1950 425 2200 600 
L 2200 1775 
Q 1350 1675 1025 1437 
Q 700 1200 700 850 
z
" transform="scale(0.015625)"/>
       <path id="SimSun-73" d="M 625 2175 
Q 625 2550 912 2750 
Q 1200 2950 1600 2950 
Q 1825 2950 2025 2900 
Q 2225 2825 2300 2825 
Q 2375 2825 2425 2850 
Q 2475 2875 2550 2950 
L 2650 2125 
L 2500 2100 
Q 2400 2425 2162 2612 
Q 1925 2800 1625 2800 
Q 1300 2800 1112 2675 
Q 925 2550 925 2325 
Q 925 2125 1012 2012 
Q 1100 1900 1325 1850 
Q 1500 1775 1775 1700 
Q 2025 1600 2250 1500 
Q 2450 1400 2587 1237 
Q 2725 1075 2725 875 
Q 2725 500 2462 287 
Q 2200 75 1700 75 
Q 1375 75 1225 150 
Q 1050 200 950 200 
Q 875 200 787 162 
Q 700 125 600 75 
L 525 1000 
L 675 1025 
Q 750 625 1000 425 
Q 1250 225 1700 225 
Q 2050 225 2237 350 
Q 2425 475 2425 725 
Q 2425 900 2325 1012 
Q 2225 1125 2125 1175 
Q 1875 1275 1575 1400 
Q 1275 1500 1050 1600 
Q 825 1700 725 1850 
Q 625 2000 625 2175 
z
" transform="scale(0.015625)"/>
       <path id="SimSun-74" d="M 1500 900 
Q 1500 550 1625 425 
Q 1750 300 2000 300 
Q 2250 300 2400 462 
Q 2550 625 2600 925 
L 2725 875 
Q 2675 525 2462 300 
Q 2250 75 1900 75 
Q 1525 75 1337 300 
Q 1150 525 1150 1000 
L 1150 2750 
L 400 2750 
L 400 2900 
L 600 2900 
Q 900 2900 1087 3087 
Q 1275 3275 1325 3675 
L 1350 3875 
L 1500 3875 
L 1500 2900 
L 2500 2900 
L 2500 2750 
L 1500 2750 
L 1500 900 
z
" transform="scale(0.015625)"/>
       <path id="SimSun-6f" d="M 2900 1500 
Q 2900 875 2525 462 
Q 2150 50 1600 50 
Q 1025 50 662 475 
Q 300 900 300 1500 
Q 300 2050 662 2500 
Q 1025 2950 1600 2950 
Q 2200 2950 2550 2500 
Q 2900 2050 2900 1500 
z
M 700 1475 
Q 700 825 962 512 
Q 1225 200 1600 200 
Q 2025 200 2262 537 
Q 2500 875 2500 1475 
Q 2500 2125 2237 2462 
Q 1975 2800 1600 2800 
Q 1250 2800 975 2462 
Q 700 2125 700 1475 
z
" transform="scale(0.015625)"/>
       <path id="SimSun-69" d="M 1425 2525 
Q 1425 2625 1375 2687 
Q 1325 2750 1200 2750 
L 675 2750 
L 675 2900 
L 925 2900 
Q 1150 2900 1350 2937 
Q 1550 2975 1725 3075 
L 1775 3075 
L 1775 450 
Q 1775 350 1837 300 
Q 1900 250 2000 250 
L 2525 250 
L 2525 100 
L 675 100 
L 675 250 
L 1200 250 
Q 1325 250 1375 300 
Q 1425 350 1425 450 
L 1425 2525 
z
M 1725 3025 
L 1725 3025 
z
M 1625 4425 
Q 1750 4425 1850 4337 
Q 1950 4250 1950 4125 
Q 1950 4000 1850 3900 
Q 1750 3800 1625 3800 
Q 1500 3800 1400 3900 
Q 1300 4000 1300 4125 
Q 1300 4250 1400 4337 
Q 1500 4425 1625 4425 
z
" transform="scale(0.015625)"/>
       <path id="SimSun-6e" d="M 200 100 
L 200 250 
L 325 250 
Q 450 250 500 300 
Q 550 350 550 450 
L 550 2600 
Q 550 2675 525 2712 
Q 500 2750 425 2750 
L 225 2750 
L 225 2900 
L 400 2900 
Q 525 2900 637 2925 
Q 750 2950 850 3025 
L 900 3025 
L 900 2450 
Q 1125 2700 1350 2825 
Q 1575 2950 1825 2950 
Q 2250 2950 2450 2725 
Q 2650 2500 2650 2050 
L 2650 450 
Q 2650 350 2712 300 
Q 2775 250 2875 250 
L 3000 250 
L 3000 100 
L 1950 100 
L 1950 250 
L 2075 250 
Q 2200 250 2250 300 
Q 2300 350 2300 450 
L 2300 2125 
Q 2300 2425 2175 2587 
Q 2050 2750 1800 2750 
Q 1575 2750 1337 2600 
Q 1100 2450 900 2175 
L 900 450 
Q 900 350 962 300 
Q 1025 250 1125 250 
L 1250 250 
L 1250 100 
L 200 100 
z
" transform="scale(0.015625)"/>
       <path id="SimSun-65" d="M 2400 1650 
Q 2425 2200 2212 2487 
Q 2000 2775 1650 2775 
Q 1275 2775 1037 2475 
Q 800 2175 800 1650 
L 2400 1650 
z
M 800 1500 
Q 800 825 1062 537 
Q 1325 250 1750 250 
Q 2075 250 2300 437 
Q 2525 625 2625 900 
L 2750 850 
Q 2675 575 2412 312 
Q 2150 50 1700 50 
Q 1125 50 762 425 
Q 400 800 400 1500 
Q 400 2125 762 2537 
Q 1125 2950 1650 2950 
Q 2125 2950 2475 2625 
Q 2825 2300 2825 1500 
L 800 1500 
z
" transform="scale(0.015625)"/>
       <path id="SimSun-5bf9" d="M 400 4250 
L 2375 4250 
L 2575 4500 
L 3000 4150 
L 2750 3950 
Q 2400 2850 2075 2100 
Q 2575 1375 2675 1062 
Q 2775 750 2762 537 
Q 2750 325 2662 237 
Q 2575 150 2550 150 
Q 2450 150 2375 575 
Q 2250 1075 1925 1800 
Q 1675 1350 1275 875 
Q 875 400 250 -100 
L 225 25 
Q 675 450 1087 1037 
Q 1500 1625 1725 2100 
Q 1000 3125 675 3550 
L 750 3625 
Q 1300 3025 1850 2400 
Q 2100 3050 2375 4100 
L 1225 4100 
Q 900 4100 625 4025 
L 400 4250 
z
M 3600 125 
Q 4375 0 4537 25 
Q 4700 50 4700 225 
L 4700 3350 
L 3525 3350 
Q 3200 3350 2925 3275 
L 2700 3500 
L 4700 3500 
L 4700 4350 
Q 4700 4800 4675 5125 
L 5275 4825 
L 5050 4625 
L 5050 3500 
L 5325 3500 
L 5650 3825 
L 6125 3350 
L 5050 3350 
L 5050 50 
Q 5050 -375 4500 -600 
Q 4500 -300 3600 0 
L 3600 125 
z
M 3100 2775 
L 3175 2825 
Q 3700 2400 3812 2175 
Q 3925 1950 3925 1800 
Q 3925 1625 3800 1462 
Q 3675 1300 3650 1300 
Q 3550 1300 3525 1650 
Q 3450 2125 3100 2775 
z
" transform="scale(0.015625)"/>
       <path id="SimSun-6d41" d="M 3500 -475 
Q 3525 -100 3525 250 
L 3525 1850 
Q 3525 2150 3500 2425 
L 4075 2175 
L 3850 2000 
L 3850 375 
Q 3850 25 3875 -325 
L 3500 -475 
z
M 2525 2525 
L 3075 2250 
L 2875 2100 
Q 2850 1025 2612 487 
Q 2375 -50 1450 -525 
L 1400 -450 
Q 2100 25 2325 575 
Q 2550 1125 2525 2525 
z
M 4575 150 
L 4575 1800 
Q 4575 2200 4550 2475 
L 5100 2225 
L 4900 2050 
L 4900 250 
Q 4875 -25 5125 -25 
L 5475 -25 
Q 5675 -25 5700 225 
Q 5725 475 5750 1000 
L 5850 1000 
Q 5850 500 5900 300 
Q 5950 100 6125 50 
Q 5975 -300 5575 -300 
L 4950 -300 
Q 4575 -300 4575 150 
z
M 4925 3025 
Q 4700 3425 4475 3700 
L 4525 3750 
Q 5100 3375 5275 3175 
Q 5450 2975 5450 2850 
Q 5450 2725 5362 2600 
Q 5275 2475 5225 2475 
Q 5175 2475 5150 2550 
Q 5075 2725 4975 2925 
Q 4000 2850 3437 2775 
Q 2875 2700 2650 2550 
L 2400 3000 
Q 2625 3025 2950 3375 
Q 3275 3725 3575 4250 
L 2975 4250 
Q 2650 4250 2375 4175 
L 2150 4400 
L 3725 4400 
Q 3675 4800 3275 5175 
L 3300 5250 
Q 3925 5000 3987 4887 
Q 4050 4775 4050 4675 
Q 4050 4550 3925 4400 
L 5125 4400 
L 5475 4725 
L 5900 4250 
L 3700 4250 
L 4075 3975 
L 3775 3925 
Q 3125 3250 2825 3000 
Q 3350 3000 4925 3025 
z
M 2275 3850 
Q 1425 1425 1362 1112 
Q 1300 800 1287 337 
Q 1275 -125 1275 -300 
Q 1275 -375 1175 -375 
Q 1100 -375 937 -312 
Q 775 -250 775 -75 
Q 775 75 850 300 
Q 925 550 925 700 
Q 925 850 812 950 
Q 700 1050 325 1150 
L 325 1250 
Q 775 1225 875 1237 
Q 975 1250 1125 1450 
Q 1275 1650 2175 3900 
L 2275 3850 
z
M 325 3500 
Q 1175 3100 1175 2862 
Q 1175 2625 1087 2525 
Q 1000 2425 975 2425 
Q 900 2425 825 2650 
Q 700 2950 275 3450 
L 325 3500 
z
M 925 4925 
Q 1625 4575 1700 4425 
Q 1775 4275 1775 4225 
Q 1775 4100 1687 3975 
Q 1600 3850 1550 3850 
Q 1450 3850 1375 4075 
Q 1250 4425 875 4850 
L 925 4925 
z
" transform="scale(0.015625)"/>
       <path id="SimSun-5c42" d="M 2075 2775 
L 4775 2775 
L 5075 3075 
L 5525 2625 
L 2900 2625 
Q 2525 2625 2300 2550 
L 2075 2775 
z
M 4350 850 
Q 4825 575 5162 300 
Q 5500 25 5525 -175 
Q 5550 -375 5450 -487 
Q 5350 -600 5325 -600 
Q 5250 -600 5225 -525 
Q 5125 -350 4975 -75 
Q 3800 -175 3087 -275 
Q 2375 -375 2150 -525 
L 1900 -50 
Q 2225 -25 2700 575 
Q 3175 1175 3350 1625 
L 2400 1625 
Q 2075 1625 1800 1550 
L 1575 1775 
L 5225 1775 
L 5550 2100 
L 6025 1625 
L 3425 1625 
L 3900 1300 
Q 3675 1225 3275 825 
Q 2875 400 2350 -50 
L 4925 25 
Q 4700 375 4275 775 
L 4350 850 
z
M 1550 4675 
L 1550 3825 
L 5050 3825 
L 5050 4675 
L 1550 4675 
z
M 250 -575 
Q 725 150 925 925 
Q 1125 1700 1150 2462 
Q 1175 3225 1175 3862 
Q 1175 4500 1150 5025 
L 1550 4825 
L 5025 4825 
L 5275 5075 
L 5625 4725 
L 5425 4575 
Q 5425 4300 5425 4012 
Q 5425 3725 5450 3525 
L 5050 3375 
L 5050 3675 
L 1550 3675 
Q 1550 2925 1475 2150 
Q 1400 1375 1162 700 
Q 925 25 325 -650 
L 250 -575 
z
" transform="scale(0.015625)"/>
      </defs>
      <use xlink:href="#SimSun-53"/>
      <use xlink:href="#SimSun-61" transform="translate(50 0)"/>
      <use xlink:href="#SimSun-61" transform="translate(100 0)"/>
      <use xlink:href="#SimSun-73" transform="translate(150 0)"/>
      <use xlink:href="#SimSun-74" transform="translate(200 0)"/>
      <use xlink:href="#SimSun-61" transform="translate(250 0)"/>
      <use xlink:href="#SimSun-6d" transform="translate(300 0)"/>
      <use xlink:href="#SimSun-6f" transform="translate(350 0)"/>
      <use xlink:href="#SimSun-69" transform="translate(400 0)"/>
      <use xlink:href="#SimSun-6e" transform="translate(450 0)"/>
      <use xlink:href="#SimSun-65" transform="translate(500 0)"/>
      <use xlink:href="#SimSun-6e" transform="translate(550 0)"/>
      <use xlink:href="#SimSun-20" transform="translate(600 0)"/>
      <use xlink:href="#SimSun-5bf9" transform="translate(650 0)"/>
      <use xlink:href="#SimSun-6d41" transform="translate(750 0)"/>
      <use xlink:href="#SimSun-5c42" transform="translate(850 0)"/>
      <use xlink:href="#SimSun-5ef6" transform="translate(950 0)"/>
      <use xlink:href="#SimSun-8fdf" transform="translate(1050 0)"/>
     </g>
    </g>
   </g>
  </g>
 </g>
 <defs>
  <clipPath id="p63c2deb883">
   <rect x="24.810938" y="3.6" width="210.388583" height="148.354208"/>
  </clipPath>
 </defs>
</svg>
